<svg width="14" height="31" viewBox="0 0 14 31" fill="none" xmlns="http://www.w3.org/2000/svg">
    <path d="M7.92971 27.7475C7.59606 28.5898 6.40394 28.5898 6.07029 27.7475L1.91285 17.2522C1.65283 16.5958 2.13653 15.884 2.84256 15.884L11.1574 15.884C11.8635 15.884 12.3472 16.5958 12.0872 17.2522L7.92971 27.7475Z" fill="#BABEC6" />
    <path d="M6.07029 2.44149C6.40394 1.59921 7.59606 1.59921 7.92971 2.44149L12.0872 12.9367C12.3472 13.5931 11.8635 14.305 11.1574 14.305H2.84256C2.13652 14.305 1.65283 13.5931 1.91285 12.9367L6.07029 2.44149Z" fill="#183B7F" />
    <path d="M4.98982 8.10651H5.82982L8.11882 11.5155V8.10651H9.00782V12.9995H8.16782L5.87882 9.58351V12.9995H4.98982V8.10651Z" fill="white" />
</svg>
    