<svg width="28" height="29" viewBox="0 0 28 29" fill="none" xmlns="http://www.w3.org/2000/svg">
    <path d="M13.2998 5.3805V0.735212C13.2998 0.56528 13.3673 0.402308 13.4874 0.282148C13.6076 0.161988 13.7706 0.0944824 13.9405 0.0944824C14.1104 0.0944824 14.2733 0.161988 14.3935 0.282148C14.5136 0.402308 14.5811 0.56528 14.5811 0.735212V5.3805C14.5811 5.55043 14.5136 5.7134 14.3935 5.83356C14.2733 5.95372 14.1104 6.02123 13.9405 6.02123C13.7706 6.02123 13.6076 5.95372 13.4874 5.83356C13.3673 5.7134 13.2998 5.55043 13.2998 5.3805Z" fill="#183B7F" />
    <path d="M15.0558 2.93914C15.0811 2.77145 15.1718 2.62064 15.3081 2.51975C15.4444 2.41886 15.6152 2.37614 15.7829 2.40093C18.2741 2.77588 20.5799 3.93852 22.3627 5.71865C24.1455 7.49879 25.3118 9.80293 25.6907 12.2938C25.7175 12.4616 25.6765 12.6332 25.5768 12.7707C25.477 12.9083 25.3268 13.0007 25.159 13.0274H25.0565C24.9024 13.0293 24.7529 12.9756 24.6352 12.8761C24.5176 12.7767 24.4397 12.6382 24.4158 12.486C24.0777 10.2668 23.0389 8.21387 21.4511 6.62712C19.8634 5.04036 17.8099 4.00293 15.5907 3.66637C15.4237 3.6403 15.2736 3.54922 15.1734 3.41299C15.0732 3.27676 15.0309 3.10643 15.0558 2.93914Z" fill="#183B7F" />
    <path d="M28.0001 14.1455C28.0001 14.3155 27.9326 14.4784 27.8125 14.5986C27.6923 14.7187 27.5294 14.7862 27.3594 14.7862H22.7115C22.5415 14.7862 22.3786 14.7187 22.2584 14.5986C22.1383 14.4784 22.0708 14.3155 22.0708 14.1455C22.0708 13.9756 22.1383 13.8127 22.2584 13.6925C22.3786 13.5724 22.5415 13.5049 22.7115 13.5049H27.3594C27.5294 13.5049 27.6923 13.5724 27.8125 13.6925C27.9326 13.8127 28.0001 13.9756 28.0001 14.1455Z" fill="#183B7F" />
    <path d="M25.7 15.9784C24.9023 21.0049 21.0103 24.7596 15.7698 25.5477H15.6737C15.5037 25.56 15.3359 25.5043 15.207 25.3929C15.0782 25.2815 14.9989 25.1234 14.9865 24.9534C14.9742 24.7835 15.0299 24.6156 15.1413 24.4868C15.2528 24.3579 15.4108 24.2786 15.5808 24.2663C20.2448 23.5647 23.7171 20.2265 24.4251 15.7638C24.4518 15.5938 24.545 15.4415 24.684 15.3403C24.8231 15.239 24.9967 15.1972 25.1666 15.224C25.3365 15.2507 25.4889 15.3439 25.5901 15.483C25.6913 15.6221 25.7331 15.7957 25.7064 15.9656L25.7 15.9784Z" fill="#183B7F" />
    <path d="M14.6998 22.5746V27.4537C14.6998 27.6237 14.6323 27.7866 14.5121 27.9068C14.392 28.0269 14.229 28.0944 14.0591 28.0944C13.8892 28.0944 13.7262 28.0269 13.6061 27.9068C13.486 27.7866 13.4185 27.6237 13.4185 27.4537V22.5746C13.4185 22.4046 13.486 22.2417 13.6061 22.1215C13.7262 22.0013 13.8892 21.9338 14.0591 21.9338C14.229 21.9338 14.392 22.0013 14.5121 22.1215C14.6323 22.2417 14.6998 22.4046 14.6998 22.5746Z" fill="#183B7F" />
    <path d="M12.8321 24.9869C12.8069 25.138 12.7284 25.275 12.6108 25.3731C12.4933 25.4712 12.3445 25.5241 12.1915 25.522H12.0857C9.68943 25.1532 7.47343 24.0289 5.76047 22.3128C4.04752 20.5968 2.92708 18.3787 2.56235 15.9815C2.54889 15.8974 2.55213 15.8114 2.57189 15.7285C2.59165 15.6456 2.62754 15.5674 2.67751 15.4984C2.72748 15.4294 2.79056 15.3709 2.86313 15.3263C2.93571 15.2816 3.01637 15.2517 3.1005 15.2383C3.18463 15.2248 3.27059 15.228 3.35347 15.2478C3.43635 15.2676 3.51453 15.3034 3.58354 15.3534C3.65255 15.4034 3.71104 15.4665 3.75567 15.5391C3.8003 15.6117 3.8302 15.6923 3.84367 15.7765C4.16759 17.9065 5.16277 19.8776 6.68435 21.4028C8.20594 22.928 10.1745 23.9277 12.3036 24.2565C12.4701 24.2841 12.6191 24.3762 12.718 24.513C12.817 24.6498 12.858 24.8201 12.8321 24.9869Z" fill="#183B7F" />
    <path d="M5.51928 14.7862H0.640659C0.470746 14.7862 0.307792 14.7187 0.187645 14.5986C0.0674978 14.4784 0 14.3155 0 14.1455C0 13.9756 0.0674978 13.8127 0.187645 13.6925C0.307792 13.5724 0.470746 13.5049 0.640659 13.5049H5.51928C5.68919 13.5049 5.85214 13.5724 5.97229 13.6925C6.09244 13.8127 6.15994 13.9756 6.15994 14.1455C6.15994 14.3155 6.09244 14.4784 5.97229 14.5986C5.85214 14.7187 5.68919 14.7862 5.51928 14.7862Z" fill="#183B7F" />
    <path d="M2.58204 12.2937C3.39248 7.11982 7.12752 3.24661 12.0958 2.42648C12.2636 2.39887 12.4355 2.43905 12.5737 2.53818C12.7118 2.63731 12.805 2.78727 12.8326 2.95508C12.8602 3.12289 12.82 3.29479 12.7209 3.43298C12.6218 3.57116 12.4718 3.66431 12.304 3.69192C7.8899 4.41915 4.57129 7.87268 3.84414 12.4923C3.82028 12.6445 3.74238 12.783 3.62472 12.8825C3.50706 12.9819 3.35751 13.0356 3.20348 13.0338H3.10418C2.93685 13.0048 2.78786 12.9106 2.68995 12.7718C2.59205 12.6331 2.55323 12.4611 2.58204 12.2937Z" fill="#183B7F" />
    <path d="M14.0019 16.9586C15.5835 16.9586 16.8657 15.6763 16.8657 14.0945C16.8657 12.5128 15.5835 11.2305 14.0019 11.2305C12.4203 11.2305 11.1382 12.5128 11.1382 14.0945C11.1382 15.6763 12.4203 16.9586 14.0019 16.9586Z" fill="#183B7F" />
</svg>
    