<svg width="20" height="20" viewBox="0 0 20 20" fill="none" xmlns="http://www.w3.org/2000/svg">
    <path d="M17.727 19.9693L11.0595 13.3007C8.09343 15.4094 4.00633 14.8936 1.65717 12.1141C-0.691988 9.33458 -0.519496 5.21867 2.05398 2.64549C4.62679 0.0711727 8.7431 -0.102066 11.5231 2.24697C14.3031 4.596 14.8192 8.68351 12.7103 11.6498L19.3778 18.3185L17.7282 19.9682L17.727 19.9693ZM7.00298 2.9278C4.79064 2.92731 2.88196 4.48027 2.43254 6.64649C1.98312 8.81271 3.11648 10.9968 5.14644 11.8764C7.1764 12.7561 9.54503 12.0895 10.8183 10.2802C12.0915 8.47097 11.9194 6.01635 10.4062 4.40249L11.112 5.10249L10.3163 4.30915L10.3023 4.29515C9.4294 3.41686 8.24128 2.92447 7.00298 2.9278Z" fill="#183B7F" />
</svg>
    