<svg width="20" height="22" viewBox="0 0 20 22" fill="none" xmlns="http://www.w3.org/2000/svg">
    <path fill-rule="evenodd" clip-rule="evenodd" d="M14.129 0.720337V21.4689L6.83418 15.633H0.137207V6.5562H6.83418L14.129 0.720337ZM12.4246 4.26649L7.43204 8.26057H1.84158V13.9287H7.43204L12.4246 17.9228V4.26649Z" fill="#183B7F" />
    <path fill-rule="evenodd" clip-rule="evenodd" d="M12.5675 8.16424C12.8286 7.77263 13.3577 7.66681 13.7493 7.92788C16.0984 9.49394 16.0984 12.6949 13.7493 14.261C13.3577 14.522 12.8286 14.4162 12.5675 14.0246C12.3065 13.633 12.4123 13.1039 12.8039 12.8429C14.141 11.9514 14.141 10.2374 12.8039 9.346C12.4123 9.08493 12.3065 8.55584 12.5675 8.16424Z" fill="#183B7F" />
    <path fill-rule="evenodd" clip-rule="evenodd" d="M16.9625 4.97412L17.5651 5.57671C20.4608 8.47245 20.4608 13.7161 17.5651 16.6118L16.9625 17.2144L15.7573 16.0092L16.3599 15.4067C18.5901 13.1765 18.5901 9.01202 16.3599 6.78188L15.7573 6.17929L16.9625 4.97412Z" fill="#183B7F" />
</svg>
    