<svg width="25" height="25" viewBox="0 0 25 25" fill="none" xmlns="http://www.w3.org/2000/svg">
<path d="M24.9639 12.8555C24.9639 19.4829 19.5913 24.8555 12.9639 24.8555C6.33645 24.8555 0.963867 19.4829 0.963867 12.8555C0.963867 6.22805 6.33645 0.855469 12.9639 0.855469C19.5913 0.855469 24.9639 6.22805 24.9639 12.8555Z" fill="#183B7F"/>
<path fill-rule="evenodd" clip-rule="evenodd" d="M12.9639 23.3555C18.7629 23.3555 23.4639 18.6545 23.4639 12.8555C23.4639 7.05648 18.7629 2.35547 12.9639 2.35547C7.16488 2.35547 2.46387 7.05648 2.46387 12.8555C2.46387 18.6545 7.16488 23.3555 12.9639 23.3555ZM12.9639 24.8555C19.5913 24.8555 24.9639 19.4829 24.9639 12.8555C24.9639 6.22805 19.5913 0.855469 12.9639 0.855469C6.33645 0.855469 0.963867 6.22805 0.963867 12.8555C0.963867 19.4829 6.33645 24.8555 12.9639 24.8555Z" fill="white"/>
<path d="M16.3389 14.543H15.2139V15.668H16.3389V14.543ZM16.3389 12.293H15.2139V13.418H16.3389V12.293ZM17.4639 16.793H12.9639V15.668H14.0889V14.543H12.9639V13.418H14.0889V12.293H12.9639V11.168H17.4639V16.793ZM11.8389 10.043H10.7139V8.91797H11.8389V10.043ZM11.8389 12.293H10.7139V11.168H11.8389V12.293ZM11.8389 14.543H10.7139V13.418H11.8389V14.543ZM11.8389 16.793H10.7139V15.668H11.8389V16.793ZM9.58887 10.043H8.46387V8.91797H9.58887V10.043ZM9.58887 12.293H8.46387V11.168H9.58887V12.293ZM9.58887 14.543H8.46387V13.418H9.58887V14.543ZM9.58887 16.793H8.46387V15.668H9.58887V16.793ZM12.9639 10.043V7.79297H7.33887V17.918H18.5889V10.043H12.9639Z" fill="#FFA940"/>
</svg>
