<svg width="29" height="26" viewBox="0 0 29 26" fill="none" xmlns="http://www.w3.org/2000/svg">
<path d="M3.70349 21.1176H25.2235M1.91016 11.3358L5.49682 1.55396H23.4302L27.0168 11.3358H1.91016ZM1.91016 11.3358H27.0168H1.91016ZM1.91016 11.3358V21.1176V11.3358ZM27.0168 11.3358V21.1176V11.3358ZM1.91016 21.1176V24.3782H3.70349V21.1176H1.91016ZM1.91016 21.1176H3.70349H1.91016ZM27.0168 21.1176V24.3782H25.2235V21.1176H27.0168ZM27.0168 21.1176H25.2235H27.0168Z" stroke="#FFA940" stroke-width="1.5" stroke-linecap="square"/>
<path d="M7.29065 17.857C8.28108 17.857 9.08398 17.1271 9.08398 16.2267C9.08398 15.3263 8.28108 14.5964 7.29065 14.5964C6.30022 14.5964 5.49731 15.3263 5.49731 16.2267C5.49731 17.1271 6.30022 17.857 7.29065 17.857Z" stroke="#FFA940" stroke-width="1.5" stroke-linecap="square"/>
<path d="M21.6372 17.857C22.6276 17.857 23.4305 17.1271 23.4305 16.2267C23.4305 15.3263 22.6276 14.5964 21.6372 14.5964C20.6468 14.5964 19.8439 15.3263 19.8439 16.2267C19.8439 17.1271 20.6468 17.857 21.6372 17.857Z" stroke="#FFA940" stroke-width="1.5" stroke-linecap="square"/>
</svg>
