<svg width="25" height="25" viewBox="0 0 25 25" fill="none" xmlns="http://www.w3.org/2000/svg">
<path d="M15.3364 15.572V12.5728H10.5376V16.1719H8.13821V11.3731C8.13821 11.0549 8.26461 10.7497 8.4896 10.5247C8.71458 10.2998 9.01973 10.1734 9.33791 10.1734H15.3364V7.1741L19.5354 11.3731L15.3364 15.572ZM24.5861 11.721L13.7888 0.923666H13.7768C13.3089 0.455783 12.5531 0.455783 12.0852 0.923666L1.28792 11.721C0.820041 12.1888 0.820041 12.9567 1.28792 13.4245L12.0852 24.2218C12.5531 24.6777 13.3089 24.6897 13.7888 24.2218L24.5861 13.4245C25.054 12.9567 25.054 12.1888 24.5861 11.721Z" fill="#183B7F"/>
</svg>
