<svg width="5" height="17" viewBox="0 0 5 17" fill="none" xmlns="http://www.w3.org/2000/svg">
<path d="M2.43066 16.9657C1.32609 16.9657 0.430664 16.0703 0.430664 14.9657C0.430664 13.8611 1.32609 12.9657 2.43066 12.9657C3.53523 12.9657 4.43066 13.8611 4.43066 14.9657C4.43066 16.0703 3.53523 16.9657 2.43066 16.9657ZM2.43066 10.9657C1.32609 10.9657 0.430664 10.0703 0.430664 8.9657C0.430664 7.86113 1.32609 6.9657 2.43066 6.9657C3.53523 6.9657 4.43066 7.86113 4.43066 8.9657C4.43066 9.49613 4.21995 10.0048 3.84488 10.3799C3.46981 10.755 2.9611 10.9657 2.43066 10.9657ZM2.43066 4.9657C1.32609 4.9657 0.430664 4.07027 0.430664 2.9657C0.430664 1.86113 1.32609 0.965698 2.43066 0.965698C3.53523 0.965698 4.43066 1.86113 4.43066 2.9657C4.43066 3.49613 4.21995 4.00484 3.84488 4.37991C3.46981 4.75498 2.9611 4.9657 2.43066 4.9657Z" fill="#FF8710"/>
</svg>
