<svg width="18" height="18" viewBox="0 0 18 18" fill="none" xmlns="http://www.w3.org/2000/svg">
<path d="M9 18C4.02944 18 0 13.9706 0 9C0 4.02944 4.02944 0 9 0C13.9706 0 18 4.02944 18 9C17.9943 13.9682 13.9682 17.9943 9 18ZM9 2.57143C5.4496 2.57143 2.57143 5.4496 2.57143 9C2.57143 12.5504 5.4496 15.4286 9 15.4286C12.5504 15.4286 15.4286 12.5504 15.4286 9C15.4286 5.4496 12.5504 2.57143 9 2.57143ZM9 12.8571C6.86976 12.8571 5.14286 11.1302 5.14286 9C5.14286 6.86976 6.86976 5.14286 9 5.14286C11.1302 5.14286 12.8571 6.86976 12.8571 9C12.8571 10.023 12.4508 11.0041 11.7274 11.7274C11.0041 12.4508 10.023 12.8571 9 12.8571Z" fill="#FF8710"/>
</svg>
