<svg width="19" height="18" viewBox="0 0 19 18" fill="none" xmlns="http://www.w3.org/2000/svg">
<path d="M0.0415039 7.97798C0.0503848 7.83368 0.105661 7.69544 0.19987 7.58193C0.294079 7.46842 0.422683 7.3851 0.568317 7.34323C1.63479 6.93693 2.69943 6.5219 3.76775 6.12257C8.11809 4.48514 12.4336 2.74831 16.7453 1.02021L16.9675 0.934759C17.1044 0.87003 17.2595 0.848653 17.4101 0.873757C17.5607 0.898861 17.6989 0.969127 17.8045 1.07426C17.9216 1.1767 18.0006 1.31255 18.0294 1.46133C18.0582 1.6101 18.0353 1.76374 17.9642 1.89908C17.0293 4.00095 16.0992 6.09816 15.1741 8.19072L11.1358 17.3195C10.9339 17.7747 10.5429 17.9665 10.1207 17.8095C10.0125 17.771 9.91532 17.7088 9.83717 17.6279C9.75903 17.547 9.70209 17.4497 9.671 17.3439C9.05913 15.4595 8.44727 13.5756 7.83541 11.6923C7.81169 11.6385 7.80692 11.5789 7.82181 11.5223C7.8367 11.4657 7.87044 11.4152 7.91801 11.3784C8.55312 10.782 9.18457 10.1804 9.81601 9.57879C10.1501 9.25967 10.1482 9.05565 9.81601 8.73828L9.63245 8.5639C9.58631 8.51027 9.5282 8.46706 9.46233 8.43739C9.39646 8.40772 9.32447 8.39232 9.25156 8.39232C9.17866 8.39232 9.10667 8.40772 9.0408 8.43739C8.97493 8.46706 8.91682 8.51027 8.87068 8.5639C8.22272 9.17597 7.57476 9.78456 6.93597 10.4071C6.88789 10.4641 6.82132 10.5044 6.74663 10.5218C6.67194 10.5391 6.59331 10.5325 6.52296 10.503C4.57724 9.91709 2.62968 9.33291 0.68396 8.74351C0.237912 8.60924 0.0415039 8.37731 0.0415039 7.97798Z" fill="white"/>
</svg>
