<svg width="29" height="29" viewBox="0 0 29 29" fill="none" xmlns="http://www.w3.org/2000/svg">
<path d="M22.727 22.9693L16.0595 16.3007C13.0934 18.4094 9.00633 17.8936 6.65717 15.1141C4.30801 12.3346 4.4805 8.21867 7.05398 5.64549C9.62679 3.07117 13.7431 2.89793 16.5231 5.24697C19.3031 7.596 19.8192 11.6835 17.7103 14.6498L24.3778 21.3185L22.7282 22.9682L22.727 22.9693ZM12.003 5.9278C9.79064 5.92731 7.88196 7.48027 7.43254 9.64649C6.98312 11.8127 8.11648 13.9968 10.1464 14.8764C12.1764 15.7561 14.545 15.0895 15.8183 13.2802C17.0915 11.471 16.9194 9.01635 15.4062 7.40249L16.112 8.10249L15.3163 7.30915L15.3023 7.29515C14.4294 6.41686 13.2413 5.92447 12.003 5.9278Z" fill="#183B7F"/>
</svg>
