<svg width="27" height="27" viewBox="0 0 27 27" fill="none" xmlns="http://www.w3.org/2000/svg">
<circle cx="13.9639" cy="13.9657" r="13" fill="#183B7F"/>
<path d="M15.8735 12.0562C15.3866 11.5631 14.7063 11.2635 13.9574 11.2635C13.2147 11.2635 12.5344 11.5631 12.0475 12.0562C11.5545 12.543 11.2549 13.2171 11.2549 13.966C11.2549 14.715 11.5545 15.3891 12.0475 15.8821C12.5344 16.369 13.2147 16.6748 13.9574 16.6748C14.3132 16.675 14.6655 16.6052 14.9943 16.4691C15.3231 16.3331 15.6218 16.1337 15.8735 15.8821C16.3665 15.3891 16.6661 14.715 16.6661 13.966C16.6661 13.2171 16.3665 12.543 15.8735 12.0562ZM14.9685 14.9771C14.7063 15.233 14.3506 15.3953 13.9574 15.3953C13.7706 15.3951 13.5857 15.3581 13.4133 15.2863C13.2409 15.2146 13.0843 15.1095 12.9525 14.9771C12.6966 14.715 12.5344 14.3593 12.5344 13.966C12.5356 13.589 12.6859 13.2278 12.9525 12.9612C13.2191 12.6946 13.5804 12.5443 13.9574 12.543C14.3506 12.543 14.7063 12.7053 14.9685 12.9612C15.1008 13.093 15.2059 13.2495 15.2777 13.422C15.3494 13.5944 15.3864 13.7793 15.3866 13.966C15.3866 14.3593 15.2244 14.715 14.9685 14.9771Z" fill="#FAFAFA"/>
<path d="M22.346 12.318L20.8481 12.1245C20.6858 11.5129 20.4424 10.9324 20.1365 10.3957L21.054 9.20356C21.26 8.94143 21.2974 8.57943 21.054 8.33602L20.7732 8.05516L19.8682 7.15016L19.5873 6.8693C19.3501 6.63213 18.9881 6.66334 18.7198 6.8693L17.5277 7.79302C16.9909 7.48095 16.4105 7.24378 15.7988 7.07527L15.6116 5.58359C15.5679 5.24656 15.337 4.9657 14.9999 4.9657H12.9216L12.9091 4.97194H12.8467C12.8369 4.97646 12.8262 4.9786 12.8155 4.97818H12.803V4.98442H12.7843L12.7718 4.99066H12.7593L12.7468 4.9969L12.7281 5.00315L12.7156 5.00939H12.7031L12.6906 5.01563L12.6782 5.02187L12.6657 5.02811L12.6532 5.03435L12.6407 5.04059L12.6282 5.05308C12.6234 5.05317 12.6186 5.05434 12.6143 5.0565C12.61 5.05866 12.6062 5.06175 12.6033 5.06556L12.5908 5.0718L12.5783 5.08428L12.5658 5.09052L12.5596 5.10301L12.5471 5.10925L12.5346 5.12173L12.5221 5.12797L12.5159 5.14046L12.5034 5.15294L12.4972 5.15918L12.4847 5.17166L12.4784 5.18414L12.4659 5.19663L12.4597 5.20287L12.4472 5.21535L12.441 5.22783L12.4347 5.24032L12.4223 5.2528L12.416 5.26528L12.4098 5.27776L12.4035 5.29025L12.3973 5.30273L12.3848 5.31521L12.3786 5.33394L12.3723 5.34642L12.3661 5.3589V5.37138L12.3598 5.38387L12.3536 5.40259L12.3474 5.41507L12.3411 5.42756L12.3349 5.44628V5.45876L12.3286 5.47749V5.48997L12.3224 5.50245L12.3162 5.52118V5.53366L12.3099 5.55238V5.58359L12.1164 7.07527C11.5048 7.24378 10.9243 7.48095 10.3938 7.79302L9.19549 6.8693C8.93335 6.66334 8.57136 6.63213 8.32794 6.8693L8.04709 7.15016L7.14209 8.05516L6.86123 8.33602C6.62406 8.57943 6.65527 8.94143 6.86123 9.20356L7.78495 10.3957C7.47288 10.9324 7.23571 11.5129 7.0672 12.1245L5.57552 12.318C5.23849 12.3617 4.96387 12.5926 4.96387 12.9296V15.008C4.96387 15.345 5.23849 15.576 5.57552 15.6197L7.0672 15.8069C7.23571 16.4185 7.47288 16.999 7.78495 17.5357L6.86123 18.7278C6.65527 18.9962 6.62406 19.3582 6.86123 19.5954L7.14209 19.8762L8.04709 20.7812L8.32794 21.0621C8.57136 21.3055 8.93335 21.2681 9.19549 21.0621L10.3938 20.1446C10.9343 20.4564 11.5135 20.6956 12.1164 20.8561L12.3099 22.354C12.3536 22.6848 12.5845 22.9657 12.9216 22.9657H14.9999C15.337 22.9657 15.5679 22.6848 15.6116 22.354L15.7988 20.8561C16.4105 20.6939 16.9909 20.4504 17.5277 20.1446L18.7198 21.0621C18.9881 21.2681 19.3501 21.3055 19.5873 21.0621L19.8682 20.7812L20.7732 19.8762L21.054 19.5954C21.2974 19.3582 21.26 18.9962 21.054 18.7278L20.1365 17.5357C20.4424 16.999 20.6858 16.4185 20.8481 15.8069L22.346 15.6197C22.6768 15.576 22.9576 15.345 22.9576 15.008V12.9296C22.9576 12.5926 22.6768 12.3617 22.346 12.318ZM13.9576 19.2459C11.0429 19.2459 8.67746 16.8866 8.67746 13.9657C8.67746 11.051 11.0429 8.68553 13.9576 8.68553C16.8786 8.68553 19.2378 11.051 19.2378 13.9657C19.2378 16.8866 16.8786 19.2459 13.9576 19.2459Z" fill="#FAFAFA"/>
</svg>
