<svg width="19" height="19" viewBox="0 0 19 19" fill="none" xmlns="http://www.w3.org/2000/svg">
<path d="M9.4668 18.8712C4.49623 18.8712 0.466797 14.8418 0.466797 9.87122C0.466797 4.90065 4.49623 0.871216 9.4668 0.871216C14.4374 0.871216 18.4668 4.90065 18.4668 9.87122C18.4611 14.8394 14.435 18.8655 9.4668 18.8712ZM9.4668 3.44264C5.91639 3.44264 3.03823 6.32081 3.03823 9.87122C3.03823 13.4216 5.91639 16.2998 9.4668 16.2998C13.0172 16.2998 15.8954 13.4216 15.8954 9.87122C15.8954 6.32081 13.0172 3.44264 9.4668 3.44264ZM9.4668 13.7284C7.33656 13.7284 5.60965 12.0015 5.60965 9.87122C5.60965 7.74097 7.33656 6.01407 9.4668 6.01407C11.597 6.01407 13.3239 7.74097 13.3239 9.87122C13.3239 10.8942 12.9176 11.8753 12.1942 12.5986C11.4709 13.322 10.4898 13.7284 9.4668 13.7284Z" fill="#00A651"/>
</svg>
