<svg width="11" height="12" viewBox="0 0 11 12" fill="none" xmlns="http://www.w3.org/2000/svg">
<path d="M10.2972 11.6326C4.60941 11.6407 0.29275 7.27227 0.298835 1.63428C0.298835 1.26609 0.597311 0.965942 0.965501 0.965942H2.72507C3.05545 0.965942 3.33612 1.2087 3.38463 1.5355C3.5009 2.31874 3.72894 3.08125 4.06182 3.79974L4.13033 3.94761C4.22558 4.15321 4.16101 4.3975 3.97661 4.52919C3.43169 4.91834 3.22344 5.70164 3.64796 6.31285C4.18068 7.07984 4.8522 7.75121 5.61901 8.28369C6.23018 8.70808 7.01336 8.49986 7.4025 7.95504C7.53428 7.77054 7.7787 7.70594 7.98443 7.80124L8.13162 7.86942C8.85015 8.20227 9.61273 8.43033 10.396 8.54658C10.7229 8.59508 10.9655 8.87573 10.9655 9.20612V10.9659C10.9655 11.3341 10.6663 11.6326 10.2981 11.6326L10.2972 11.6326Z" fill="#183B7F"/>
</svg>
