<svg width="12" height="13" viewBox="0 0 12 13" fill="none" xmlns="http://www.w3.org/2000/svg">
<path d="M2.37293 12.1327C1.38951 12.1325 0.511803 11.5157 0.17837 10.5905C-0.155062 9.66533 0.127364 8.63041 0.88453 8.00287C1.6417 7.37532 2.71104 7.28987 3.55826 7.78921L7.36276 3.98471C6.76758 2.97351 7.01702 1.6775 7.94503 0.959477C8.87304 0.241449 10.1902 0.325354 11.0196 1.15533C11.8489 1.98531 11.9319 3.30249 11.2132 4.22999C10.4946 5.15749 9.19837 5.40602 8.1876 4.81012L4.38368 8.61404C4.8092 9.33555 4.81533 10.2298 4.39973 10.9571C3.98412 11.6843 3.21057 12.133 2.37293 12.1327ZM2.37293 8.6327C1.7286 8.6327 1.20626 9.15504 1.20626 9.79937C1.20626 10.4437 1.7286 10.966 2.37293 10.966C3.01726 10.966 3.53959 10.4437 3.53959 9.79937C3.53959 9.15504 3.01726 8.6327 2.37293 8.6327ZM9.37293 1.63271C8.73558 1.63335 8.2167 2.14537 8.20756 2.78265C8.19843 3.41994 8.70243 3.94662 9.3395 3.96552C9.97657 3.98443 10.5109 3.48858 10.5396 2.85187V3.08521V2.79937C10.5396 2.15504 10.0173 1.63271 9.37293 1.63271Z" fill="#183B7F"/>
</svg>
