<svg width="17" height="20" viewBox="0 0 17 20" fill="none" xmlns="http://www.w3.org/2000/svg">
    <path d="M14.9658 20H2.96582C1.86125 20 0.96582 19.1046 0.96582 18V2C0.96582 0.89543 1.86125 0 2.96582 0H9.96582C9.97672 0.000472319 9.98749 0.00249256 9.99782 0.006C10.0076 0.00901724 10.0176 0.0110277 10.0278 0.012C10.116 0.0176532 10.2031 0.0347982 10.2868 0.063L10.3148 0.072C10.3375 0.079682 10.3595 0.0890412 10.3808 0.1C10.4898 0.148424 10.589 0.216185 10.6738 0.3L16.6738 6.3C16.7576 6.38479 16.8254 6.48406 16.8738 6.593C16.8838 6.615 16.8908 6.638 16.8988 6.661L16.9078 6.687C16.9357 6.77039 16.9522 6.85718 16.9568 6.945C16.9584 6.95418 16.9607 6.96322 16.9638 6.972C16.9656 6.98122 16.9663 6.99062 16.966 7V18C16.966 19.1046 16.0704 20 14.9658 20ZM2.96582 2V18H14.9658V8H9.96582C9.41354 8 8.96582 7.55228 8.96582 7V2H2.96582ZM10.9658 3.414V6H13.5518L10.9658 3.414Z" fill="#FFA940" />
</svg>