<svg width="21" height="20" viewBox="0 0 21 20" fill="none" xmlns="http://www.w3.org/2000/svg">
<path d="M10.9658 20C5.44297 20 0.96582 15.5228 0.96582 9.99998C0.96582 4.47714 5.44297 -1.52588e-05 10.9658 -1.52588e-05C16.4887 -1.52588e-05 20.9658 4.47714 20.9658 9.99998C20.9598 15.5203 16.4862 19.9939 10.9658 20ZM2.96582 10.172C3.01314 14.5732 6.60693 18.1095 11.0084 18.086C15.4098 18.0622 18.9654 14.4875 18.9654 10.086C18.9654 5.68449 15.4098 2.10976 11.0084 2.08598C6.60693 2.06244 3.01314 5.59874 2.96582 9.99998V10.172ZM12.9658 15H9.96582V11H8.96582V8.99998H11.9658V13H12.9658V15ZM11.9658 6.99998H9.96582V4.99998H11.9658V6.99998Z" fill="#FFA940"/>
</svg>
