<svg width="14" height="14" viewBox="0 0 14 14" fill="none" xmlns="http://www.w3.org/2000/svg">
<path d="M0.0834961 6C0.08991 5.8949 0.129832 5.79423 0.197872 5.71156C0.265912 5.62889 0.358792 5.56821 0.463973 5.53772C1.23421 5.24181 2.00311 4.93955 2.77467 4.64872C5.91658 3.4562 9.03331 2.19128 12.1474 0.932712L12.3078 0.870482C12.4067 0.823341 12.5187 0.807772 12.6275 0.826055C12.7363 0.844338 12.8361 0.895512 12.9123 0.972082C12.9969 1.04669 13.0539 1.14562 13.0747 1.25398C13.0956 1.36233 13.079 1.47422 13.0277 1.57279C12.3524 3.10356 11.6807 4.63094 11.0126 6.15494L8.09604 12.8034C7.95021 13.1348 7.66784 13.2745 7.36293 13.1602C7.28475 13.1322 7.21459 13.0869 7.15815 13.028C7.10171 12.969 7.06059 12.8982 7.03813 12.8211C6.59623 11.4487 6.15433 10.0767 5.71243 8.70509C5.6953 8.66592 5.69186 8.6225 5.70261 8.5813C5.71336 8.5401 5.73773 8.50333 5.77208 8.47649C6.23078 8.04215 6.68682 7.604 7.14286 7.16585C7.38414 6.93345 7.38281 6.78486 7.14286 6.55372L7.01029 6.42672C6.97697 6.38766 6.935 6.35619 6.88743 6.33458C6.83985 6.31297 6.78786 6.30176 6.73521 6.30176C6.68255 6.30176 6.63056 6.31297 6.58299 6.33458C6.53541 6.35619 6.49344 6.38766 6.46012 6.42672C5.99215 6.87249 5.52418 7.31571 5.06283 7.7691C5.02811 7.81062 4.98003 7.83997 4.92609 7.85261C4.87214 7.86524 4.81535 7.86044 4.76455 7.83895C3.35931 7.41223 1.95274 6.98679 0.547492 6.55753C0.225346 6.45974 0.0834961 6.29083 0.0834961 6Z" fill="white"/>
</svg>
