<svg width="20" height="20" viewBox="0 0 20 20" fill="none" xmlns="http://www.w3.org/2000/svg">
<path d="M9.93864 19.4043C9.40792 19.4058 8.89868 19.1948 8.52464 18.8183L0.687638 10.9833C0.27411 10.5711 0.0621112 9.99837 0.107638 9.41629L0.607638 2.85029C0.679057 1.86197 1.46705 1.07696 2.45564 1.00929L9.02164 0.509294C9.07364 0.498292 9.12464 0.498292 9.17664 0.498292C9.7063 0.497658 10.2143 0.708622 10.5876 1.08429L18.4246 8.91829C18.7999 9.29339 19.0107 9.80222 19.0107 10.3328C19.0107 10.8634 18.7999 11.3722 18.4246 11.7473L11.3526 18.8183C10.9785 19.1946 10.4693 19.4056 9.93864 19.4043ZM5.69564 4.09029C4.79046 4.09055 3.9983 4.69873 3.76423 5.57312C3.53017 6.44751 3.91256 7.37011 4.69655 7.82254C5.48055 8.27498 6.47068 8.14445 7.11064 7.50429L7.11764 7.49829L7.12464 7.49129L7.11664 7.49829C7.68507 6.92485 7.85294 6.06585 7.5422 5.3206C7.23146 4.57535 6.50308 4.09005 5.69564 4.09029Z" fill="#183B7F"/>
</svg>
