<svg width="219" height="31" viewBox="0 0 219 31" fill="none" xmlns="http://www.w3.org/2000/svg">
<path d="M6.93586 5.08736H0.407856V1.02336H18.3279V5.08736H11.7999V23.3914H6.93586V5.08736ZM20.4669 1.02336H25.3309V9.98336H35.0909V1.02336H39.9549V23.3914H35.0909V14.0154H25.3309V23.3914H20.4669V1.02336ZM51.5994 1.02336H56.3674L65.2954 23.3914H60.3354L58.4154 18.5274H49.5514L47.6314 23.3914H42.6394L51.5994 1.02336ZM57.1354 14.6554L53.9674 6.14336L50.7994 14.6554H57.1354ZM67.9981 1.02336H72.8621V23.3914H67.9981V1.02336Z" fill="white"/>
<path d="M76.2169 1.02336H81.0169L87.8969 15.9994L94.8089 1.02336H99.5769V23.3914H94.9369V10.6874L89.0169 23.3914H86.7769L80.8889 10.6874V23.3914H76.2169V1.02336ZM108.664 23.8714C106.786 23.8714 105.25 23.402 104.056 22.4634C102.882 21.5034 102.296 20.202 102.296 18.5594C102.296 16.8527 102.861 15.53 103.992 14.5914C105.122 13.6314 106.722 13.1514 108.792 13.1514C109.709 13.1514 110.584 13.2474 111.416 13.4394C112.248 13.6314 112.984 13.898 113.624 14.2394V13.8554C113.624 12.8954 113.282 12.1914 112.6 11.7434C111.917 11.2954 110.872 11.0714 109.464 11.0714C107.586 11.0714 105.858 11.4234 104.28 12.1274V8.60736C104.962 8.30869 105.848 8.06336 106.936 7.87136C108.024 7.65802 109.112 7.55136 110.2 7.55136C112.973 7.55136 115.042 8.12736 116.408 9.27936C117.773 10.41 118.456 11.9994 118.456 14.0474V23.3914H113.912V21.9834C112.61 23.242 110.861 23.8714 108.664 23.8714ZM109.976 20.6714C110.765 20.6714 111.48 20.522 112.12 20.2234C112.76 19.9247 113.261 19.5087 113.624 18.9754V17.4394C112.536 16.714 111.341 16.3514 110.04 16.3514C109.144 16.3514 108.45 16.5434 107.96 16.9274C107.49 17.29 107.256 17.834 107.256 18.5594C107.256 19.242 107.49 19.7647 107.96 20.1274C108.429 20.49 109.101 20.6714 109.976 20.6714ZM121.654 8.03136H126.326V9.72736C127.884 8.27669 129.804 7.55136 132.086 7.55136C133.686 7.55136 135.094 7.89269 136.31 8.57536C137.548 9.23669 138.508 10.186 139.19 11.4234C139.873 12.6394 140.214 14.058 140.214 15.6794C140.214 17.2794 139.873 18.698 139.19 19.9354C138.508 21.1727 137.548 22.1434 136.31 22.8474C135.094 23.53 133.686 23.8714 132.086 23.8714C130.998 23.8714 129.964 23.7114 128.982 23.3914C128.001 23.0714 127.169 22.6127 126.486 22.0154V30.3994H121.654V8.03136ZM130.87 20.0954C132.172 20.0954 133.228 19.69 134.038 18.8794C134.87 18.0687 135.286 17.002 135.286 15.6794C135.286 14.3567 134.87 13.3007 134.038 12.5114C133.228 11.722 132.172 11.3274 130.87 11.3274C129.868 11.3274 128.972 11.594 128.182 12.1274C127.393 12.6607 126.828 13.3647 126.486 14.2394V17.1514C126.806 18.0474 127.361 18.762 128.15 19.2954C128.961 19.8287 129.868 20.0954 130.87 20.0954ZM154.123 1.02336H158.859L168.203 15.4874V1.02336H173.067V23.3914H168.363L158.987 8.92736V23.3914H154.123V1.02336ZM182.132 23.8714C180.255 23.8714 178.719 23.402 177.524 22.4634C176.351 21.5034 175.764 20.202 175.764 18.5594C175.764 16.8527 176.33 15.53 177.46 14.5914C178.591 13.6314 180.191 13.1514 182.26 13.1514C183.178 13.1514 184.052 13.2474 184.884 13.4394C185.716 13.6314 186.452 13.898 187.092 14.2394V13.8554C187.092 12.8954 186.751 12.1914 186.068 11.7434C185.386 11.2954 184.34 11.0714 182.932 11.0714C181.055 11.0714 179.327 11.4234 177.748 12.1274V8.60736C178.431 8.30869 179.316 8.06336 180.404 7.87136C181.492 7.65802 182.58 7.55136 183.668 7.55136C186.442 7.55136 188.511 8.12736 189.876 9.27936C191.242 10.41 191.924 11.9994 191.924 14.0474V23.3914H187.38V21.9834C186.079 23.242 184.33 23.8714 182.132 23.8714ZM183.444 20.6714C184.234 20.6714 184.948 20.522 185.588 20.2234C186.228 19.9247 186.73 19.5087 187.092 18.9754V17.4394C186.004 16.714 184.81 16.3514 183.508 16.3514C182.612 16.3514 181.919 16.5434 181.428 16.9274C180.959 17.29 180.724 17.834 180.724 18.5594C180.724 19.242 180.959 19.7647 181.428 20.1274C181.898 20.49 182.57 20.6714 183.444 20.6714ZM193.302 8.03136H197.366L201.526 18.6554L205.686 8.03136H209.75L203.414 23.3914H199.638L193.302 8.03136ZM215.748 5.66336C215.001 5.66336 214.372 5.41802 213.86 4.92736C213.348 4.43669 213.092 3.81802 213.092 3.07136C213.092 2.34602 213.348 1.73802 213.86 1.24736C214.372 0.735357 215.001 0.479357 215.748 0.479357C216.495 0.479357 217.124 0.735357 217.636 1.24736C218.148 1.73802 218.404 2.34602 218.404 3.07136C218.404 3.81802 218.148 4.43669 217.636 4.92736C217.124 5.41802 216.495 5.66336 215.748 5.66336ZM213.316 8.03136H218.18V23.3914H213.316V8.03136Z" fill="#FFA940"/>
</svg>
