<svg width="25" height="25" viewBox="0 0 25 25" fill="none" xmlns="http://www.w3.org/2000/svg">
    <path d="M12.0415 24.0869C5.41409 24.0869 0.0415039 18.7143 0.0415039 12.0869C0.0415039 5.4595 5.41409 0.0869141 12.0415 0.0869141C18.6689 0.0869141 24.0415 5.4595 24.0415 12.0869C24.0339 18.7112 18.6658 24.0794 12.0415 24.0869ZM12.0415 3.51549C7.30763 3.51549 3.47008 7.35304 3.47008 12.0869C3.47008 16.8208 7.30763 20.6583 12.0415 20.6583C16.7754 20.6583 20.6129 16.8208 20.6129 12.0869C20.6129 7.35304 16.7754 3.51549 12.0415 3.51549ZM12.0415 17.2298C9.20118 17.2298 6.89865 14.9272 6.89865 12.0869C6.89865 9.24659 9.20118 6.94406 12.0415 6.94406C14.8818 6.94406 17.1844 9.24659 17.1844 12.0869C17.1844 13.4509 16.6425 14.759 15.6781 15.7235C14.7136 16.6879 13.4055 17.2298 12.0415 17.2298Z" fill="#00A651" />
</svg>
    