<svg width="32" height="42" viewBox="0 0 32 42" fill="none" xmlns="http://www.w3.org/2000/svg">
    <circle cx="17.334" cy="15.9346" r="11.5" fill="white" />
    <path d="M31.3142 16.0463L31.3142 16.0463L31.3138 16.0552C31.0903 22.314 28.0463 26.4569 24.6235 30.165C23.9808 30.8611 23.317 31.5498 22.6555 32.2359C21.5735 33.3583 20.4978 34.4741 19.5319 35.6055C18.2489 37.1083 17.1143 38.6866 16.3288 40.4516C15.5465 38.6876 14.4207 37.1097 13.1476 35.6069C12.1817 34.4668 11.1062 33.3433 10.0239 32.2127C9.37494 31.5347 8.72349 30.8542 8.09173 30.166C4.68811 26.4581 1.64187 22.3135 1.34281 16.0522C1.04919 7.78169 8.14768 1.08821 16.3285 0.934654C24.6689 1.08832 31.7568 7.78601 31.3142 16.0463ZM26.3341 16.073C26.3341 10.5841 21.9707 6.22062 16.4817 6.22062C10.9927 6.22062 6.62928 10.5841 6.62928 16.073C6.62928 21.562 10.9927 25.9254 16.4817 25.9254C21.9707 25.9254 26.3341 21.562 26.3341 16.073Z" fill="#00A651" stroke="white" />
    <circle cx="16.334" cy="15.9346" r="5.5" fill="#00A651" />
</svg>
    