<svg width="32" height="42" viewBox="0 0 32 42" fill="none" xmlns="http://www.w3.org/2000/svg">
<circle cx="16.958" cy="16.0632" r="11.5" fill="white"/>
<path d="M30.9383 16.1749L30.9382 16.1749L30.9379 16.1838C30.7143 22.4427 27.6703 26.5855 24.2475 30.2936C23.6049 30.9898 22.941 31.6784 22.2795 32.3646C21.1975 33.487 20.1219 34.6028 19.156 35.7341C17.8729 37.2369 16.7383 38.8153 15.9529 40.5802C15.1705 38.8162 14.0448 37.2384 12.7717 35.7356C11.8057 34.5954 10.7303 33.472 9.64796 32.3414C8.99897 31.6634 8.34752 30.9829 7.71576 30.2947C4.31213 26.5868 1.2659 22.4422 0.966836 16.1809C0.67321 7.91035 7.77171 1.21687 15.9525 1.06332C24.2929 1.21698 31.3808 7.91467 30.9383 16.1749ZM25.9581 16.2017C25.9581 10.7127 21.5947 6.34928 16.1057 6.34928C10.6168 6.34928 6.25331 10.7127 6.25331 16.2017C6.25331 21.6907 10.6168 26.0541 16.1057 26.0541C21.5947 26.0541 25.9581 21.6907 25.9581 16.2017Z" fill="#2988F0" stroke="white"/>
<circle cx="15.958" cy="16.0632" r="5.5" fill="#2988F0"/>
</svg>
