<svg width="32" height="42" viewBox="0 0 32 42" fill="none" xmlns="http://www.w3.org/2000/svg">
    <circle cx="16.792" cy="15.9243" r="11.5" fill="white" />
    <path d="M30.7722 16.036L30.7722 16.036L30.7718 16.0449C30.5483 22.3038 27.5043 26.4466 24.0815 30.1547C23.4389 30.8509 22.775 31.5395 22.1135 32.2257C21.0315 33.3481 19.9558 34.4639 18.9899 35.5952C17.7069 37.098 16.5723 38.6764 15.7868 40.4413C15.0045 38.6773 13.8787 37.0995 12.6056 35.5967C11.6397 34.4565 10.5642 33.333 9.48194 32.2024C8.83295 31.5245 8.1815 30.844 7.54974 30.1557C4.14612 26.4479 1.09988 22.3033 0.800821 16.042C0.507195 7.77143 7.60569 1.07796 15.7865 0.9244C24.1269 1.07807 31.2148 7.77576 30.7722 16.036ZM25.7921 16.0628C25.7921 10.5738 21.4287 6.21036 15.9397 6.21036C10.4507 6.21036 6.08729 10.5738 6.08729 16.0628C6.08729 21.5517 10.4507 25.9152 15.9397 25.9152C21.4287 25.9152 25.7921 21.5517 25.7921 16.0628Z" fill="#CB1431" stroke="white" />
    <circle cx="15.792" cy="15.9243" r="5.5" fill="#CB1431" />
</svg>
    