<svg width="25" height="25" viewBox="0 0 19 19" fill="none" xmlns="http://www.w3.org/2000/svg">
    <path d="M9.43066 18.9657C4.4601 18.9657 0.430664 14.9363 0.430664 9.9657C0.430664 4.99514 4.4601 0.965698 9.43066 0.965698C14.4012 0.965698 18.4307 4.99514 18.4307 9.9657C18.425 14.9339 14.3989 18.96 9.43066 18.9657ZM9.43066 3.53713C5.88026 3.53713 3.00209 6.4153 3.00209 9.9657C3.00209 13.5161 5.88026 16.3943 9.43066 16.3943C12.9811 16.3943 15.8592 13.5161 15.8592 9.9657C15.8592 6.4153 12.9811 3.53713 9.43066 3.53713ZM9.43066 13.8228C7.30042 13.8228 5.57352 12.0959 5.57352 9.9657C5.57352 7.83546 7.30042 6.10856 9.43066 6.10856C11.5609 6.10856 13.2878 7.83546 13.2878 9.9657C13.2878 10.9887 12.8814 11.9698 12.1581 12.6931C11.4347 13.4165 10.4536 13.8228 9.43066 13.8228Z" fill="#CE203B" />
</svg>