<svg width="32" height="42" viewBox="0 0 32 42" fill="none" xmlns="http://www.w3.org/2000/svg">
    <circle cx="16.5234" cy="15.5386" r="11.5" fill="white" />
    <path d="M30.5037 15.6503L30.5036 15.6503L30.5033 15.6592C30.2798 21.918 27.2358 26.0609 23.8129 29.769C23.1703 30.4651 22.5064 31.1538 21.8449 31.84C20.7629 32.9623 19.6873 34.0781 18.7214 35.2095C17.4384 36.7123 16.3037 38.2906 15.5183 40.0556C14.7359 38.2916 13.6102 36.7137 12.3371 35.2109C11.3712 34.0708 10.2957 32.9473 9.21338 31.8167C8.56439 31.1387 7.91295 30.4582 7.28119 29.77C3.87756 26.0621 0.831325 21.9175 0.532266 15.6562C0.23864 7.38569 7.33714 0.692214 15.5179 0.538658C23.8583 0.692324 30.9462 7.39001 30.5037 15.6503ZM25.5236 15.677C25.5236 10.1881 21.1601 5.82462 15.6712 5.82462C10.1822 5.82462 5.81874 10.1881 5.81874 15.677C5.81874 21.166 10.1822 25.5294 15.6712 25.5294C21.1601 25.5294 25.5236 21.166 25.5236 15.677Z" fill="#FF8710" stroke="white" />
    <circle cx="15.5234" cy="15.5386" r="5.5" fill="#FF8710" />
</svg>
    