<svg width="22" height="23" viewBox="0 0 22 23" fill="none" xmlns="http://www.w3.org/2000/svg">
<path d="M22 11.5513C22 17.6264 17.0751 22.5513 11 22.5513C4.92487 22.5513 0 17.6264 0 11.5513C0 5.47614 4.92487 0.55127 11 0.55127C17.0751 0.55127 22 5.47614 22 11.5513Z" fill="#183B7F"/>
<path fill-rule="evenodd" clip-rule="evenodd" d="M11 21.1763C16.3157 21.1763 20.625 16.867 20.625 11.5513C20.625 6.23553 16.3157 1.92627 11 1.92627C5.68426 1.92627 1.375 6.23553 1.375 11.5513C1.375 16.867 5.68426 21.1763 11 21.1763ZM11 22.5513C17.0751 22.5513 22 17.6264 22 11.5513C22 5.47614 17.0751 0.55127 11 0.55127C4.92487 0.55127 0 5.47614 0 11.5513C0 17.6264 4.92487 22.5513 11 22.5513Z" fill="white"/>
<path d="M15.4139 7.37981C15.7181 7.68403 15.7181 8.17388 15.4139 8.47294L13.4081 10.4787L14.5013 15.2173L13.7742 15.9495L11.7736 12.1184L9.76268 14.1293L9.9483 15.4029L9.39658 15.9495L8.48908 14.3098L6.84424 13.3972L7.3908 12.8403L8.67986 13.0311L10.6753 11.0356L6.84424 9.0195L7.57643 8.29247L12.315 9.3856L14.3208 7.37981C14.6095 7.08075 15.1252 7.08075 15.4139 7.37981Z" fill="#FFA940"/>
</svg>
