<svg width="22" height="23" viewBox="0 0 22 23" fill="none" xmlns="http://www.w3.org/2000/svg">
<path d="M22 11.9497C22 18.0248 17.0751 22.9497 11 22.9497C4.92487 22.9497 0 18.0248 0 11.9497C0 5.87458 4.92487 0.949707 11 0.949707C17.0751 0.949707 22 5.87458 22 11.9497Z" fill="#183B7F"/>
<path fill-rule="evenodd" clip-rule="evenodd" d="M11 21.5747C16.3157 21.5747 20.625 17.2654 20.625 11.9497C20.625 6.63397 16.3157 2.32471 11 2.32471C5.68426 2.32471 1.375 6.63397 1.375 11.9497C1.375 17.2654 5.68426 21.5747 11 21.5747ZM11 22.9497C17.0751 22.9497 22 18.0248 22 11.9497C22 5.87458 17.0751 0.949707 11 0.949707C4.92487 0.949707 0 5.87458 0 11.9497C0 18.0248 4.92487 22.9497 11 22.9497Z" fill="white"/>
<path d="M14.151 11.9497C13.9231 11.9497 13.7045 11.8592 13.5434 11.698C13.3822 11.5368 13.2917 11.3183 13.2917 11.0903C13.2917 10.8624 13.3822 10.6438 13.5434 10.4827C13.7045 10.3215 13.9231 10.231 14.151 10.231C14.379 10.231 14.5975 10.3215 14.7587 10.4827C14.9199 10.6438 15.0104 10.8624 15.0104 11.0903C15.0104 11.3183 14.9199 11.5368 14.7587 11.698C14.5975 11.8592 14.379 11.9497 14.151 11.9497ZM12.4323 9.65804C12.2044 9.65804 11.9858 9.5675 11.8246 9.40634C11.6635 9.24517 11.5729 9.02659 11.5729 8.79867C11.5729 8.57074 11.6635 8.35216 11.8246 8.191C11.9858 8.02983 12.2044 7.93929 12.4323 7.93929C12.6602 7.93929 12.8788 8.02983 13.04 8.191C13.2011 8.35216 13.2917 8.57074 13.2917 8.79867C13.2917 9.02659 13.2011 9.24517 13.04 9.40634C12.8788 9.5675 12.6602 9.65804 12.4323 9.65804ZM9.56771 9.65804C9.33979 9.65804 9.1212 9.5675 8.96004 9.40634C8.79887 9.24517 8.70833 9.02659 8.70833 8.79867C8.70833 8.57074 8.79887 8.35216 8.96004 8.191C9.1212 8.02983 9.33979 7.93929 9.56771 7.93929C9.79563 7.93929 10.0142 8.02983 10.1754 8.191C10.3365 8.35216 10.4271 8.57074 10.4271 8.79867C10.4271 9.02659 10.3365 9.24517 10.1754 9.40634C10.0142 9.5675 9.79563 9.65804 9.56771 9.65804ZM7.84896 11.9497C7.62104 11.9497 7.40245 11.8592 7.24129 11.698C7.08012 11.5368 6.98958 11.3183 6.98958 11.0903C6.98958 10.8624 7.08012 10.6438 7.24129 10.4827C7.40245 10.3215 7.62104 10.231 7.84896 10.231C8.07688 10.231 8.29546 10.3215 8.45663 10.4827C8.61779 10.6438 8.70833 10.8624 8.70833 11.0903C8.70833 11.3183 8.61779 11.5368 8.45663 11.698C8.29546 11.8592 8.07688 11.9497 7.84896 11.9497ZM11 6.79346C9.63248 6.79346 8.32097 7.3367 7.35398 8.30369C6.387 9.27067 5.84375 10.5822 5.84375 11.9497C5.84375 13.3172 6.387 14.6287 7.35398 15.5957C8.32097 16.5627 9.63248 17.106 11 17.106C11.2279 17.106 11.4465 17.0154 11.6077 16.8543C11.7688 16.6931 11.8594 16.4745 11.8594 16.2466C11.8594 16.0231 11.7734 15.8226 11.6359 15.6737C11.5042 15.519 11.4182 15.3185 11.4182 15.1007C11.4182 14.8728 11.5088 14.6542 11.6699 14.4931C11.8311 14.3319 12.0497 14.2414 12.2776 14.2414H13.2917C14.0514 14.2414 14.78 13.9396 15.3172 13.4024C15.8544 12.8651 16.1562 12.1365 16.1562 11.3768C16.1562 8.8445 13.8474 6.79346 11 6.79346Z" fill="#FFA940"/>
</svg>
