<svg width="22" height="23" viewBox="0 0 22 23" fill="none" xmlns="http://www.w3.org/2000/svg">
<path d="M22 11.0981C22 17.1733 17.0751 22.0981 11 22.0981C4.92487 22.0981 0 17.1733 0 11.0981C0 5.02301 4.92487 0.0981445 11 0.0981445C17.0751 0.0981445 22 5.02301 22 11.0981Z" fill="#183B7F"/>
<path fill-rule="evenodd" clip-rule="evenodd" d="M11 20.7231C16.3157 20.7231 20.625 16.4139 20.625 11.0981C20.625 5.7824 16.3157 1.47314 11 1.47314C5.68426 1.47314 1.375 5.7824 1.375 11.0981C1.375 16.4139 5.68426 20.7231 11 20.7231ZM11 22.0981C17.0751 22.0981 22 17.1733 22 11.0981C22 5.02301 17.0751 0.0981445 11 0.0981445C4.92487 0.0981445 0 5.02301 0 11.0981C0 17.1733 4.92487 22.0981 11 22.0981Z" fill="white"/>
<path d="M15.5832 6.97323L10.0832 7.61948V8.34823H15.5832V8.80656H10.0832V11.0982H15.5832C15.5832 11.9278 15.3219 12.6841 14.8132 13.367C14.3044 14.0499 13.6444 14.5495 12.8332 14.8795V15.6816H9.1665V14.8795C8.35984 14.5495 7.69525 14.0453 7.1865 13.367C6.67775 12.6886 6.4165 11.9278 6.4165 11.0982H7.7915V7.43156L15.5832 6.51489V6.97323ZM8.24984 7.83489V8.34823H8.70817V7.78906L8.24984 7.83489ZM8.24984 8.80656V11.0982H8.70817V8.80656H8.24984ZM9.62484 11.0982V8.80656H9.1665V11.0982H9.62484ZM9.62484 8.34823V7.68364L9.1665 7.72489V8.34823H9.62484Z" fill="#FFA940"/>
</svg>
