<svg width="22" height="23" viewBox="0 0 22 23" fill="none" xmlns="http://www.w3.org/2000/svg">
<path d="M22 11.8403C22 17.9155 17.0751 22.8403 11 22.8403C4.92487 22.8403 0 17.9155 0 11.8403C0 5.7652 4.92487 0.840332 11 0.840332C17.0751 0.840332 22 5.7652 22 11.8403Z" fill="#183B7F"/>
<path fill-rule="evenodd" clip-rule="evenodd" d="M11 21.4653C16.3157 21.4653 20.625 17.1561 20.625 11.8403C20.625 6.52459 16.3157 2.21533 11 2.21533C5.68426 2.21533 1.375 6.52459 1.375 11.8403C1.375 17.1561 5.68426 21.4653 11 21.4653ZM11 22.8403C17.0751 22.8403 22 17.9155 22 11.8403C22 5.7652 17.0751 0.840332 11 0.840332C4.92487 0.840332 0 5.7652 0 11.8403C0 17.9155 4.92487 22.8403 11 22.8403Z" fill="white"/>
<path d="M8.7085 10.1216V10.981H9.99756V13.5591H10.8569V10.981H12.146V10.1216H8.7085ZM7.56266 10.1216H5.84391C5.69197 10.1216 5.54624 10.1819 5.4388 10.2894C5.33136 10.3968 5.271 10.5426 5.271 10.6945V13.5591H6.13037V12.6997H7.2762V13.5591H8.13558V10.6945C8.13558 10.5426 8.07522 10.3968 7.96778 10.2894C7.86033 10.1819 7.71461 10.1216 7.56266 10.1216ZM7.2762 11.8403H6.13037V10.981H7.2762V11.8403ZM16.1564 10.1216H13.5783C13.4263 10.1216 13.2806 10.1819 13.1732 10.2894C13.0657 10.3968 13.0054 10.5426 13.0054 10.6945V13.5591H13.8647V10.981H14.4377V12.9862H15.297V10.981H15.87V13.5591H16.7293V10.6945C16.7293 10.5426 16.669 10.3968 16.5615 10.2894C16.4541 10.1819 16.3084 10.1216 16.1564 10.1216Z" fill="#FFA940"/>
</svg>
