<svg width="22" height="23" viewBox="0 0 22 23" fill="none" xmlns="http://www.w3.org/2000/svg">
<path d="M22 11.0981C22 17.1733 17.0751 22.0981 11 22.0981C4.92487 22.0981 0 17.1733 0 11.0981C0 5.02301 4.92487 0.0981445 11 0.0981445C17.0751 0.0981445 22 5.02301 22 11.0981Z" fill="#183B7F"/>
<path fill-rule="evenodd" clip-rule="evenodd" d="M11 20.7231C16.3157 20.7231 20.625 16.4139 20.625 11.0981C20.625 5.7824 16.3157 1.47314 11 1.47314C5.68426 1.47314 1.375 5.7824 1.375 11.0981C1.375 16.4139 5.68426 20.7231 11 20.7231ZM11 22.0981C17.0751 22.0981 22 17.1733 22 11.0981C22 5.02301 17.0751 0.0981445 11 0.0981445C4.92487 0.0981445 0 5.02301 0 11.0981C0 17.1733 4.92487 22.0981 11 22.0981Z" fill="white"/>
<path d="M7.79159 15.6816C7.18659 15.6816 6.94368 14.5999 6.89326 14.1691C6.83898 13.7508 6.88938 13.3256 7.03993 12.9316C7.10609 12.7441 7.21991 12.5771 7.37018 12.4469C7.52045 12.3167 7.70201 12.2279 7.89701 12.1891C8.43326 12.0974 8.81368 12.4183 9.29951 12.5283C9.39077 12.5575 9.48807 12.5627 9.58191 12.5432C9.67574 12.5237 9.76292 12.4802 9.83494 12.4169C9.90696 12.3537 9.96136 12.2728 9.99283 12.1823C10.0243 12.0918 10.0318 11.9946 10.0145 11.9003C9.81284 11.112 8.37826 11.0983 7.79159 11.0983C7.79159 10.2458 8.72659 10.1358 9.39576 10.1999C9.79274 10.2383 10.1836 10.3244 10.5599 10.4566C10.7891 10.5345 11.0549 10.7316 11.307 10.7133C11.6874 10.6812 11.7653 10.287 11.6003 9.99825C11.2016 9.31992 10.0695 9.26492 9.39576 9.26492C9.39576 8.34825 10.1887 8.17409 10.9495 8.31159C11.3424 8.38885 11.7252 8.51032 12.0908 8.67367C12.3245 8.7745 12.6041 8.967 12.8608 8.87992C13.5208 8.67825 12.8333 7.97242 12.5399 7.80284C12.3341 7.68923 12.1156 7.60002 11.8891 7.537C11.6416 7.46367 11.3391 7.49117 11.5637 7.20242C11.9149 6.89259 12.3506 6.69469 12.8149 6.63409C13.6812 6.43242 14.8774 6.39575 15.0883 7.48659C15.1585 8.06251 15.0203 8.64455 14.6987 9.12742C13.8448 10.588 12.7877 11.9198 11.5591 13.0828C10.9083 13.7499 10.2031 14.3616 9.45076 14.9116C8.99243 15.2416 8.38743 15.6816 7.79159 15.6816Z" fill="#FFA940"/>
</svg>
