<svg width="22" height="23" viewBox="0 0 22 23" fill="none" xmlns="http://www.w3.org/2000/svg">
<path d="M22 11.0981C22 17.1733 17.0751 22.0981 11 22.0981C4.92487 22.0981 0 17.1733 0 11.0981C0 5.02301 4.92487 0.0981445 11 0.0981445C17.0751 0.0981445 22 5.02301 22 11.0981Z" fill="#183B7F"/>
<path fill-rule="evenodd" clip-rule="evenodd" d="M11 20.7231C16.3157 20.7231 20.625 16.4139 20.625 11.0981C20.625 5.7824 16.3157 1.47314 11 1.47314C5.68426 1.47314 1.375 5.7824 1.375 11.0981C1.375 16.4139 5.68426 20.7231 11 20.7231ZM11 22.0981C17.0751 22.0981 22 17.1733 22 11.0981C22 5.02301 17.0751 0.0981445 11 0.0981445C4.92487 0.0981445 0 5.02301 0 11.0981C0 17.1733 4.92487 22.0981 11 22.0981Z" fill="white"/>
<path d="M10.7707 6.0564L6.4165 8.34806V9.26473H15.1248V8.34806L10.7707 6.0564ZM12.8332 10.1814V13.3897H14.2082V10.1814H12.8332ZM6.4165 15.6814H15.1248V14.3064H6.4165V15.6814ZM10.0832 10.1814V13.3897H11.4582V10.1814H10.0832ZM7.33317 10.1814V13.3897H8.70817V10.1814H7.33317Z" fill="#FFA940"/>
</svg>
