<svg width="22" height="23" viewBox="0 0 22 23" fill="none" xmlns="http://www.w3.org/2000/svg">
<path d="M22 11.5435C22 17.6186 17.0751 22.5435 11 22.5435C4.92487 22.5435 0 17.6186 0 11.5435C0 5.46833 4.92487 0.543457 11 0.543457C17.0751 0.543457 22 5.46833 22 11.5435Z" fill="#183B7F"/>
<path fill-rule="evenodd" clip-rule="evenodd" d="M11 21.1685C16.3157 21.1685 20.625 16.8592 20.625 11.5435C20.625 6.22772 16.3157 1.91846 11 1.91846C5.68426 1.91846 1.375 6.22772 1.375 11.5435C1.375 16.8592 5.68426 21.1685 11 21.1685ZM11 22.5435C17.0751 22.5435 22 17.6186 22 11.5435C22 5.46833 17.0751 0.543457 11 0.543457C4.92487 0.543457 0 5.46833 0 11.5435C0 17.6186 4.92487 22.5435 11 22.5435Z" fill="white"/>
<path d="M8.9375 9.25179L8.02083 8.33512H13.9792L13.0625 9.25179H8.9375ZM10.5417 12.0018V14.7518H8.25V15.6685H13.75V14.7518H11.4583V12.0018L15.125 8.33512V7.41846H6.875V8.33512L10.5417 12.0018Z" fill="#FFA940"/>
</svg>
