<svg width="22" height="23" viewBox="0 0 22 23" fill="none" xmlns="http://www.w3.org/2000/svg">
<path d="M22 11.0981C22 17.1733 17.0751 22.0981 11 22.0981C4.92487 22.0981 0 17.1733 0 11.0981C0 5.02301 4.92487 0.0981445 11 0.0981445C17.0751 0.0981445 22 5.02301 22 11.0981Z" fill="#183B7F"/>
<path fill-rule="evenodd" clip-rule="evenodd" d="M11 20.7231C16.3157 20.7231 20.625 16.4139 20.625 11.0981C20.625 5.7824 16.3157 1.47314 11 1.47314C5.68426 1.47314 1.375 5.7824 1.375 11.0981C1.375 16.4139 5.68426 20.7231 11 20.7231ZM11 22.0981C17.0751 22.0981 22 17.1733 22 11.0981C22 5.02301 17.0751 0.0981445 11 0.0981445C4.92487 0.0981445 0 5.02301 0 11.0981C0 17.1733 4.92487 22.0981 11 22.0981Z" fill="white"/>
<path d="M8.71063 5.94189C8.61781 6.54518 8.76734 7.05564 9.16953 7.4733C9.42734 7.73111 9.50984 8.07658 9.41188 8.52002H9.92234C9.98422 8.23643 9.99453 8.00439 9.94297 7.77236C9.89656 7.5558 9.73672 7.29799 9.45312 6.98861C9.22109 6.69986 9.13859 6.35439 9.22109 5.94189H8.71063ZM9.99453 5.94189C9.89656 6.54518 10.0512 7.05564 10.4534 7.4733C10.7112 7.73111 10.7886 8.07658 10.6958 8.52002H11.2011C11.2578 8.23643 11.2733 8.00439 11.2269 7.77236C11.1753 7.5558 11.0155 7.29799 10.7422 6.98861C10.4998 6.69986 10.4225 6.35439 10.4998 5.94189H9.99453ZM11.2991 5.94189C11.2011 6.54518 11.3558 7.05564 11.758 7.4733C12.0158 7.73111 12.088 8.07658 11.9745 8.52002H12.5056C12.5727 8.23643 12.5778 8.00439 12.5314 7.77236C12.485 7.5558 12.32 7.29799 12.0467 6.98861C11.8044 6.69986 11.727 6.35439 11.8044 5.94189H11.2991ZM7.13281 9.03564C7.13281 9.76783 7.33391 10.4278 7.72062 11.0156C8.09703 11.5931 8.63328 12.0521 9.2675 12.3305L7.21531 15.45C7.16375 15.5119 7.13281 15.6099 7.13281 15.7388C7.13281 15.9502 7.21531 16.0946 7.35969 16.1719C7.42156 16.2235 7.51953 16.2544 7.64844 16.2544C7.85984 16.2544 8.00422 16.1719 8.08156 16.0275L8.59203 15.2077H11.8766C11.9848 15.5067 12.1808 15.7646 12.4334 15.9553C12.6912 16.1513 12.9903 16.2544 13.3203 16.2544C13.7483 16.2544 14.1092 16.0946 14.4186 15.7852C14.7228 15.481 14.8672 15.12 14.8672 14.7075C14.8672 14.2796 14.7228 13.9186 14.4186 13.6144C14.1092 13.305 13.7483 13.1606 13.3203 13.1606C12.9903 13.1606 12.6912 13.2483 12.4334 13.4442C12.1756 13.635 11.99 13.8877 11.8766 14.1919H9.2675L10.2833 12.6192C10.3658 12.645 10.5153 12.645 10.7422 12.645C10.9691 12.645 11.1186 12.645 11.2011 12.6192L11.7116 13.4185C11.923 13.14 12.2066 12.9235 12.5314 12.7894L12.2427 12.3305C12.8202 12.0727 13.3203 11.6138 13.7277 10.9796C14.1402 10.3247 14.3516 9.69049 14.3516 9.03564H7.13281ZM13.3203 14.1919C13.475 14.1919 13.5936 14.2383 13.6916 14.3363C13.7895 14.4342 13.8359 14.5631 13.8359 14.7075C13.8359 14.8467 13.7895 14.9653 13.6916 15.0736C13.5987 15.1767 13.4647 15.2231 13.3203 15.2231C13.1863 15.2231 13.0625 15.1767 12.9542 15.0736C12.8511 14.9653 12.8047 14.8416 12.8047 14.7075C12.8047 14.5528 12.8511 14.4342 12.9542 14.3363C13.0625 14.2383 13.1811 14.1919 13.3203 14.1919Z" fill="#FFA940"/>
</svg>
