<svg width="22" height="23" viewBox="0 0 22 23" fill="none" xmlns="http://www.w3.org/2000/svg">
<path d="M22 11.5513C22 17.6264 17.0751 22.5513 11 22.5513C4.92487 22.5513 0 17.6264 0 11.5513C0 5.47614 4.92487 0.55127 11 0.55127C17.0751 0.55127 22 5.47614 22 11.5513Z" fill="#183B7F"/>
<path fill-rule="evenodd" clip-rule="evenodd" d="M11 21.1763C16.3157 21.1763 20.625 16.867 20.625 11.5513C20.625 6.23553 16.3157 1.92627 11 1.92627C5.68426 1.92627 1.375 6.23553 1.375 11.5513C1.375 16.867 5.68426 21.1763 11 21.1763ZM11 22.5513C17.0751 22.5513 22 17.6264 22 11.5513C22 5.47614 17.0751 0.55127 11 0.55127C4.92487 0.55127 0 5.47614 0 11.5513C0 17.6264 4.92487 22.5513 11 22.5513Z" fill="white"/>
<g clip-path="url(#clip0_1211_488401)">
<path d="M16.1561 10.0044C15.756 10.0144 15.3606 9.91645 15.0114 9.7208C14.7325 9.56075 14.415 9.48048 14.0936 9.48877V8.97314C14.4937 8.96312 14.8891 9.06109 15.2383 9.25674C15.5171 9.41678 15.8347 9.49706 16.1561 9.48877V10.0044ZM16.1561 8.45752C15.8347 8.46581 15.5171 8.38553 15.2383 8.22549C14.8891 8.02984 14.4937 7.93187 14.0936 7.94189V8.45752C14.415 8.44923 14.7325 8.5295 15.0114 8.68955C15.3606 8.8852 15.756 8.98317 16.1561 8.97314V8.45752ZM16.1561 10.52C15.8347 10.5283 15.5171 10.448 15.2383 10.288C14.8891 10.0923 14.4937 9.99437 14.0936 10.0044V10.52C14.415 10.5117 14.7325 10.592 15.0114 10.7521C15.3606 10.9477 15.756 11.0457 16.1561 11.0356V10.52ZM9.96859 11.9277C11.1862 11.6922 12.3909 11.3945 13.578 11.0356V7.42627C13.578 7.42627 10.2264 6.39502 8.67952 6.39502C7.99091 6.39696 7.32652 6.64939 6.81034 7.1052C6.29417 7.56101 5.96148 8.18906 5.87436 8.87215C5.78724 9.55524 5.95163 10.2467 6.33687 10.8175C6.72211 11.3883 7.30187 11.7994 7.96796 11.9741L8.42171 15.1606H8.93734C8.95796 15.4064 9.03704 15.6437 9.168 15.8527C9.29895 16.0617 9.47798 16.2363 9.69015 16.3621C9.92937 16.5043 10.128 16.7056 10.2671 16.9467C10.4061 17.1877 10.4809 17.4605 10.4842 17.7388H10.9998C10.9975 17.3836 10.9061 17.0346 10.7341 16.7238C10.562 16.4131 10.3148 16.1504 10.015 15.9599C9.65406 15.6763 9.45296 15.4855 9.45296 15.1606H9.96859V11.9277ZM8.67952 10.52C8.42457 10.52 8.17534 10.4444 7.96336 10.3028C7.75137 10.1611 7.58615 9.95981 7.48859 9.72426C7.39102 9.48871 7.36549 9.22953 7.41523 8.97947C7.46497 8.72942 7.58774 8.49973 7.76802 8.31945C7.9483 8.13917 8.17799 8.0164 8.42804 7.96666C8.67809 7.91692 8.93728 7.94245 9.17283 8.04002C9.40837 8.13758 9.6097 8.30281 9.75134 8.51479C9.89298 8.72678 9.96859 8.976 9.96859 9.23096C9.96859 9.57284 9.83278 9.90072 9.59103 10.1425C9.34928 10.3842 9.0214 10.52 8.67952 10.52Z" fill="#FFA940"/>
</g>
<defs>
<clipPath id="clip0_1211_488401">
<rect width="12.375" height="12.375" fill="white" transform="translate(4.8125 5.36377)"/>
</clipPath>
</defs>
</svg>
