<svg width="23" height="23" viewBox="0 0 23 23" fill="none" xmlns="http://www.w3.org/2000/svg">
<path d="M22.1616 11.9055C22.1616 17.9806 17.2368 22.9055 11.1616 22.9055C5.08649 22.9055 0.161621 17.9806 0.161621 11.9055C0.161621 5.83039 5.08649 0.905518 11.1616 0.905518C17.2368 0.905518 22.1616 5.83039 22.1616 11.9055Z" fill="#183B7F"/>
<path fill-rule="evenodd" clip-rule="evenodd" d="M11.1616 21.5305C16.4774 21.5305 20.7866 17.2213 20.7866 11.9055C20.7866 6.58978 16.4774 2.28052 11.1616 2.28052C5.84588 2.28052 1.53662 6.58978 1.53662 11.9055C1.53662 17.2213 5.84588 21.5305 11.1616 21.5305ZM11.1616 22.9055C17.2368 22.9055 22.1616 17.9806 22.1616 11.9055C22.1616 5.83039 17.2368 0.905518 11.1616 0.905518C5.08649 0.905518 0.161621 5.83039 0.161621 11.9055C0.161621 17.9806 5.08649 22.9055 11.1616 22.9055Z" fill="white"/>
<path d="M11.1616 6.74927C9.09912 6.74927 7.03662 7.00708 7.03662 8.81177V13.7102C7.03662 14.1888 7.22676 14.6479 7.5652 14.9863C7.90365 15.3248 8.36268 15.5149 8.84131 15.5149L8.06787 16.2883V16.5461H9.21771L10.249 15.5149H12.1929L13.2241 16.5461H14.2554V16.2883L13.4819 15.5149C13.9606 15.5149 14.4196 15.3248 14.758 14.9863C15.0965 14.6479 15.2866 14.1888 15.2866 13.7102V8.81177C15.2866 7.00708 13.4407 6.74927 11.1616 6.74927ZM8.84131 14.4836C8.63618 14.4836 8.43945 14.4022 8.29441 14.2571C8.14936 14.1121 8.06787 13.9153 8.06787 13.7102C8.06787 13.5051 8.14936 13.3083 8.29441 13.1633C8.43945 13.0183 8.63618 12.9368 8.84131 12.9368C9.04644 12.9368 9.24316 13.0183 9.38821 13.1633C9.53326 13.3083 9.61475 13.5051 9.61475 13.7102C9.61475 13.9153 9.53326 14.1121 9.38821 14.2571C9.24316 14.4022 9.04644 14.4836 8.84131 14.4836ZM10.646 10.8743H8.06787V8.81177H10.646V10.8743ZM11.6772 10.8743V8.81177H14.2554V10.8743H11.6772ZM13.4819 14.4836C13.2768 14.4836 13.0801 14.4022 12.935 14.2571C12.79 14.1121 12.7085 13.9153 12.7085 13.7102C12.7085 13.5051 12.79 13.3083 12.935 13.1633C13.0801 13.0183 13.2768 12.9368 13.4819 12.9368C13.6871 12.9368 13.8838 13.0183 14.0288 13.1633C14.1739 13.3083 14.2554 13.5051 14.2554 13.7102C14.2554 13.9153 14.1739 14.1121 14.0288 14.2571C13.8838 14.4022 13.6871 14.4836 13.4819 14.4836Z" fill="#FFA940"/>
</svg>
