<svg width="22" height="23" viewBox="0 0 22 23" fill="none" xmlns="http://www.w3.org/2000/svg">
<path d="M22 11.5981C22 17.6733 17.0751 22.5981 11 22.5981C4.92487 22.5981 0 17.6733 0 11.5981C0 5.52301 4.92487 0.598145 11 0.598145C17.0751 0.598145 22 5.52301 22 11.5981Z" fill="#183B7F"/>
<path fill-rule="evenodd" clip-rule="evenodd" d="M11 21.2231C16.3157 21.2231 20.625 16.9139 20.625 11.5981C20.625 6.2824 16.3157 1.97314 11 1.97314C5.68426 1.97314 1.375 6.2824 1.375 11.5981C1.375 16.9139 5.68426 21.2231 11 21.2231ZM11 22.5981C17.0751 22.5981 22 17.6733 22 11.5981C22 5.52301 17.0751 0.598145 11 0.598145C4.92487 0.598145 0 5.52301 0 11.5981C0 17.6733 4.92487 22.5981 11 22.5981Z" fill="white"/>
<path d="M10.4272 5.8689V6.44181C9.4361 6.5564 8.53089 6.95744 7.79183 7.55327L7.35641 7.11785L6.54287 7.9314L6.98975 8.36108C6.35954 9.12306 5.96423 10.0512 5.84391 11.0251H5.271V12.171H5.84391C5.96423 13.1335 6.35954 14.0387 6.98975 14.7835L6.54287 15.2189L7.35641 16.0324L7.7861 15.6085C8.54235 16.2215 9.45329 16.6225 10.4272 16.7543V17.3272H11.5731V16.7543C12.5413 16.6225 13.458 16.2215 14.2085 15.6085L14.6439 16.0324L15.4575 15.2189L15.0106 14.7892C15.6408 14.0444 16.0361 13.1335 16.1564 12.171H16.7293V11.0251H16.1564C16.0361 10.0512 15.6408 9.12879 15.0106 8.36681L15.4575 7.9314L14.6439 7.11785L14.2142 7.55327C13.458 6.94025 12.5413 6.5564 11.5731 6.44181V5.8689H10.4272ZM10.4272 7.58765V9.3064L9.85433 9.59285L8.59964 8.36108C9.121 7.9715 9.74548 7.68504 10.4272 7.58765ZM11.5731 7.58765C12.2377 7.69077 12.8679 7.95431 13.4064 8.36108L12.146 9.59285L11.5731 9.3064V7.58765ZM7.79183 9.1689L8.99495 10.4522L8.7085 11.0251H6.98975C7.08141 10.3606 7.39079 9.70744 7.7861 9.16317L7.79183 9.1689ZM14.2085 9.1689C14.6267 9.71317 14.9017 10.3491 15.0106 11.0251H13.2918L13.0054 10.4522L14.2142 9.1689H14.2085ZM11.0002 10.4522C11.6418 10.4522 12.146 10.9564 12.146 11.5981C12.146 12.2397 11.6418 12.7439 11.0002 12.7439C10.3585 12.7439 9.85433 12.2397 9.85433 11.5981C9.85433 10.9564 10.3585 10.4522 11.0002 10.4522ZM6.98975 12.171H8.7085L9.03506 12.7439L7.7861 13.9757C7.3736 13.4543 7.0986 12.8356 6.98975 12.171ZM13.2918 12.171H15.0106C14.9017 12.8298 14.6267 13.4543 14.2142 13.9814L13.0054 12.7439L13.2918 12.171ZM9.85433 13.6033L10.4272 13.8897V15.6085C9.75693 15.4939 9.12673 15.2132 8.59391 14.7892L9.85433 13.6033ZM12.146 13.6033L13.4007 14.7892C12.8793 15.1788 12.2549 15.5111 11.5731 15.6085V13.8897L12.146 13.6033Z" fill="#FFA940"/>
</svg>
