<svg width="23" height="22" viewBox="0 0 23 22" fill="none" xmlns="http://www.w3.org/2000/svg">
<path d="M22.0815 11C22.0815 17.0751 17.1567 22 11.0815 22C5.00641 22 0.081543 17.0751 0.081543 11C0.081543 4.92487 5.00641 0 11.0815 0C17.1567 0 22.0815 4.92487 22.0815 11Z" fill="#183B7F"/>
<path fill-rule="evenodd" clip-rule="evenodd" d="M11.0815 20.625C16.3973 20.625 20.7065 16.3157 20.7065 11C20.7065 5.68426 16.3973 1.375 11.0815 1.375C5.7658 1.375 1.45654 5.68426 1.45654 11C1.45654 16.3157 5.7658 20.625 11.0815 20.625ZM11.0815 22C17.1567 22 22.0815 17.0751 22.0815 11C22.0815 4.92487 17.1567 0 11.0815 0C5.00641 0 0.081543 4.92487 0.081543 11C0.081543 17.0751 5.00641 22 11.0815 22Z" fill="white"/>
<path d="M16.2376 8.42188V13.0625C16.2376 13.4286 16.0417 13.7637 15.722 13.9494V14.7383C15.722 14.9497 15.5467 15.125 15.3353 15.125H15.0775C14.866 15.125 14.6907 14.9497 14.6907 14.7383V14.0938H11.0814V14.7383C11.0814 14.9497 10.9061 15.125 10.6946 15.125H10.4368C10.2254 15.125 10.0501 14.9497 10.0501 14.7383V13.9494C9.73558 13.7637 9.53449 13.4286 9.53449 13.0625V8.42188C9.53449 6.875 11.0814 6.875 12.8861 6.875C14.6907 6.875 16.2376 6.875 16.2376 8.42188ZM11.597 12.5469C11.597 12.2633 11.365 12.0312 11.0814 12.0312C10.7978 12.0312 10.5657 12.2633 10.5657 12.5469C10.5657 12.8305 10.7978 13.0625 11.0814 13.0625C11.365 13.0625 11.597 12.8305 11.597 12.5469ZM15.2064 12.5469C15.2064 12.2633 14.9743 12.0312 14.6907 12.0312C14.4071 12.0312 14.1751 12.2633 14.1751 12.5469C14.1751 12.8305 14.4071 13.0625 14.6907 13.0625C14.9743 13.0625 15.2064 12.8305 15.2064 12.5469ZM15.2064 8.42188H10.5657V10.4844H15.2064V8.42188ZM8.50324 9.71094C8.48777 8.99938 7.89996 8.42188 7.18839 8.44766C6.47683 8.46313 5.90964 9.05094 5.92511 9.7625C5.94058 10.3658 6.36855 10.8814 6.95636 11V15.125H7.47199V11C8.08043 10.8763 8.50324 10.3348 8.50324 9.71094Z" fill="#FFA940"/>
</svg>
