<svg width="22" height="23" viewBox="0 0 22 23" fill="none" xmlns="http://www.w3.org/2000/svg">
<path d="M22 11.0981C22 17.1733 17.0751 22.0981 11 22.0981C4.92487 22.0981 0 17.1733 0 11.0981C0 5.02301 4.92487 0.0981445 11 0.0981445C17.0751 0.0981445 22 5.02301 22 11.0981Z" fill="#183B7F"/>
<path fill-rule="evenodd" clip-rule="evenodd" d="M11 20.7231C16.3157 20.7231 20.625 16.4139 20.625 11.0981C20.625 5.7824 16.3157 1.47314 11 1.47314C5.68426 1.47314 1.375 5.7824 1.375 11.0981C1.375 16.4139 5.68426 20.7231 11 20.7231ZM11 22.0981C17.0751 22.0981 22 17.1733 22 11.0981C22 5.02301 17.0751 0.0981445 11 0.0981445C4.92487 0.0981445 0 5.02301 0 11.0981C0 17.1733 4.92487 22.0981 11 22.0981Z" fill="white"/>
<path d="M14.0938 12.645H13.0625V13.6763H14.0938V12.645ZM14.0938 10.5825H13.0625V11.6138H14.0938V10.5825ZM15.125 14.7075H11V13.6763H12.0312V12.645H11V11.6138H12.0312V10.5825H11V9.55127H15.125V14.7075ZM9.96875 8.52002H8.9375V7.48877H9.96875V8.52002ZM9.96875 10.5825H8.9375V9.55127H9.96875V10.5825ZM9.96875 12.645H8.9375V11.6138H9.96875V12.645ZM9.96875 14.7075H8.9375V13.6763H9.96875V14.7075ZM7.90625 8.52002H6.875V7.48877H7.90625V8.52002ZM7.90625 10.5825H6.875V9.55127H7.90625V10.5825ZM7.90625 12.645H6.875V11.6138H7.90625V12.645ZM7.90625 14.7075H6.875V13.6763H7.90625V14.7075ZM11 8.52002V6.45752H5.84375V15.7388H16.1562V8.52002H11Z" fill="#FFA940"/>
</svg>
