<svg width="22" height="23" viewBox="0 0 22 23" fill="none" xmlns="http://www.w3.org/2000/svg">
<path d="M22 11.3247C22 17.3998 17.0751 22.3247 11 22.3247C4.92487 22.3247 0 17.3998 0 11.3247C0 5.24958 4.92487 0.324707 11 0.324707C17.0751 0.324707 22 5.24958 22 11.3247Z" fill="#183B7F"/>
<path fill-rule="evenodd" clip-rule="evenodd" d="M11 20.9497C16.3157 20.9497 20.625 16.6404 20.625 11.3247C20.625 6.00897 16.3157 1.69971 11 1.69971C5.68426 1.69971 1.375 6.00897 1.375 11.3247C1.375 16.6404 5.68426 20.9497 11 20.9497ZM11 22.3247C17.0751 22.3247 22 17.3998 22 11.3247C22 5.24958 17.0751 0.324707 11 0.324707C4.92487 0.324707 0 5.24958 0 11.3247C0 17.3998 4.92487 22.3247 11 22.3247Z" fill="white"/>
<g clip-path="url(#clip0_1211_486979)">
<path d="M15.1067 13.3642C15.1112 13.2955 15.125 13.2267 15.125 13.158V13.3871L15.1067 13.3642ZM10.5417 13.158C10.5417 13.4834 10.6104 13.795 10.7342 14.0746H8.25V14.533C8.25 14.785 8.04375 14.9913 7.79167 14.9913H7.33333C7.08125 14.9913 6.875 14.785 6.875 14.533V10.8663L7.82833 8.11629C7.92 7.85046 8.17667 7.65796 8.47917 7.65796H13.5208C13.8233 7.65796 14.08 7.85046 14.1717 8.11629L15.125 10.8663V13.158C15.125 11.893 14.0983 10.8663 12.8333 10.8663C11.5683 10.8663 10.5417 11.893 10.5417 13.158ZM9.16667 12.0121C9.16667 11.6317 8.85958 11.3246 8.47917 11.3246C8.09875 11.3246 7.79167 11.6317 7.79167 12.0121C7.79167 12.3925 8.09875 12.6996 8.47917 12.6996C8.85958 12.6996 9.16667 12.3925 9.16667 12.0121ZM14.2083 10.408L13.5208 8.34546H8.47917L7.79167 10.408H14.2083ZM15.9821 15.5367L14.0983 13.653C14.2862 13.1763 14.1808 12.6171 13.7867 12.2275C13.3742 11.8105 12.7554 11.728 12.2558 11.9571L13.145 12.8463L12.5262 13.4696L11.6142 12.5759C11.3667 13.0755 11.4812 13.6942 11.8846 14.1113C12.2787 14.5055 12.8333 14.6063 13.3146 14.423L15.1983 16.3021C15.2808 16.3892 15.4046 16.3892 15.4871 16.3021L15.9637 15.83C16.0646 15.7475 16.0646 15.6009 15.9821 15.5367Z" fill="#FFA940"/>
</g>
<defs>
<clipPath id="clip0_1211_486979">
<rect width="11" height="11" fill="white" transform="translate(5.5 5.82471)"/>
</clipPath>
</defs>
</svg>
