<svg width="22" height="23" viewBox="0 0 22 23" fill="none" xmlns="http://www.w3.org/2000/svg">
<path d="M22 11.3247C22 17.3998 17.0751 22.3247 11 22.3247C4.92487 22.3247 0 17.3998 0 11.3247C0 5.24958 4.92487 0.324707 11 0.324707C17.0751 0.324707 22 5.24958 22 11.3247Z" fill="#183B7F"/>
<path fill-rule="evenodd" clip-rule="evenodd" d="M11 20.9497C16.3157 20.9497 20.625 16.6404 20.625 11.3247C20.625 6.00897 16.3157 1.69971 11 1.69971C5.68426 1.69971 1.375 6.00897 1.375 11.3247C1.375 16.6404 5.68426 20.9497 11 20.9497ZM11 22.3247C17.0751 22.3247 22 17.3998 22 11.3247C22 5.24958 17.0751 0.324707 11 0.324707C4.92487 0.324707 0 5.24958 0 11.3247C0 17.3998 4.92487 22.3247 11 22.3247Z" fill="white"/>
<g clip-path="url(#clip0_1211_486982)">
<path d="M9.625 5.82471C8.84583 5.82471 8.25 6.42054 8.25 7.19971C8.25 7.97887 8.84583 8.57471 9.625 8.57471C10.2208 8.57471 10.725 8.20804 10.9083 7.65804H11.9167V8.57471H12.8333V7.65804H13.75V6.74137H10.9083C10.725 6.19137 10.2208 5.82471 9.625 5.82471ZM9.625 6.74137C9.9 6.74137 10.0833 6.92471 10.0833 7.19971C10.0833 7.47471 9.9 7.65804 9.625 7.65804C9.35 7.65804 9.16667 7.47471 9.16667 7.19971C9.16667 6.92471 9.35 6.74137 9.625 6.74137ZM8.47917 9.49137C8.15833 9.49137 7.92917 9.67471 7.8375 9.94971L6.875 12.6997V16.3664C6.875 16.6414 7.05833 16.8247 7.33333 16.8247H7.79167C8.06667 16.8247 8.25 16.6414 8.25 16.3664V15.908H13.75V16.3664C13.75 16.6414 13.9333 16.8247 14.2083 16.8247H14.6667C14.9417 16.8247 15.125 16.6414 15.125 16.3664V12.6997L14.1625 9.94971C14.0708 9.67471 13.7958 9.49137 13.5208 9.49137H8.47917ZM8.47917 10.1789H13.5208L14.2083 12.2414H7.79167L8.47917 10.1789ZM8.47917 13.158C8.84583 13.158 9.16667 13.4789 9.16667 13.8455C9.16667 14.2122 8.84583 14.533 8.47917 14.533C8.1125 14.533 7.79167 14.2122 7.79167 13.8455C7.79167 13.4789 8.1125 13.158 8.47917 13.158ZM13.5208 13.158C13.8875 13.158 14.2083 13.4789 14.2083 13.8455C14.2083 14.2122 13.8875 14.533 13.5208 14.533C13.1542 14.533 12.8333 14.2122 12.8333 13.8455C12.8333 13.4789 13.1542 13.158 13.5208 13.158Z" fill="#FFA940"/>
</g>
<defs>
<clipPath id="clip0_1211_486982">
<rect width="11" height="11" fill="white" transform="translate(5.5 5.82471)"/>
</clipPath>
</defs>
</svg>
