<svg width="22" height="23" viewBox="0 0 22 23" fill="none" xmlns="http://www.w3.org/2000/svg">
<path d="M22 11.5981C22 17.6733 17.0751 22.5981 11 22.5981C4.92487 22.5981 0 17.6733 0 11.5981C0 5.52301 4.92487 0.598145 11 0.598145C17.0751 0.598145 22 5.52301 22 11.5981Z" fill="#183B7F"/>
<path fill-rule="evenodd" clip-rule="evenodd" d="M11 21.2231C16.3157 21.2231 20.625 16.9139 20.625 11.5981C20.625 6.2824 16.3157 1.97314 11 1.97314C5.68426 1.97314 1.375 6.2824 1.375 11.5981C1.375 16.9139 5.68426 21.2231 11 21.2231ZM11 22.5981C17.0751 22.5981 22 17.6733 22 11.5981C22 5.52301 17.0751 0.598145 11 0.598145C4.92487 0.598145 0 5.52301 0 11.5981C0 17.6733 4.92487 22.5981 11 22.5981Z" fill="white"/>
<path d="M10.0833 7.01489H11.9167C13.4338 7.01489 14.2083 8.24781 14.2083 9.76489V14.6507C13.2367 14.1786 12.4071 13.8899 11 13.8899C9.59292 13.8899 8.76333 14.1786 7.79167 14.6507V9.76489C7.79167 8.24781 8.56625 7.01489 10.0833 7.01489ZM9.16667 9.76489V10.4524H12.8333V9.76489H9.16667ZM9.625 11.5982V12.2857H12.375V11.5982H9.625ZM6.875 16.1816V15.8653C8.09417 15.0907 11.5638 13.3582 15.125 15.8378V16.1816H6.875Z" fill="#FFA940"/>
</svg>
