<svg width="22" height="23" viewBox="0 0 22 23" fill="none" xmlns="http://www.w3.org/2000/svg">
<path d="M22 11.5981C22 17.6733 17.0751 22.5981 11 22.5981C4.92487 22.5981 0 17.6733 0 11.5981C0 5.52301 4.92487 0.598145 11 0.598145C17.0751 0.598145 22 5.52301 22 11.5981Z" fill="#183B7F"/>
<path fill-rule="evenodd" clip-rule="evenodd" d="M11 21.2231C16.3157 21.2231 20.625 16.9139 20.625 11.5981C20.625 6.2824 16.3157 1.97314 11 1.97314C5.68426 1.97314 1.375 6.2824 1.375 11.5981C1.375 16.9139 5.68426 21.2231 11 21.2231ZM11 22.5981C17.0751 22.5981 22 17.6733 22 11.5981C22 5.52301 17.0751 0.598145 11 0.598145C4.92487 0.598145 0 5.52301 0 11.5981C0 17.6733 4.92487 22.5981 11 22.5981Z" fill="white"/>
<path d="M10.4844 6.44189H11.5156V7.47314H12.5469V8.50439H11.5156V10.2575L16.1562 12.1138V13.145L15.125 12.7325V16.7544H12.0312V14.1763C12.0312 13.9028 11.9226 13.6405 11.7292 13.4471C11.5358 13.2537 11.2735 13.145 11 13.145C10.7265 13.145 10.4642 13.2537 10.2708 13.4471C10.0774 13.6405 9.96875 13.9028 9.96875 14.1763V16.7544H6.875V12.7325L5.84375 13.145V12.1138L10.4844 10.2575V8.50439H9.45312V7.47314H10.4844V6.44189ZM7.90625 15.7231H8.9375V13.145L8.42188 12.6294L7.90625 13.145V15.7231ZM13.0625 15.7231H14.0938V13.145L13.5781 12.6294L13.0625 13.145V15.7231Z" fill="#FFA940"/>
</svg>
