<svg width="22" height="23" viewBox="0 0 22 23" fill="none" xmlns="http://www.w3.org/2000/svg">
<path d="M22 11.0981C22 17.1733 17.0751 22.0981 11 22.0981C4.92487 22.0981 0 17.1733 0 11.0981C0 5.02301 4.92487 0.0981445 11 0.0981445C17.0751 0.0981445 22 5.02301 22 11.0981Z" fill="#183B7F"/>
<path fill-rule="evenodd" clip-rule="evenodd" d="M11 20.7231C16.3157 20.7231 20.625 16.4139 20.625 11.0981C20.625 5.7824 16.3157 1.47314 11 1.47314C5.68426 1.47314 1.375 5.7824 1.375 11.0981C1.375 16.4139 5.68426 20.7231 11 20.7231ZM11 22.0981C17.0751 22.0981 22 17.1733 22 11.0981C22 5.02301 17.0751 0.0981445 11 0.0981445C4.92487 0.0981445 0 5.02301 0 11.0981C0 17.1733 4.92487 22.0981 11 22.0981Z" fill="white"/>
<path d="M6.4165 15.2231H14.6665V14.3065H6.4165V15.2231ZM14.6665 9.26481H13.7498V7.88981H14.6665V9.26481ZM14.6665 6.97314H7.33317V11.5565C7.33317 12.0427 7.52632 12.509 7.87014 12.8528C8.21396 13.1967 8.68027 13.3898 9.1665 13.3898H11.9165C12.4027 13.3898 12.869 13.1967 13.2129 12.8528C13.5567 12.509 13.7498 12.0427 13.7498 11.5565V10.1815H14.6665C14.9096 10.1815 15.1428 10.0849 15.3147 9.91299C15.4866 9.74108 15.5832 9.50793 15.5832 9.26481V7.88981C15.5832 7.38106 15.1707 6.97314 14.6665 6.97314Z" fill="#FFA940"/>
</svg>
