<svg width="22" height="23" viewBox="0 0 22 23" fill="none" xmlns="http://www.w3.org/2000/svg">
<path d="M22 11.8403C22 17.9155 17.0751 22.8403 11 22.8403C4.92487 22.8403 0 17.9155 0 11.8403C0 5.7652 4.92487 0.840332 11 0.840332C17.0751 0.840332 22 5.7652 22 11.8403Z" fill="#183B7F"/>
<path fill-rule="evenodd" clip-rule="evenodd" d="M11 21.4653C16.3157 21.4653 20.625 17.1561 20.625 11.8403C20.625 6.52459 16.3157 2.21533 11 2.21533C5.68426 2.21533 1.375 6.52459 1.375 11.8403C1.375 17.1561 5.68426 21.4653 11 21.4653ZM11 22.8403C17.0751 22.8403 22 17.9155 22 11.8403C22 5.7652 17.0751 0.840332 11 0.840332C4.92487 0.840332 0 5.7652 0 11.8403C0 17.9155 4.92487 22.8403 11 22.8403Z" fill="white"/>
<g clip-path="url(#clip0_1211_486263)">
<path d="M11 8.48877C11.4786 8.48877 11.9377 8.67891 12.2761 9.01735C12.6146 9.35579 12.8047 9.81482 12.8047 10.2935C12.8047 10.7721 12.6146 11.2311 12.2761 11.5696C11.9377 11.908 11.4786 12.0981 11 12.0981C10.5214 12.0981 10.0623 11.908 9.72389 11.5696C9.38545 11.2311 9.19531 10.7721 9.19531 10.2935C9.19531 9.81482 9.38545 9.35579 9.72389 9.01735C10.0623 8.67891 10.5214 8.48877 11 8.48877ZM7.39062 9.77783C7.67937 9.77783 7.9475 9.85518 8.17953 9.99439C8.10219 10.7317 8.31875 11.4639 8.76219 12.0363C8.50437 12.5313 7.98875 12.8716 7.39062 12.8716C6.98037 12.8716 6.58691 12.7086 6.29682 12.4185C6.00672 12.1284 5.84375 11.735 5.84375 11.3247C5.84375 10.9145 6.00672 10.521 6.29682 10.2309C6.58691 9.94081 6.98037 9.77783 7.39062 9.77783ZM14.6094 9.77783C15.0196 9.77783 15.4131 9.94081 15.7032 10.2309C15.9933 10.521 16.1562 10.9145 16.1562 11.3247C16.1562 11.735 15.9933 12.1284 15.7032 12.4185C15.4131 12.7086 15.0196 12.8716 14.6094 12.8716C14.0112 12.8716 13.4956 12.5313 13.2378 12.0363C13.6812 11.4639 13.8978 10.7317 13.8205 9.99439C14.0525 9.85518 14.3206 9.77783 14.6094 9.77783ZM7.64844 15.063C7.64844 13.9956 9.14891 13.1294 11 13.1294C12.8511 13.1294 14.3516 13.9956 14.3516 15.063V15.9653H7.64844V15.063ZM4.8125 15.9653V15.1919C4.8125 14.4752 5.78703 13.8719 7.10703 13.6966C6.80281 14.0472 6.61719 14.5319 6.61719 15.063V15.9653H4.8125ZM17.1875 15.9653H15.3828V15.063C15.3828 14.5319 15.1972 14.0472 14.893 13.6966C16.213 13.8719 17.1875 14.4752 17.1875 15.1919V15.9653Z" fill="#FFA940"/>
</g>
<defs>
<clipPath id="clip0_1211_486263">
<rect width="12.375" height="12.375" fill="white" transform="translate(4.8125 5.65283)"/>
</clipPath>
</defs>
</svg>
