<svg width="22" height="23" viewBox="0 0 22 23" fill="none" xmlns="http://www.w3.org/2000/svg">
<path d="M22 11.5515C22 17.6266 17.0751 22.5515 11 22.5515C4.92487 22.5515 0 17.6266 0 11.5515C0 5.47638 4.92487 0.551514 11 0.551514C17.0751 0.551514 22 5.47638 22 11.5515Z" fill="#183B7F"/>
<path fill-rule="evenodd" clip-rule="evenodd" d="M11 21.1765C16.3157 21.1765 20.625 16.8673 20.625 11.5515C20.625 6.23577 16.3157 1.92651 11 1.92651C5.68426 1.92651 1.375 6.23577 1.375 11.5515C1.375 16.8673 5.68426 21.1765 11 21.1765ZM11 22.5515C17.0751 22.5515 22 17.6266 22 11.5515C22 5.47638 17.0751 0.551514 11 0.551514C4.92487 0.551514 0 5.47638 0 11.5515C0 17.6266 4.92487 22.5515 11 22.5515Z" fill="white"/>
<path d="M11 14.3014H8.25V12.4681H11V14.3014ZM15.125 12.4681V11.5514L14.6667 9.25977H7.33333L6.875 11.5514V12.4681H7.33333V15.2181H11.9167V12.4681H13.75V15.2181H14.6667V12.4681H15.125ZM14.6667 7.88477H7.33333V8.80143H14.6667V7.88477Z" fill="#FFA940"/>
</svg>
