<svg width="22" height="23" viewBox="0 0 22 23" fill="none" xmlns="http://www.w3.org/2000/svg">
<path d="M22 11.5513C22 17.6264 17.0751 22.5513 11 22.5513C4.92487 22.5513 0 17.6264 0 11.5513C0 5.47614 4.92487 0.55127 11 0.55127C17.0751 0.55127 22 5.47614 22 11.5513Z" fill="#183B7F"/>
<path fill-rule="evenodd" clip-rule="evenodd" d="M11 21.1763C16.3157 21.1763 20.625 16.867 20.625 11.5513C20.625 6.23553 16.3157 1.92627 11 1.92627C5.68426 1.92627 1.375 6.23553 1.375 11.5513C1.375 16.867 5.68426 21.1763 11 21.1763ZM11 22.5513C17.0751 22.5513 22 17.6264 22 11.5513C22 5.47614 17.0751 0.55127 11 0.55127C4.92487 0.55127 0 5.47614 0 11.5513C0 17.6264 4.92487 22.5513 11 22.5513Z" fill="white"/>
<g clip-path="url(#clip0_1211_488398)">
<path d="M9.62484 16.5929C9.37275 16.5929 9.1665 16.3866 9.1665 16.1345V12.0095C9.1665 11.7574 9.37275 11.5512 9.62484 11.5512H12.3748C12.6269 11.5512 12.8332 11.7574 12.8332 12.0095V16.1345C12.8332 16.3866 12.6269 16.5929 12.3748 16.5929H9.62484ZM10.0832 11.0929C9.83109 11.0929 9.62484 10.8866 9.62484 10.6345V8.45744C9.62484 8.45744 10.5415 7.42619 10.8853 6.50952C11.3803 6.8166 11.8798 7.1191 12.1273 7.8066C12.3748 8.4941 12.3748 9.5666 12.3748 10.6345C12.3748 10.8866 12.1686 11.0929 11.9165 11.0929H10.0832Z" fill="#FFA940"/>
</g>
<defs>
<clipPath id="clip0_1211_488398">
<rect width="11" height="11" fill="white" transform="translate(5.5 6.05127)"/>
</clipPath>
</defs>
</svg>
