<svg width="22" height="23" viewBox="0 0 22 23" fill="none" xmlns="http://www.w3.org/2000/svg">
<path d="M22 11.0981C22 17.1733 17.0751 22.0981 11 22.0981C4.92487 22.0981 0 17.1733 0 11.0981C0 5.02301 4.92487 0.0981445 11 0.0981445C17.0751 0.0981445 22 5.02301 22 11.0981Z" fill="#183B7F"/>
<path fill-rule="evenodd" clip-rule="evenodd" d="M11 20.7231C16.3157 20.7231 20.625 16.4139 20.625 11.0981C20.625 5.7824 16.3157 1.47314 11 1.47314C5.68426 1.47314 1.375 5.7824 1.375 11.0981C1.375 16.4139 5.68426 20.7231 11 20.7231ZM11 22.0981C17.0751 22.0981 22 17.1733 22 11.0981C22 5.02301 17.0751 0.0981445 11 0.0981445C4.92487 0.0981445 0 5.02301 0 11.0981C0 17.1733 4.92487 22.0981 11 22.0981Z" fill="white"/>
<g clip-path="url(#clip0_1211_483774)">
<path d="M12.8335 11.0982C14.0985 11.0982 15.1252 10.0716 15.1252 8.80656C15.1252 7.54156 14.0985 6.51489 12.8335 6.51489C11.5685 6.51489 10.5418 7.54156 10.5418 8.80656C10.5418 10.0716 11.5685 11.0982 12.8335 11.0982ZM15.3314 13.6649C15.1527 13.4816 14.9281 13.3899 14.6668 13.3899H11.4585L10.5052 13.0553L10.6564 12.6245L11.4585 12.9316H12.7418C12.9023 12.9316 13.0306 12.8674 13.136 12.762C13.2414 12.6566 13.2918 12.5282 13.2918 12.3861C13.2918 12.1386 13.1727 11.9691 12.9343 11.8728L9.60225 10.6399H8.7085V14.7649L11.9168 15.6816L15.5973 14.3066C15.6018 14.0636 15.5102 13.8482 15.3314 13.6649ZM7.79184 10.6399H5.95117V15.6816H7.79184V10.6399Z" fill="#FFA940"/>
</g>
<defs>
<clipPath id="clip0_1211_483774">
<rect width="11" height="11" fill="white" transform="translate(5.5 5.59814)"/>
</clipPath>
</defs>
</svg>
