<svg width="22" height="23" viewBox="0 0 22 23" fill="none" xmlns="http://www.w3.org/2000/svg">
<path d="M22 11.5981C22 17.6733 17.0751 22.5981 11 22.5981C4.92487 22.5981 0 17.6733 0 11.5981C0 5.52301 4.92487 0.598145 11 0.598145C17.0751 0.598145 22 5.52301 22 11.5981Z" fill="#183B7F"/>
<path fill-rule="evenodd" clip-rule="evenodd" d="M11 21.2231C16.3157 21.2231 20.625 16.9139 20.625 11.5981C20.625 6.2824 16.3157 1.97314 11 1.97314C5.68426 1.97314 1.375 6.2824 1.375 11.5981C1.375 16.9139 5.68426 21.2231 11 21.2231ZM11 22.5981C17.0751 22.5981 22 17.6733 22 11.5981C22 5.52301 17.0751 0.598145 11 0.598145C4.92487 0.598145 0 5.52301 0 11.5981C0 17.6733 4.92487 22.5981 11 22.5981Z" fill="white"/>
<path d="M14.0938 12.6294H12.0312V14.6919H9.96875V12.6294H7.90625V10.5669H9.96875V8.50439H12.0312V10.5669H14.0938V12.6294ZM14.6094 6.95752H7.39062C6.81828 6.95752 6.35938 7.41643 6.35938 7.98877V15.2075C6.35938 15.481 6.46802 15.7433 6.66142 15.9367C6.85482 16.1301 7.11712 16.2388 7.39062 16.2388H14.6094C14.8829 16.2388 15.1452 16.1301 15.3386 15.9367C15.532 15.7433 15.6406 15.481 15.6406 15.2075V7.98877C15.6406 7.41643 15.1766 6.95752 14.6094 6.95752Z" fill="#FFA940"/>
</svg>
