<svg width="22" height="23" viewBox="0 0 22 23" fill="none" xmlns="http://www.w3.org/2000/svg">
<path d="M22 11.5981C22 17.6733 17.0751 22.5981 11 22.5981C4.92487 22.5981 0 17.6733 0 11.5981C0 5.52301 4.92487 0.598145 11 0.598145C17.0751 0.598145 22 5.52301 22 11.5981Z" fill="#183B7F"/>
<path fill-rule="evenodd" clip-rule="evenodd" d="M11 21.2231C16.3157 21.2231 20.625 16.9139 20.625 11.5981C20.625 6.2824 16.3157 1.97314 11 1.97314C5.68426 1.97314 1.375 6.2824 1.375 11.5981C1.375 16.9139 5.68426 21.2231 11 21.2231ZM11 22.5981C17.0751 22.5981 22 17.6733 22 11.5981C22 5.52301 17.0751 0.598145 11 0.598145C4.92487 0.598145 0 5.52301 0 11.5981C0 17.6733 4.92487 22.5981 11 22.5981Z" fill="white"/>
<g clip-path="url(#clip0_1211_484730)">
<path d="M10.9998 6.44189L4.69775 9.87939L10.9998 13.3169L16.1561 10.5039V14.4627H17.3019V9.87939L10.9998 6.44189ZM6.98942 12.2742V14.5659L10.9998 16.7544L15.0103 14.5659V12.2742L10.9998 14.4627L6.98942 12.2742Z" fill="#FFA940"/>
</g>
<defs>
<clipPath id="clip0_1211_484730">
<rect width="13.75" height="13.75" fill="white" transform="translate(4.125 4.72314)"/>
</clipPath>
</defs>
</svg>
