<svg width="22" height="23" viewBox="0 0 22 23" fill="none" xmlns="http://www.w3.org/2000/svg">
<path d="M22 11.0981C22 17.1733 17.0751 22.0981 11 22.0981C4.92487 22.0981 0 17.1733 0 11.0981C0 5.02301 4.92487 0.0981445 11 0.0981445C17.0751 0.0981445 22 5.02301 22 11.0981Z" fill="#183B7F"/>
<path fill-rule="evenodd" clip-rule="evenodd" d="M11 20.7231C16.3157 20.7231 20.625 16.4139 20.625 11.0981C20.625 5.7824 16.3157 1.47314 11 1.47314C5.68426 1.47314 1.375 5.7824 1.375 11.0981C1.375 16.4139 5.68426 20.7231 11 20.7231ZM11 22.0981C17.0751 22.0981 22 17.1733 22 11.0981C22 5.02301 17.0751 0.0981445 11 0.0981445C4.92487 0.0981445 0 5.02301 0 11.0981C0 17.1733 4.92487 22.0981 11 22.0981Z" fill="white"/>
<path d="M14.03 16.5981H14.86C15.28 16.5981 15.625 16.2731 15.675 15.8631L16.5 7.62314H14V5.59814H13.015V7.62314H10.53L10.68 8.79314C11.535 9.02814 12.335 9.45314 12.815 9.92314C13.535 10.6331 14.03 11.3681 14.03 12.5681V16.5981ZM5.5 16.0981V15.5981H13.015V16.0981C13.015 16.3681 12.79 16.5981 12.5 16.5981H6C5.725 16.5981 5.5 16.3681 5.5 16.0981ZM13.015 12.5981C13.015 8.59814 5.5 8.59814 5.5 12.5981H13.015ZM5.5 13.5981H13V14.5981H5.5V13.5981Z" fill="#FFA940"/>
</svg>
