<svg width="22" height="23" viewBox="0 0 22 23" fill="none" xmlns="http://www.w3.org/2000/svg">
<path d="M22 11.9888C22 18.0639 17.0751 22.9888 11 22.9888C4.92487 22.9888 0 18.0639 0 11.9888C0 5.91364 4.92487 0.98877 11 0.98877C17.0751 0.98877 22 5.91364 22 11.9888Z" fill="#183B7F"/>
<path fill-rule="evenodd" clip-rule="evenodd" d="M11 21.6138C16.3157 21.6138 20.625 17.3045 20.625 11.9888C20.625 6.67303 16.3157 2.36377 11 2.36377C5.68426 2.36377 1.375 6.67303 1.375 11.9888C1.375 17.3045 5.68426 21.6138 11 21.6138ZM11 22.9888C17.0751 22.9888 22 18.0639 22 11.9888C22 5.91364 17.0751 0.98877 11 0.98877C4.92487 0.98877 0 5.91364 0 11.9888C0 18.0639 4.92487 22.9888 11 22.9888Z" fill="white"/>
<path d="M7.39062 13.5356V13.02H6.875V11.9888H7.39062V11.4731H8.42188V13.5356H7.39062ZM14.6094 11.9888V11.4731H13.5781V13.5356H14.6094V13.02H15.125V11.9888H14.6094ZM14.0938 8.89502H12.9903C12.8047 8.17314 12.2375 7.60596 11.5156 7.42033V6.83252H10.4844V7.42033C9.7625 7.60596 9.19531 8.17314 9.00969 8.89502H7.90625V9.92627H14.0938V8.89502ZM14.0938 17.145H7.90625C7.90625 16.5778 8.37031 16.1138 8.9375 16.1138V10.4419H13.0625V16.1138C13.6348 16.1138 14.0938 16.5778 14.0938 17.145ZM9.96875 12.5044C9.96875 13.0767 10.4328 13.5356 11 13.5356C11.5672 13.5356 12.0312 13.0767 12.0312 12.5044C12.0312 11.9321 11.5723 11.4731 11 11.4731C10.4277 11.4731 9.96875 11.9372 9.96875 12.5044Z" fill="#FFA940"/>
</svg>
