<svg width="22" height="23" viewBox="0 0 22 23" fill="none" xmlns="http://www.w3.org/2000/svg">
<path d="M22 11.9497C22 18.0248 17.0751 22.9497 11 22.9497C4.92487 22.9497 0 18.0248 0 11.9497C0 5.87458 4.92487 0.949707 11 0.949707C17.0751 0.949707 22 5.87458 22 11.9497Z" fill="#183B7F"/>
<path fill-rule="evenodd" clip-rule="evenodd" d="M11 21.5747C16.3157 21.5747 20.625 17.2654 20.625 11.9497C20.625 6.63397 16.3157 2.32471 11 2.32471C5.68426 2.32471 1.375 6.63397 1.375 11.9497C1.375 17.2654 5.68426 21.5747 11 21.5747ZM11 22.9497C17.0751 22.9497 22 18.0248 22 11.9497C22 5.87458 17.0751 0.949707 11 0.949707C4.92487 0.949707 0 5.87458 0 11.9497C0 18.0248 4.92487 22.9497 11 22.9497Z" fill="white"/>
<path d="M15.9101 13.5882L16.7293 12.7689L15.9101 11.9496L13.8647 13.9949L8.95485 9.08504L11.0002 7.03973L10.1809 6.22046L9.36162 7.03973L8.54235 6.22046L7.31631 7.4465L6.49704 6.62723L5.67777 7.4465L6.49704 8.26577L5.271 9.49181L6.09027 10.3111L5.271 11.1304L6.09027 11.9496L8.13558 9.90431L13.0455 14.8142L11.0002 16.8595L11.8194 17.6788L12.6387 16.8595L13.458 17.6788L14.684 16.4528L15.5033 17.272L16.3226 16.4528L15.5033 15.6335L16.7293 14.4074L15.9101 13.5882Z" fill="#FFA940"/>
</svg>
