<svg width="23" height="23" viewBox="0 0 23 23" fill="none" xmlns="http://www.w3.org/2000/svg">
<path d="M22.0415 11.6404C22.0415 17.7155 17.1166 22.6404 11.0415 22.6404C4.96637 22.6404 0.0415039 17.7155 0.0415039 11.6404C0.0415039 5.56525 4.96637 0.640381 11.0415 0.640381C17.1166 0.640381 22.0415 5.56525 22.0415 11.6404Z" fill="#183B7F"/>
<path fill-rule="evenodd" clip-rule="evenodd" d="M11.0415 21.2654C16.3572 21.2654 20.6665 16.9561 20.6665 11.6404C20.6665 6.32464 16.3572 2.01538 11.0415 2.01538C5.72576 2.01538 1.4165 6.32464 1.4165 11.6404C1.4165 16.9561 5.72576 21.2654 11.0415 21.2654ZM11.0415 22.6404C17.1166 22.6404 22.0415 17.7155 22.0415 11.6404C22.0415 5.56525 17.1166 0.640381 11.0415 0.640381C4.96637 0.640381 0.0415039 5.56525 0.0415039 11.6404C0.0415039 17.7155 4.96637 22.6404 11.0415 22.6404Z" fill="white"/>
<path d="M10.5259 10.0935H9.49463V6.48413H8.46338V10.0935H7.43213V6.48413H6.40088V10.0935C6.40088 11.1866 7.25682 12.0735 8.33447 12.1405V16.7966H9.62354V12.1405C10.7012 12.0735 11.5571 11.1866 11.5571 10.0935V6.48413H10.5259V10.0935ZM13.104 8.54663V12.6716H14.3931V16.7966H15.6821V6.48413C14.259 6.48413 13.104 7.63913 13.104 8.54663Z" fill="#FFA940"/>
</svg>
