<svg width="22" height="23" viewBox="0 0 22 23" fill="none" xmlns="http://www.w3.org/2000/svg">
<path d="M22 11.3247C22 17.3998 17.0751 22.3247 11 22.3247C4.92487 22.3247 0 17.3998 0 11.3247C0 5.24958 4.92487 0.324707 11 0.324707C17.0751 0.324707 22 5.24958 22 11.3247Z" fill="#183B7F"/>
<path fill-rule="evenodd" clip-rule="evenodd" d="M11 20.9497C16.3157 20.9497 20.625 16.6404 20.625 11.3247C20.625 6.00897 16.3157 1.69971 11 1.69971C5.68426 1.69971 1.375 6.00897 1.375 11.3247C1.375 16.6404 5.68426 20.9497 11 20.9497ZM11 22.3247C17.0751 22.3247 22 17.3998 22 11.3247C22 5.24958 17.0751 0.324707 11 0.324707C4.92487 0.324707 0 5.24958 0 11.3247C0 17.3998 4.92487 22.3247 11 22.3247Z" fill="white"/>
<path d="M13.7502 10.408C13.6286 10.408 13.512 10.3598 13.4261 10.2738C13.3401 10.1878 13.2918 10.0713 13.2918 9.94971C13.2918 9.82815 13.3401 9.71157 13.4261 9.62562C13.512 9.53966 13.6286 9.49137 13.7502 9.49137C13.8717 9.49137 13.9883 9.53966 14.0743 9.62562C14.1602 9.71157 14.2085 9.82815 14.2085 9.94971C14.2085 10.0713 14.1602 10.1878 14.0743 10.2738C13.9883 10.3598 13.8717 10.408 13.7502 10.408ZM11.0002 10.408H8.25016V8.11637H11.0002V10.408ZM14.5614 9.13846L14.566 9.13387L12.861 7.42887L12.3752 7.91471L13.3422 8.88179C12.9114 9.03304 12.6043 9.45929 12.6043 9.94971C12.6043 10.1002 12.634 10.2492 12.6916 10.3882C12.7491 10.5272 12.8335 10.6535 12.9399 10.7599C13.1548 10.9748 13.4463 11.0955 13.7502 11.0955C13.9152 11.0955 14.0664 11.0589 14.2085 10.9993V14.3039C14.2085 14.4254 14.1602 14.542 14.0743 14.628C13.9883 14.7139 13.8717 14.7622 13.7502 14.7622C13.6286 14.7622 13.512 14.7139 13.4261 14.628C13.3401 14.542 13.2918 14.4254 13.2918 14.3039V12.2414C13.2918 11.7326 12.8793 11.3247 12.3752 11.3247H11.9168V8.11637C11.9168 7.60762 11.5043 7.19971 11.0002 7.19971H8.25016C7.74141 7.19971 7.3335 7.60762 7.3335 8.11637V15.4497H11.9168V12.0122H12.6043V14.3039C12.6043 14.6078 12.7251 14.8992 12.9399 15.1141C13.1548 15.329 13.4463 15.4497 13.7502 15.4497C13.9006 15.4497 14.0496 15.4201 14.1887 15.3625C14.3277 15.3049 14.454 15.2205 14.5604 15.1141C14.6668 15.0077 14.7512 14.8814 14.8088 14.7424C14.8664 14.6033 14.896 14.4543 14.896 14.3039V9.94971C14.896 9.63346 14.7677 9.34471 14.5614 9.13846Z" fill="#FFA940"/>
</svg>
