<svg width="22" height="23" viewBox="0 0 22 23" fill="none" xmlns="http://www.w3.org/2000/svg">
<path d="M22 11.9497C22 18.0248 17.0751 22.9497 11 22.9497C4.92487 22.9497 0 18.0248 0 11.9497C0 5.87458 4.92487 0.949707 11 0.949707C17.0751 0.949707 22 5.87458 22 11.9497Z" fill="#183B7F"/>
<path fill-rule="evenodd" clip-rule="evenodd" d="M11 21.5747C16.3157 21.5747 20.625 17.2654 20.625 11.9497C20.625 6.63397 16.3157 2.32471 11 2.32471C5.68426 2.32471 1.375 6.63397 1.375 11.9497C1.375 17.2654 5.68426 21.5747 11 21.5747ZM11 22.9497C17.0751 22.9497 22 18.0248 22 11.9497C22 5.87458 17.0751 0.949707 11 0.949707C4.92487 0.949707 0 5.87458 0 11.9497C0 18.0248 4.92487 22.9497 11 22.9497Z" fill="white"/>
<path d="M14.8672 15.0435C15.0723 15.0435 15.269 15.1249 15.4141 15.27C15.5591 15.415 15.6406 15.6118 15.6406 15.8169C15.6406 16.022 15.5591 16.2187 15.4141 16.3638C15.269 16.5088 15.0723 16.5903 14.8672 16.5903C14.6621 16.5903 14.4653 16.5088 14.3203 16.3638C14.1752 16.2187 14.0938 16.022 14.0938 15.8169C14.0938 15.6118 14.1752 15.415 14.3203 15.27C14.4653 15.1249 14.6621 15.0435 14.8672 15.0435ZM13.5781 8.81471L10.4844 10.4028V15.0589C11.9488 15.1414 13.0625 15.5591 13.0625 16.0747C13.0625 16.6419 11.6755 17.106 9.96875 17.106C8.26203 17.106 6.875 16.6419 6.875 16.0747C6.875 15.6931 7.49891 15.3631 8.42188 15.1827V16.0747H9.45312V6.79346L13.5781 8.81471Z" fill="#FFA940"/>
</svg>
