<svg width="22" height="23" viewBox="0 0 22 23" fill="none" xmlns="http://www.w3.org/2000/svg">
<path d="M22 11.2466C22 17.3217 17.0751 22.2466 11 22.2466C4.92487 22.2466 0 17.3217 0 11.2466C0 5.17145 4.92487 0.246582 11 0.246582C17.0751 0.246582 22 5.17145 22 11.2466Z" fill="#183B7F"/>
<path fill-rule="evenodd" clip-rule="evenodd" d="M11 20.8716C16.3157 20.8716 20.625 16.5623 20.625 11.2466C20.625 5.93084 16.3157 1.62158 11 1.62158C5.68426 1.62158 1.375 5.93084 1.375 11.2466C1.375 16.5623 5.68426 20.8716 11 20.8716ZM11 22.2466C17.0751 22.2466 22 17.3217 22 11.2466C22 5.17145 17.0751 0.246582 11 0.246582C4.92487 0.246582 0 5.17145 0 11.2466C0 17.3217 4.92487 22.2466 11 22.2466Z" fill="white"/>
<path d="M10.4844 8.66846C10.2109 8.66846 9.94857 8.77711 9.75517 8.9705C9.56177 9.1639 9.45312 9.4262 9.45312 9.69971V12.7935C9.45312 13.067 9.56177 13.3293 9.75517 13.5227C9.94857 13.7161 10.2109 13.8247 10.4844 13.8247H11.5156C11.7891 13.8247 12.0514 13.7161 12.2448 13.5227C12.4382 13.3293 12.5469 13.067 12.5469 12.7935V10.731H11.5156V12.7935H10.4844V9.69971H12.5469V8.66846H10.4844ZM7.39062 6.60596H14.6094C14.8829 6.60596 15.1452 6.71461 15.3386 6.908C15.532 7.1014 15.6406 7.3637 15.6406 7.63721V14.856C15.6406 15.1295 15.532 15.3918 15.3386 15.5852C15.1452 15.7786 14.8829 15.8872 14.6094 15.8872H7.39062C7.11712 15.8872 6.85482 15.7786 6.66142 15.5852C6.46802 15.3918 6.35938 15.1295 6.35938 14.856V7.63721C6.35938 7.3637 6.46802 7.1014 6.66142 6.908C6.85482 6.71461 7.11712 6.60596 7.39062 6.60596Z" fill="#FFA940"/>
</svg>
