<svg width="22" height="23" viewBox="0 0 22 23" fill="none" xmlns="http://www.w3.org/2000/svg">
<path d="M22 11.5981C22 17.6733 17.0751 22.5981 11 22.5981C4.92487 22.5981 0 17.6733 0 11.5981C0 5.52301 4.92487 0.598145 11 0.598145C17.0751 0.598145 22 5.52301 22 11.5981Z" fill="#183B7F"/>
<path fill-rule="evenodd" clip-rule="evenodd" d="M11 21.2231C16.3157 21.2231 20.625 16.9139 20.625 11.5981C20.625 6.2824 16.3157 1.97314 11 1.97314C5.68426 1.97314 1.375 6.2824 1.375 11.5981C1.375 16.9139 5.68426 21.2231 11 21.2231ZM11 22.5981C17.0751 22.5981 22 17.6733 22 11.5981C22 5.52301 17.0751 0.598145 11 0.598145C4.92487 0.598145 0 5.52301 0 11.5981C0 17.6733 4.92487 22.5981 11 22.5981Z" fill="white"/>
<path d="M6.4165 16.1816V9.30656C6.4165 9.185 6.46479 9.06842 6.55075 8.98247C6.6367 8.89651 6.75328 8.84823 6.87484 8.84823H8.70817V7.01489H13.2915V8.84823H15.1248C15.2464 8.84823 15.363 8.89651 15.4489 8.98247C15.5349 9.06842 15.5832 9.185 15.5832 9.30656V16.1816H11.9165V13.8899H10.0832V16.1816H6.4165ZM9.62484 7.93156V10.6816H10.5415V9.76489H11.4582V10.6816H12.3748V7.93156H11.4582V8.84823H10.5415V7.93156H9.62484ZM7.33317 15.2649H9.1665V13.8899H7.33317V15.2649ZM7.33317 12.9732H9.1665V11.5982H7.33317V12.9732ZM12.8332 15.2649H14.6665V13.8899H12.8332V15.2649ZM12.8332 12.9732H14.6665V11.5982H12.8332V12.9732ZM10.0832 12.9732H11.9165V11.5982H10.0832V12.9732Z" fill="#FFA940"/>
</svg>
