<svg width="23" height="23" viewBox="0 0 23 23" fill="none" xmlns="http://www.w3.org/2000/svg">
<path d="M22.0415 11.6404C22.0415 17.7155 17.1166 22.6404 11.0415 22.6404C4.96637 22.6404 0.0415039 17.7155 0.0415039 11.6404C0.0415039 5.56525 4.96637 0.640381 11.0415 0.640381C17.1166 0.640381 22.0415 5.56525 22.0415 11.6404Z" fill="#183B7F"/>
<path fill-rule="evenodd" clip-rule="evenodd" d="M11.0415 21.2654C16.3572 21.2654 20.6665 16.9561 20.6665 11.6404C20.6665 6.32464 16.3572 2.01538 11.0415 2.01538C5.72576 2.01538 1.4165 6.32464 1.4165 11.6404C1.4165 16.9561 5.72576 21.2654 11.0415 21.2654ZM11.0415 22.6404C17.1166 22.6404 22.0415 17.7155 22.0415 11.6404C22.0415 5.56525 17.1166 0.640381 11.0415 0.640381C4.96637 0.640381 0.0415039 5.56525 0.0415039 11.6404C0.0415039 17.7155 4.96637 22.6404 11.0415 22.6404Z" fill="white"/>
<path d="M14.6509 9.06226H10.5259V12.6716H6.40088V8.03101H5.36963V15.7654H6.40088V14.2185H15.6821V15.7654H16.7134V11.1248C16.7134 10.5777 16.4961 10.0531 16.1093 9.66635C15.7225 9.27955 15.1979 9.06226 14.6509 9.06226ZM8.46338 12.156C8.87364 12.156 9.26709 11.993 9.55718 11.7029C9.84728 11.4128 10.0103 11.0194 10.0103 10.6091C10.0103 10.1989 9.84728 9.80542 9.55718 9.51533C9.26709 9.22523 8.87364 9.06226 8.46338 9.06226C8.05312 9.06226 7.65967 9.22523 7.36957 9.51533C7.07948 9.80542 6.9165 10.1989 6.9165 10.6091C6.9165 11.0194 7.07948 11.4128 7.36957 11.7029C7.65967 11.993 8.05312 12.156 8.46338 12.156V12.156Z" fill="#FFA940"/>
</svg>
