<svg width="22" height="23" viewBox="0 0 22 23" fill="none" xmlns="http://www.w3.org/2000/svg">
<path d="M22 11.3953C22 17.4704 17.0751 22.3953 11 22.3953C4.92487 22.3953 0 17.4704 0 11.3953C0 5.32013 4.92487 0.395264 11 0.395264C17.0751 0.395264 22 5.32013 22 11.3953Z" fill="#183B7F"/>
<path fill-rule="evenodd" clip-rule="evenodd" d="M11 21.0203C16.3157 21.0203 20.625 16.711 20.625 11.3953C20.625 6.07952 16.3157 1.77026 11 1.77026C5.68426 1.77026 1.375 6.07952 1.375 11.3953C1.375 16.711 5.68426 21.0203 11 21.0203ZM11 22.3953C17.0751 22.3953 22 17.4704 22 11.3953C22 5.32013 17.0751 0.395264 11 0.395264C4.92487 0.395264 0 5.32013 0 11.3953C0 17.4704 4.92487 22.3953 11 22.3953Z" fill="white"/>
<path d="M15.125 15.5204C14.4083 15.5204 13.6916 15.278 13.0625 14.8346C11.8044 15.7163 10.1956 15.7163 8.9375 14.8346C8.30844 15.278 7.59172 15.5204 6.875 15.5204H5.84375V16.5516H6.875C7.58141 16.5516 8.28781 16.3712 8.9375 16.036C10.2266 16.7063 11.7734 16.7063 13.0625 16.036C13.7122 16.3712 14.4134 16.5516 15.125 16.5516H16.1562V15.5204H15.125ZM15.5272 15.0047H15.125C14.5166 15.0047 13.9081 14.7985 13.3616 14.4118L13.0625 14.2055L12.7634 14.4118C12.2323 14.783 11.6239 14.979 11 14.979C10.3658 14.979 9.75734 14.783 9.22625 14.4118L8.9375 14.2055L8.64359 14.4118C8.09187 14.7985 7.48344 15.0047 6.875 15.0047H6.47281C6.74609 14.2519 7.68969 12.9422 11 12.9422C12.0312 12.9422 12.5469 13.066 12.5469 13.066C12.8975 12.3596 13.4905 10.7612 13.0625 8.72443L13.6091 9.09053C13.7792 9.82787 14.0938 11.2665 13.475 13.2774C14.8311 13.7157 15.3416 14.4891 15.5272 15.0047ZM16.1562 9.12147C15.7489 8.55943 15.125 8.15209 14.3928 8.05928C14.4547 8.13147 14.5114 8.21397 14.5681 8.30162C15.1869 9.28647 15.058 10.5291 14.3361 11.3696C14.6403 10.6219 14.6094 9.74022 14.135 9.00287C14.0938 8.96162 14.0731 8.92037 14.0422 8.87397C13.8359 8.5749 13.5575 8.33256 13.2584 8.15725C12.2117 8.4924 11.4538 9.47209 11.4538 10.6219C11.4538 10.8952 11.495 11.153 11.5672 11.3954C11.2578 10.9674 11.0825 10.4518 11.0825 9.88459C11.0825 9.02865 11.495 8.27584 12.1344 7.80147C11.5981 7.76022 11.0464 7.87881 10.5566 8.18818C10.3297 8.3274 10.1337 8.49756 9.96875 8.6935C10.1698 8.20881 10.5102 7.786 11 7.47662C11.5363 7.13631 12.1602 7.01256 12.748 7.11053C12.5984 6.90428 12.418 6.7135 12.2014 6.5485C11.99 6.38865 11.758 6.2649 11.5156 6.17725C12.0312 6.19271 12.5675 6.36287 13.0161 6.69803C13.243 6.86818 13.4234 7.07443 13.5781 7.29615C13.6091 7.29615 13.64 7.291 13.6761 7.291C14.8414 7.291 15.8314 8.05928 16.1562 9.12147Z" fill="#FFA940"/>
</svg>
