<svg width="22" height="23" viewBox="0 0 22 23" fill="none" xmlns="http://www.w3.org/2000/svg">
<path d="M22 11.5435C22 17.6186 17.0751 22.5435 11 22.5435C4.92487 22.5435 0 17.6186 0 11.5435C0 5.46833 4.92487 0.543457 11 0.543457C17.0751 0.543457 22 5.46833 22 11.5435Z" fill="#183B7F"/>
<path fill-rule="evenodd" clip-rule="evenodd" d="M11 21.1685C16.3157 21.1685 20.625 16.8592 20.625 11.5435C20.625 6.22772 16.3157 1.91846 11 1.91846C5.68426 1.91846 1.375 6.22772 1.375 11.5435C1.375 16.8592 5.68426 21.1685 11 21.1685ZM11 22.5435C17.0751 22.5435 22 17.6186 22 11.5435C22 5.46833 17.0751 0.543457 11 0.543457C4.92487 0.543457 0 5.46833 0 11.5435C0 17.6186 4.92487 22.5435 11 22.5435Z" fill="white"/>
<g clip-path="url(#clip0_1211_493453)">
<path d="M9.45312 6.90283C10.0001 6.90283 10.5247 7.12013 10.9115 7.50692C11.2983 7.89372 11.5156 8.41832 11.5156 8.96533H7.39062C7.39062 8.41832 7.60792 7.89372 7.99472 7.50692C8.38151 7.12013 8.90612 6.90283 9.45312 6.90283ZM10.9175 10.4194L10.4844 14.6372H9.96875V15.1528C9.96875 15.4263 10.0774 15.6886 10.2708 15.882C10.4642 16.0754 10.7265 16.1841 11 16.1841C11.2735 16.1841 11.5358 16.0754 11.7292 15.882C11.9226 15.6886 12.0312 15.4263 12.0312 15.1528V12.5747C12.0312 12.0277 12.2485 11.5031 12.6353 11.1163C13.0221 10.7295 13.5467 10.5122 14.0938 10.5122H15.125L14.6094 11.0278L15.125 11.5435H14.0938C13.8202 11.5435 13.5579 11.6521 13.3645 11.8455C13.1711 12.0389 13.0625 12.3012 13.0625 12.5747V15.1528C13.0625 15.6998 12.8452 16.2244 12.4584 16.6112C12.0716 16.998 11.547 17.2153 11 17.2153C10.453 17.2153 9.92839 16.998 9.54159 16.6112C9.1548 16.2244 8.9375 15.6998 8.9375 15.1528V14.6372H8.42188L7.98875 10.4194C7.73609 10.1616 7.55047 9.84189 7.45766 9.48096H11.4486C11.3558 9.84189 11.1702 10.1616 10.9175 10.4194ZM9.45312 11.0278C9.31637 11.0278 9.18522 11.0822 9.08852 11.1789C8.99182 11.2756 8.9375 11.4067 8.9375 11.5435C8.9375 11.6802 8.99182 11.8114 9.08852 11.9081C9.18522 12.0048 9.31637 12.0591 9.45312 12.0591C9.58988 12.0591 9.72103 12.0048 9.81773 11.9081C9.91443 11.8114 9.96875 11.6802 9.96875 11.5435C9.96875 11.4067 9.91443 11.2756 9.81773 11.1789C9.72103 11.0822 9.58988 11.0278 9.45312 11.0278Z" fill="#FFA940"/>
</g>
<defs>
<clipPath id="clip0_1211_493453">
<rect width="12.375" height="12.375" fill="white" transform="translate(4.8125 5.35596)"/>
</clipPath>
</defs>
</svg>
