<svg width="22" height="23" viewBox="0 0 22 23" fill="none" xmlns="http://www.w3.org/2000/svg">
<path d="M22 11.2935C22 17.3686 17.0751 22.2935 11 22.2935C4.92487 22.2935 0 17.3686 0 11.2935C0 5.21833 4.92487 0.293457 11 0.293457C17.0751 0.293457 22 5.21833 22 11.2935Z" fill="#183B7F"/>
<path fill-rule="evenodd" clip-rule="evenodd" d="M11 20.9185C16.3157 20.9185 20.625 16.6092 20.625 11.2935C20.625 5.97772 16.3157 1.66846 11 1.66846C5.68426 1.66846 1.375 5.97772 1.375 11.2935C1.375 16.6092 5.68426 20.9185 11 20.9185ZM11 22.2935C17.0751 22.2935 22 17.3686 22 11.2935C22 5.21833 17.0751 0.293457 11 0.293457C4.92487 0.293457 0 5.21833 0 11.2935C0 17.3686 4.92487 22.2935 11 22.2935Z" fill="white"/>
<path d="M12.2972 10.9131C13.0122 11.6281 13.0122 12.7923 12.2972 13.5073C11.5822 14.2223 10.4181 14.2223 9.70308 13.5073L12.2972 10.9131ZM8.25016 6.71021H13.7502C13.9933 6.71021 14.2264 6.80678 14.3983 6.97869C14.5703 7.1506 14.6668 7.38376 14.6668 7.62687V14.9602C14.6668 15.2033 14.5703 15.4365 14.3983 15.6084C14.2264 15.7803 13.9933 15.8769 13.7502 15.8769H8.25016C8.00705 15.8769 7.77389 15.7803 7.60198 15.6084C7.43007 15.4365 7.3335 15.2033 7.3335 14.9602V7.62687C7.3335 7.38376 7.43007 7.1506 7.60198 6.97869C7.77389 6.80678 8.00705 6.71021 8.25016 6.71021ZM8.7085 7.62687C8.58694 7.62687 8.47036 7.67516 8.38441 7.76111C8.29845 7.84707 8.25016 7.96365 8.25016 8.08521C8.25016 8.20676 8.29845 8.32334 8.38441 8.4093C8.47036 8.49525 8.58694 8.54354 8.7085 8.54354C8.83005 8.54354 8.94663 8.49525 9.03259 8.4093C9.11854 8.32334 9.16683 8.20676 9.16683 8.08521C9.16683 7.96365 9.11854 7.84707 9.03259 7.76111C8.94663 7.67516 8.83005 7.62687 8.7085 7.62687ZM10.0835 7.62687C9.96194 7.62687 9.84536 7.67516 9.75941 7.76111C9.67345 7.84707 9.62516 7.96365 9.62516 8.08521C9.62516 8.20676 9.67345 8.32334 9.75941 8.4093C9.84536 8.49525 9.96194 8.54354 10.0835 8.54354C10.2051 8.54354 10.3216 8.49525 10.4076 8.4093C10.4935 8.32334 10.5418 8.20676 10.5418 8.08521C10.5418 7.96365 10.4935 7.84707 10.4076 7.76111C10.3216 7.67516 10.2051 7.62687 10.0835 7.62687ZM11.0002 9.46021C10.2708 9.46021 9.57134 9.74994 9.05562 10.2657C8.53989 10.7814 8.25016 11.4809 8.25016 12.2102C8.25016 12.9396 8.53989 13.639 9.05562 14.1547C9.57134 14.6705 10.2708 14.9602 11.0002 14.9602C11.7295 14.9602 12.429 14.6705 12.9447 14.1547C13.4604 13.639 13.7502 12.9396 13.7502 12.2102C13.7502 11.4809 13.4604 10.7814 12.9447 10.2657C12.429 9.74994 11.7295 9.46021 11.0002 9.46021Z" fill="#FFA940"/>
</svg>
