<svg width="22" height="23" viewBox="0 0 22 23" fill="none" xmlns="http://www.w3.org/2000/svg">
<path d="M22 11.0044C22 17.0795 17.0751 22.0044 11 22.0044C4.92487 22.0044 0 17.0795 0 11.0044C0 4.92926 4.92487 0.00439453 11 0.00439453C17.0751 0.00439453 22 4.92926 22 11.0044Z" fill="#183B7F"/>
<path fill-rule="evenodd" clip-rule="evenodd" d="M11 20.6294C16.3157 20.6294 20.625 16.3201 20.625 11.0044C20.625 5.68865 16.3157 1.37939 11 1.37939C5.68426 1.37939 1.375 5.68865 1.375 11.0044C1.375 16.3201 5.68426 20.6294 11 20.6294ZM11 22.0044C17.0751 22.0044 22 17.0795 22 11.0044C22 4.92926 17.0751 0.00439453 11 0.00439453C4.92487 0.00439453 0 4.92926 0 11.0044C0 17.0795 4.92487 22.0044 11 22.0044Z" fill="white"/>
<path d="M7.81897 6.87939C7.62189 6.87939 7.43397 6.94356 7.2598 7.07189C7.08564 7.20023 6.9848 7.36523 6.93897 7.56689L6.46689 9.58814C6.3523 10.0877 6.44397 10.5094 6.73272 10.8806C6.78772 10.9356 6.84272 10.9906 6.89314 11.0365C7.16355 11.2977 7.46147 11.4627 7.8923 11.4627C8.32314 11.4627 8.66689 11.2748 8.92355 11.0273C9.2123 11.3115 9.56064 11.4627 9.99147 11.4627C10.3765 11.4627 10.7431 11.2931 10.9998 11.0365C11.3115 11.3252 11.6644 11.4627 12.054 11.4627C12.4527 11.4627 12.7919 11.3115 13.0806 11.0273C13.3419 11.2886 13.6856 11.4627 14.1211 11.4627C14.5565 11.4627 14.8636 11.3023 15.1248 11.0319C15.1661 10.9906 15.2073 10.9448 15.2531 10.899C15.5556 10.5231 15.6473 10.0877 15.5327 9.58814L15.0606 7.56689C15.0011 7.36523 14.8956 7.20023 14.7261 7.07189C14.5611 6.94356 14.3823 6.87939 14.1806 6.87939H7.81897ZM14.1577 7.78231L14.6527 9.80356C14.694 10.0006 14.6527 10.1794 14.5244 10.3398C14.4098 10.4819 14.2677 10.5461 14.0936 10.5461C13.9515 10.5461 13.8277 10.5002 13.7269 10.3902C13.6261 10.2848 13.5711 10.1611 13.5573 10.0144L13.2777 7.79606L14.1577 7.78231ZM7.81897 7.79606H8.72189L8.4423 10.0144C8.3873 10.3765 8.20855 10.5461 7.90605 10.5461C7.71814 10.5461 7.57605 10.4819 7.47522 10.3398C7.34689 10.1794 7.30564 10.0006 7.34689 9.80356L7.81897 7.79606ZM9.64772 7.79606H10.5415V9.95023C10.5415 10.1106 10.4911 10.2481 10.3765 10.3719C10.2619 10.4911 10.1198 10.5461 9.94564 10.5461C9.7898 10.5461 9.65689 10.4911 9.55147 10.3581C9.44605 10.2252 9.39564 10.0877 9.39564 9.93189V9.85856L9.64772 7.79606ZM11.4581 7.79606H12.3519L12.604 9.85856C12.6406 10.0511 12.604 10.2115 12.4711 10.349C12.3519 10.4865 12.1961 10.5461 12.0081 10.5461C11.8661 10.5461 11.7377 10.4911 11.6231 10.3719C11.5086 10.2481 11.4581 10.1106 11.4581 9.95023V7.79606ZM6.8748 11.9348V14.2127C6.8748 14.7215 7.28272 15.1294 7.79147 15.1294C9.93189 15.1294 12.0677 15.1294 14.2081 15.1294C14.7123 15.1294 15.1248 14.7215 15.1248 14.2127V11.944C14.8727 12.2098 14.5519 12.3611 14.2081 12.3794C13.7498 12.3931 13.4061 12.2602 13.0806 11.944C12.8056 12.219 12.439 12.3794 12.054 12.3794C11.6415 12.3794 11.2748 12.2144 10.9998 11.9531C10.7386 12.2144 10.3811 12.3794 9.9823 12.3794C9.56522 12.3794 9.19855 12.219 8.92355 11.944C8.65772 12.2144 8.29564 12.3794 7.89689 12.3794C7.48439 12.3794 7.1773 12.219 6.8748 11.9348Z" fill="#FFA940"/>
</svg>
