<svg width="22" height="23" viewBox="0 0 22 23" fill="none" xmlns="http://www.w3.org/2000/svg">
<path d="M22 11.5515C22 17.6266 17.0751 22.5515 11 22.5515C4.92487 22.5515 0 17.6266 0 11.5515C0 5.47638 4.92487 0.551514 11 0.551514C17.0751 0.551514 22 5.47638 22 11.5515Z" fill="#183B7F"/>
<path fill-rule="evenodd" clip-rule="evenodd" d="M11 21.1765C16.3157 21.1765 20.625 16.8673 20.625 11.5515C20.625 6.23577 16.3157 1.92651 11 1.92651C5.68426 1.92651 1.375 6.23577 1.375 11.5515C1.375 16.8673 5.68426 21.1765 11 21.1765ZM11 22.5515C17.0751 22.5515 22 17.6266 22 11.5515C22 5.47638 17.0751 0.551514 11 0.551514C4.92487 0.551514 0 5.47638 0 11.5515C0 17.6266 4.92487 22.5515 11 22.5515Z" fill="white"/>
<g clip-path="url(#clip0_1211_490392)">
<path d="M13.2915 14.7598H8.70817V8.3431H13.2915V14.7598ZM13.2915 6.50977H8.70817C8.19942 6.50977 7.7915 6.91768 7.7915 7.42643V15.6764C7.7915 15.9195 7.88808 16.1527 8.05999 16.3246C8.2319 16.4965 8.46506 16.5931 8.70817 16.5931H13.2915C13.5346 16.5931 13.7678 16.4965 13.9397 16.3246C14.1116 16.1527 14.2082 15.9195 14.2082 15.6764V7.42643C14.2082 6.91768 13.7957 6.50977 13.2915 6.50977Z" fill="#FFA940"/>
</g>
<defs>
<clipPath id="clip0_1211_490392">
<rect width="11" height="11" fill="white" transform="translate(5.5 6.05151)"/>
</clipPath>
</defs>
</svg>
