<svg width="22" height="23" viewBox="0 0 22 23" fill="none" xmlns="http://www.w3.org/2000/svg">
<path d="M22 11.5981C22 17.6733 17.0751 22.5981 11 22.5981C4.92487 22.5981 0 17.6733 0 11.5981C0 5.52301 4.92487 0.598145 11 0.598145C17.0751 0.598145 22 5.52301 22 11.5981Z" fill="#183B7F"/>
<path fill-rule="evenodd" clip-rule="evenodd" d="M11 21.2231C16.3157 21.2231 20.625 16.9139 20.625 11.5981C20.625 6.2824 16.3157 1.97314 11 1.97314C5.68426 1.97314 1.375 6.2824 1.375 11.5981C1.375 16.9139 5.68426 21.2231 11 21.2231ZM11 22.5981C17.0751 22.5981 22 17.6733 22 11.5981C22 5.52301 17.0751 0.598145 11 0.598145C4.92487 0.598145 0 5.52301 0 11.5981C0 17.6733 4.92487 22.5981 11 22.5981Z" fill="white"/>
<g clip-path="url(#clip0_1211_485313)">
<path d="M16.5 9.3064C16.5 8.80223 15.5833 7.9314 15.5833 7.9314C15.5833 7.9314 14.6667 8.80223 14.6667 9.3064C14.6667 9.62723 14.85 9.94806 15.125 10.0856V12.0564H14.2083V11.1397C14.2083 10.7272 13.8875 10.3606 13.5208 10.2689C13.6583 9.9939 13.75 9.7189 13.75 9.35223C13.75 8.7564 13.475 8.2064 12.9708 7.88556L11 6.5564L9.02917 7.83973C8.57083 8.2064 8.25 8.7564 8.25 9.35223C8.25 9.67306 8.34167 9.9939 8.525 10.2689C8.1125 10.3606 7.79167 10.7272 7.79167 11.1397V12.0564H6.875V10.0856C7.15 9.94806 7.33333 9.62723 7.33333 9.3064C7.33333 8.80223 6.41667 7.9314 6.41667 7.9314C6.41667 7.9314 5.5 8.80223 5.5 9.3064C5.5 9.62723 5.68333 9.94806 5.95833 10.0856V15.7231H10.5417V13.8897C10.5417 13.6606 10.725 13.4314 11 13.4314C11.275 13.4314 11.4583 13.6606 11.4583 13.8897V15.7231H16.0417V10.0856C16.3167 9.94806 16.5 9.62723 16.5 9.3064ZM9.57917 8.6189L11 7.6564L12.4208 8.6189C12.6958 8.80223 12.8333 9.0314 12.8333 9.35223C12.8333 9.81056 12.4208 10.2231 11.9625 10.2231H10.0375C9.57917 10.2231 9.16667 9.81056 9.16667 9.35223C9.16667 9.0314 9.30417 8.80223 9.57917 8.6189ZM15.125 14.8064H12.375V13.8897C12.375 13.1564 11.7333 12.5147 11 12.5147C10.2667 12.5147 9.625 13.1564 9.625 13.8897V14.8064H6.875V12.9731H8.70833V11.1397H13.2917V12.9731H15.125V14.8064Z" fill="#FFA940"/>
</g>
<defs>
<clipPath id="clip0_1211_485313">
<rect width="11" height="11" fill="white" transform="translate(5.5 6.09814)"/>
</clipPath>
</defs>
</svg>
