<svg width="22" height="23" viewBox="0 0 22 23" fill="none" xmlns="http://www.w3.org/2000/svg">
<path d="M22 11.3247C22 17.3998 17.0751 22.3247 11 22.3247C4.92487 22.3247 0 17.3998 0 11.3247C0 5.24958 4.92487 0.324707 11 0.324707C17.0751 0.324707 22 5.24958 22 11.3247Z" fill="#183B7F"/>
<path fill-rule="evenodd" clip-rule="evenodd" d="M11 20.9497C16.3157 20.9497 20.625 16.6404 20.625 11.3247C20.625 6.00897 16.3157 1.69971 11 1.69971C5.68426 1.69971 1.375 6.00897 1.375 11.3247C1.375 16.6404 5.68426 20.9497 11 20.9497ZM11 22.3247C17.0751 22.3247 22 17.3998 22 11.3247C22 5.24958 17.0751 0.324707 11 0.324707C4.92487 0.324707 0 5.24958 0 11.3247C0 17.3998 4.92487 22.3247 11 22.3247Z" fill="white"/>
<path d="M14.1054 10.1789L11.808 7.88721H9.28141V9.03304H11.3382L12.484 10.1789H7.84912C6.41683 10.1789 5.271 11.3247 5.271 12.757C5.271 14.1893 6.41683 15.3351 7.84912 15.3351C9.121 15.3351 10.1752 14.407 10.3814 13.1981L11.596 12.4705C11.5731 12.5679 11.5731 12.6596 11.5731 12.757C11.5731 14.1893 12.7189 15.3351 14.1512 15.3351C15.5835 15.3351 16.7293 14.1893 16.7293 12.757C16.7293 11.3247 15.5835 10.1789 14.1512 10.1789H14.1054ZM9.18975 13.1924C8.99495 13.7711 8.46787 14.1893 7.83193 14.1893C7.04131 14.1893 6.39964 13.5476 6.39964 12.757C6.39964 11.9664 7.04131 11.3247 7.83193 11.3247C8.4736 11.3247 8.99495 11.7487 9.18975 12.3273H7.56266V13.1867L9.18975 13.1924ZM14.134 14.1893C13.3434 14.1893 12.7017 13.5476 12.7017 12.757C12.7017 11.9664 13.3434 11.3247 14.134 11.3247C14.5139 11.3247 14.8782 11.4756 15.1468 11.7442C15.4154 12.0128 15.5663 12.3771 15.5663 12.757C15.5663 13.1369 15.4154 13.5012 15.1468 13.7698C14.8782 14.0384 14.5139 14.1893 14.134 14.1893Z" fill="#FFA940"/>
</svg>
