<svg width="22" height="23" viewBox="0 0 22 23" fill="none" xmlns="http://www.w3.org/2000/svg">
<path d="M22 11.6531C22 17.7282 17.0751 22.6531 11 22.6531C4.92487 22.6531 0 17.7282 0 11.6531C0 5.57794 4.92487 0.653076 11 0.653076C17.0751 0.653076 22 5.57794 22 11.6531Z" fill="#183B7F"/>
<path fill-rule="evenodd" clip-rule="evenodd" d="M11 21.2781C16.3157 21.2781 20.625 16.9688 20.625 11.6531C20.625 6.33734 16.3157 2.02808 11 2.02808C5.68426 2.02808 1.375 6.33734 1.375 11.6531C1.375 16.9688 5.68426 21.2781 11 21.2781ZM11 22.6531C17.0751 22.6531 22 17.7282 22 11.6531C22 5.57794 17.0751 0.653076 11 0.653076C4.92487 0.653076 0 5.57794 0 11.6531C0 17.7282 4.92487 22.6531 11 22.6531Z" fill="white"/>
<g clip-path="url(#clip0_1211_491695)">
<path d="M12.1457 8.21558L9.99723 11.0802L11.63 13.2572L10.7134 13.9447C9.74515 12.6557 8.13525 10.5072 8.13525 10.5072L4.69775 15.0906H17.3019L12.1457 8.21558Z" fill="#FFA940"/>
</g>
<defs>
<clipPath id="clip0_1211_491695">
<rect width="13.75" height="13.75" fill="white" transform="translate(4.125 4.77808)"/>
</clipPath>
</defs>
</svg>
