<svg width="22" height="23" viewBox="0 0 22 23" fill="none" xmlns="http://www.w3.org/2000/svg">
<path d="M22 11.8013C22 17.8764 17.0751 22.8013 11 22.8013C4.92487 22.8013 0 17.8764 0 11.8013C0 5.72614 4.92487 0.80127 11 0.80127C17.0751 0.80127 22 5.72614 22 11.8013Z" fill="#183B7F"/>
<path fill-rule="evenodd" clip-rule="evenodd" d="M11 21.4263C16.3157 21.4263 20.625 17.117 20.625 11.8013C20.625 6.48553 16.3157 2.17627 11 2.17627C5.68426 2.17627 1.375 6.48553 1.375 11.8013C1.375 17.117 5.68426 21.4263 11 21.4263ZM11 22.8013C17.0751 22.8013 22 17.8764 22 11.8013C22 5.72614 17.0751 0.80127 11 0.80127C4.92487 0.80127 0 5.72614 0 11.8013C0 17.8764 4.92487 22.8013 11 22.8013Z" fill="white"/>
<g clip-path="url(#clip0_1211_493459)">
<path d="M7.3335 13.1761H8.25016C8.49328 13.1761 8.72644 13.2727 8.89834 13.4446C9.07025 13.6165 9.16683 13.8497 9.16683 14.0928V15.0094H9.62516V14.0928C9.62516 13.8497 9.72174 13.6165 9.89365 13.4446C10.0656 13.2727 10.2987 13.1761 10.5418 13.1761H11.4585C11.7016 13.1761 11.9348 13.2727 12.1067 13.4446C12.2786 13.6165 12.3752 13.8497 12.3752 14.0928V15.0094H12.8335V14.0928C12.8335 13.8497 12.9301 13.6165 13.102 13.4446C13.2739 13.2727 13.507 13.1761 13.7502 13.1761H14.6668C14.9099 13.1761 15.1431 13.2727 15.315 13.4446C15.4869 13.6165 15.5835 13.8497 15.5835 14.0928V15.0094H16.0418V16.3844H5.9585V15.0094H6.41683V14.0928C6.41683 13.8497 6.51341 13.6165 6.68531 13.4446C6.85722 13.2727 7.09038 13.1761 7.3335 13.1761ZM10.5418 9.50944L12.3752 10.8844L10.5418 12.2594V9.50944ZM7.3335 7.21777H14.6668C14.9099 7.21777 15.1431 7.31435 15.315 7.48626C15.4869 7.65817 15.5835 7.89132 15.5835 8.13444V12.5069C15.3131 12.3465 15.0014 12.2594 14.6668 12.2594V8.13444H7.3335V12.2594C6.99891 12.2594 6.68725 12.3465 6.41683 12.5069V8.13444C6.41683 7.89132 6.51341 7.65817 6.68531 7.48626C6.85722 7.31435 7.09038 7.21777 7.3335 7.21777Z" fill="#FFA940"/>
</g>
<defs>
<clipPath id="clip0_1211_493459">
<rect width="11" height="11" fill="white" transform="translate(5.5 6.30127)"/>
</clipPath>
</defs>
</svg>
