<svg width="22" height="23" viewBox="0 0 22 23" fill="none" xmlns="http://www.w3.org/2000/svg">
<path d="M22 11.2935C22 17.3686 17.0751 22.2935 11 22.2935C4.92487 22.2935 0 17.3686 0 11.2935C0 5.21833 4.92487 0.293457 11 0.293457C17.0751 0.293457 22 5.21833 22 11.2935Z" fill="#183B7F"/>
<path fill-rule="evenodd" clip-rule="evenodd" d="M11 20.9185C16.3157 20.9185 20.625 16.6092 20.625 11.2935C20.625 5.97772 16.3157 1.66846 11 1.66846C5.68426 1.66846 1.375 5.97772 1.375 11.2935C1.375 16.6092 5.68426 20.9185 11 20.9185ZM11 22.2935C17.0751 22.2935 22 17.3686 22 11.2935C22 5.21833 17.0751 0.293457 11 0.293457C4.92487 0.293457 0 5.21833 0 11.2935C0 17.3686 4.92487 22.2935 11 22.2935Z" fill="white"/>
<path d="M14.9136 6.65283H16.1562V7.68408H15.3364L13.1502 9.87033C12.9594 9.58158 12.7119 9.33408 12.4231 9.1433L14.9136 6.65283ZM11 9.23096C11.547 9.23096 12.0716 9.44826 12.4584 9.83505C12.8452 10.2218 13.0625 10.7464 13.0625 11.2935C13.0625 12.2319 12.4283 13.0569 11.5156 13.2889V13.356C11.5156 14.0397 11.244 14.6955 10.7605 15.179C10.277 15.6625 9.62126 15.9341 8.9375 15.9341C8.25374 15.9341 7.59798 15.6625 7.11449 15.179C6.631 14.6955 6.35938 14.0397 6.35938 13.356C6.35938 12.6722 6.631 12.0164 7.11449 11.5329C7.59798 11.0495 8.25374 10.7778 8.9375 10.7778H9.00453C9.23656 9.87033 10.0564 9.23096 11 9.23096ZM11 10.52C10.7949 10.52 10.5981 10.6015 10.4531 10.7466C10.308 10.8916 10.2266 11.0883 10.2266 11.2935C10.2266 11.4986 10.308 11.6953 10.4531 11.8404C10.5981 11.9854 10.7949 12.0669 11 12.0669C11.2051 12.0669 11.4019 11.9854 11.5469 11.8404C11.692 11.6953 11.7734 11.4986 11.7734 11.2935C11.7734 11.0883 11.692 10.8916 11.5469 10.7466C11.4019 10.6015 11.2051 10.52 11 10.52ZM8.39094 12.4485L8.02484 12.8094L9.48406 14.2686L9.85016 13.9025L8.39094 12.4485Z" fill="#FFA940"/>
</svg>
