<svg width="22" height="23" viewBox="0 0 22 23" fill="none" xmlns="http://www.w3.org/2000/svg">
<path d="M22 11.6531C22 17.7282 17.0751 22.6531 11 22.6531C4.92487 22.6531 0 17.7282 0 11.6531C0 5.57794 4.92487 0.653076 11 0.653076C17.0751 0.653076 22 5.57794 22 11.6531Z" fill="#183B7F"/>
<path fill-rule="evenodd" clip-rule="evenodd" d="M11 21.2781C16.3157 21.2781 20.625 16.9688 20.625 11.6531C20.625 6.33734 16.3157 2.02808 11 2.02808C5.68426 2.02808 1.375 6.33734 1.375 11.6531C1.375 16.9688 5.68426 21.2781 11 21.2781ZM11 22.6531C17.0751 22.6531 22 17.7282 22 11.6531C22 5.57794 17.0751 0.653076 11 0.653076C4.92487 0.653076 0 5.57794 0 11.6531C0 17.7282 4.92487 22.6531 11 22.6531Z" fill="white"/>
<g clip-path="url(#clip0_1211_491698)">
<path d="M12.8333 11.6532L9.625 7.06982L6.41667 11.6532H7.26917L5.5 14.4032H8.70833V16.2365H10.5417V14.4032H13.75L11.9808 11.6532H12.8333ZM14.7308 11.6532H15.5833L12.375 7.06982L11.2796 8.63274L13.7133 12.1115H12.8196L14.2954 14.4032H16.5L14.7308 11.6532ZM11.4583 14.8615H13.2917V16.2365H11.4583V14.8615Z" fill="#FFA940"/>
</g>
<defs>
<clipPath id="clip0_1211_491698">
<rect width="11" height="11" fill="white" transform="translate(5.5 6.15308)"/>
</clipPath>
</defs>
</svg>
