<svg width="22" height="23" viewBox="0 0 22 23" fill="none" xmlns="http://www.w3.org/2000/svg">
<path d="M22 11.3247C22 17.3998 17.0751 22.3247 11 22.3247C4.92487 22.3247 0 17.3998 0 11.3247C0 5.24958 4.92487 0.324707 11 0.324707C17.0751 0.324707 22 5.24958 22 11.3247Z" fill="#183B7F"/>
<path fill-rule="evenodd" clip-rule="evenodd" d="M11 20.9497C16.3157 20.9497 20.625 16.6404 20.625 11.3247C20.625 6.00897 16.3157 1.69971 11 1.69971C5.68426 1.69971 1.375 6.00897 1.375 11.3247C1.375 16.6404 5.68426 20.9497 11 20.9497ZM11 22.3247C17.0751 22.3247 22 17.3998 22 11.3247C22 5.24958 17.0751 0.324707 11 0.324707C4.92487 0.324707 0 5.24958 0 11.3247C0 17.3998 4.92487 22.3247 11 22.3247Z" fill="white"/>
<path d="M11.6187 10.8091H9.96875V8.74658H11.6187C11.8923 8.74658 12.1546 8.85523 12.348 9.04863C12.5414 9.24202 12.65 9.50433 12.65 9.77783C12.65 10.0513 12.5414 10.3136 12.348 10.507C12.1546 10.7004 11.8923 10.8091 11.6187 10.8091ZM11.5156 6.68408H7.90625V15.9653H9.96875V12.8716H11.5156C12.3361 12.8716 13.123 12.5456 13.7032 11.9654C14.2834 11.3853 14.6094 10.5983 14.6094 9.77783C14.6094 8.06596 13.2223 6.68408 11.5156 6.68408Z" fill="#FFA940"/>
</svg>
