<svg width="23" height="23" viewBox="0 0 23 23" fill="none" xmlns="http://www.w3.org/2000/svg">
<path d="M22.123 11.0945C22.123 17.1696 17.1982 22.0945 11.123 22.0945C5.04791 22.0945 0.123047 17.1696 0.123047 11.0945C0.123047 5.01935 5.04791 0.0944824 11.123 0.0944824C17.1982 0.0944824 22.123 5.01935 22.123 11.0945Z" fill="#183B7F"/>
<path fill-rule="evenodd" clip-rule="evenodd" d="M11.123 20.7195C16.4388 20.7195 20.748 16.4102 20.748 11.0945C20.748 5.77874 16.4388 1.46948 11.123 1.46948C5.80731 1.46948 1.49805 5.77874 1.49805 11.0945C1.49805 16.4102 5.80731 20.7195 11.123 20.7195ZM11.123 22.0945C17.1982 22.0945 22.123 17.1696 22.123 11.0945C22.123 5.01935 17.1982 0.0944824 11.123 0.0944824C5.04791 0.0944824 0.123047 5.01935 0.123047 11.0945C0.123047 17.1696 5.04791 22.0945 11.123 22.0945Z" fill="white"/>
<path d="M13.8732 10.1778C13.7517 10.1778 13.6351 10.1295 13.5491 10.0436C13.4632 9.95762 13.4149 9.84104 13.4149 9.71948C13.4149 9.59792 13.4632 9.48135 13.5491 9.39539C13.6351 9.30944 13.7517 9.26115 13.8732 9.26115C13.9948 9.26115 14.1113 9.30944 14.1973 9.39539C14.2833 9.48135 14.3315 9.59792 14.3315 9.71948C14.3315 9.84104 14.2833 9.95762 14.1973 10.0436C14.1113 10.1295 13.9948 10.1778 13.8732 10.1778ZM11.1232 10.1778H8.37321V7.88615H11.1232V10.1778ZM14.6845 8.90823L14.689 8.90365L12.984 7.19865L12.4982 7.68448L13.4653 8.65157C13.0345 8.80282 12.7274 9.22907 12.7274 9.71948C12.7274 9.86996 12.757 10.019 12.8146 10.158C12.8722 10.297 12.9566 10.4233 13.063 10.5297C13.2779 10.7446 13.5693 10.8653 13.8732 10.8653C14.0382 10.8653 14.1895 10.8286 14.3315 10.7691V14.0736C14.3315 14.1952 14.2833 14.3118 14.1973 14.3977C14.1113 14.4837 13.9948 14.532 13.8732 14.532C13.7517 14.532 13.6351 14.4837 13.5491 14.3977C13.4632 14.3118 13.4149 14.1952 13.4149 14.0736V12.0111C13.4149 11.5024 13.0024 11.0945 12.4982 11.0945H12.0399V7.88615C12.0399 7.3774 11.6274 6.96948 11.1232 6.96948H8.37321C7.86446 6.96948 7.45654 7.3774 7.45654 7.88615V15.2195H12.0399V11.782H12.7274V14.0736C12.7274 14.3775 12.8481 14.669 13.063 14.8839C13.2779 15.0988 13.5693 15.2195 13.8732 15.2195C14.0237 15.2195 14.1727 15.1898 14.3117 15.1323C14.4507 15.0747 14.577 14.9903 14.6834 14.8839C14.7898 14.7775 14.8742 14.6512 14.9318 14.5121C14.9894 14.3731 15.019 14.2241 15.019 14.0736V9.71948C15.019 9.40323 14.8907 9.11448 14.6845 8.90823Z" fill="#FFA940"/>
</svg>
