<svg width="22" height="23" viewBox="0 0 22 23" fill="none" xmlns="http://www.w3.org/2000/svg">
<path d="M22 11.5981C22 17.6733 17.0751 22.5981 11 22.5981C4.92487 22.5981 0 17.6733 0 11.5981C0 5.52301 4.92487 0.598145 11 0.598145C17.0751 0.598145 22 5.52301 22 11.5981Z" fill="#183B7F"/>
<path fill-rule="evenodd" clip-rule="evenodd" d="M11 21.2231C16.3157 21.2231 20.625 16.9139 20.625 11.5981C20.625 6.2824 16.3157 1.97314 11 1.97314C5.68426 1.97314 1.375 6.2824 1.375 11.5981C1.375 16.9139 5.68426 21.2231 11 21.2231ZM11 22.5981C17.0751 22.5981 22 17.6733 22 11.5981C22 5.52301 17.0751 0.598145 11 0.598145C4.92487 0.598145 0 5.52301 0 11.5981C0 17.6733 4.92487 22.5981 11 22.5981Z" fill="white"/>
<path d="M7.43426 11.2728L10.6747 8.0324C11.7518 6.9599 13.4888 6.9599 14.5659 8.0324C15.6384 9.1049 15.6384 10.8466 14.5659 11.9237L11.3255 15.1641C10.2484 16.2366 8.50676 16.2366 7.43426 15.1641C6.36176 14.087 6.36176 12.3499 7.43426 11.2728ZM8.08509 11.9237C7.60384 12.4003 7.44342 13.0832 7.60842 13.6928L10.3538 10.952L12.2972 12.8953L13.9151 11.2728C14.6347 10.5578 14.6347 9.39824 13.9151 8.68324C13.2001 7.96365 12.0405 7.96365 11.3255 8.68324L8.08509 11.9237Z" fill="#FFA940"/>
</svg>
