<svg width="22" height="23" viewBox="0 0 22 23" fill="none" xmlns="http://www.w3.org/2000/svg">
<path d="M22 11.5513C22 17.6264 17.0751 22.5513 11 22.5513C4.92487 22.5513 0 17.6264 0 11.5513C0 5.47614 4.92487 0.55127 11 0.55127C17.0751 0.55127 22 5.47614 22 11.5513Z" fill="#183B7F"/>
<path fill-rule="evenodd" clip-rule="evenodd" d="M11 21.1763C16.3157 21.1763 20.625 16.867 20.625 11.5513C20.625 6.23553 16.3157 1.92627 11 1.92627C5.68426 1.92627 1.375 6.23553 1.375 11.5513C1.375 16.867 5.68426 21.1763 11 21.1763ZM11 22.5513C17.0751 22.5513 22 17.6264 22 11.5513C22 5.47614 17.0751 0.55127 11 0.55127C4.92487 0.55127 0 5.47614 0 11.5513C0 17.6264 4.92487 22.5513 11 22.5513Z" fill="white"/>
<path d="M15.125 14.645C14.4031 14.645 13.6813 14.3872 13.0625 13.9747C11.825 14.8513 10.175 14.8513 8.9375 13.9747C8.31875 14.3872 7.59687 14.645 6.875 14.645H5.84375V15.6763H6.875C7.59687 15.6763 8.26719 15.47 8.9375 15.1606C10.2266 15.831 11.7734 15.831 13.0625 15.1606C13.7328 15.47 14.4031 15.6763 15.125 15.6763H16.1562V14.645H15.125ZM15.125 12.0669H14.6094V14.0778C14.2484 14.0263 13.8875 13.9231 13.5781 13.7169V12.0669H11V14.1294C10.6391 14.1294 10.3297 14.0778 9.96875 13.9747V12.0669H7.39062V14.0778C7.23594 14.1294 7.02969 14.1294 6.875 14.1294H6.35938V12.0669H5.84375V11.0356H6.35938V10.0044H7.39062V11.0356H9.96875V10.0044H11V11.0356H13.5781V10.0044H14.6094V11.0356H15.125V12.0669Z" fill="#FFA940"/>
</svg>
