<svg width="22" height="23" viewBox="0 0 22 23" fill="none" xmlns="http://www.w3.org/2000/svg">
<path d="M22 11.2466C22 17.3217 17.0751 22.2466 11 22.2466C4.92487 22.2466 0 17.3217 0 11.2466C0 5.17145 4.92487 0.246582 11 0.246582C17.0751 0.246582 22 5.17145 22 11.2466Z" fill="#183B7F"/>
<path fill-rule="evenodd" clip-rule="evenodd" d="M11 20.8716C16.3157 20.8716 20.625 16.5623 20.625 11.2466C20.625 5.93084 16.3157 1.62158 11 1.62158C5.68426 1.62158 1.375 5.93084 1.375 11.2466C1.375 16.5623 5.68426 20.8716 11 20.8716ZM11 22.2466C17.0751 22.2466 22 17.3217 22 11.2466C22 5.17145 17.0751 0.246582 11 0.246582C4.92487 0.246582 0 5.17145 0 11.2466C0 17.3217 4.92487 22.2466 11 22.2466Z" fill="white"/>
<path d="M15.5832 7.57975L14.6665 6.66309C14.1394 6.95642 13.4748 7.12142 12.8332 7.12142C12.1915 7.12142 11.5223 6.95184 10.9998 6.66309C10.4773 6.95184 9.80817 7.12142 9.1665 7.12142C8.52484 7.12142 7.86025 6.95642 7.33317 6.66309L6.4165 7.57975C6.4165 7.57975 7.33317 8.49642 7.33317 9.41309C7.33317 10.3298 6.4165 12.1631 6.4165 13.0798C6.4165 14.9131 10.9998 15.8298 10.9998 15.8298C10.9998 15.8298 15.5832 14.9131 15.5832 13.0798C15.5832 12.1631 14.6665 10.3298 14.6665 9.41309C14.6665 8.49642 15.5832 7.57975 15.5832 7.57975ZM12.3978 13.286L10.9861 12.4335L9.579 13.286L9.95484 11.6818L8.70817 10.6093L10.349 10.4673L10.9861 8.95475L11.6278 10.4627L13.2686 10.6048L12.0219 11.6773L12.3978 13.286Z" fill="#FFA940"/>
</svg>
