<svg width="22" height="23" viewBox="0 0 22 23" fill="none" xmlns="http://www.w3.org/2000/svg">
<path d="M22 11.0044C22 17.0795 17.0751 22.0044 11 22.0044C4.92487 22.0044 0 17.0795 0 11.0044C0 4.92926 4.92487 0.00439453 11 0.00439453C17.0751 0.00439453 22 4.92926 22 11.0044Z" fill="#183B7F"/>
<path fill-rule="evenodd" clip-rule="evenodd" d="M11 20.6294C16.3157 20.6294 20.625 16.3201 20.625 11.0044C20.625 5.68865 16.3157 1.37939 11 1.37939C5.68426 1.37939 1.375 5.68865 1.375 11.0044C1.375 16.3201 5.68426 20.6294 11 20.6294ZM11 22.0044C17.0751 22.0044 22 17.0795 22 11.0044C22 4.92926 17.0751 0.00439453 11 0.00439453C4.92487 0.00439453 0 4.92926 0 11.0044C0 17.0795 4.92487 22.0044 11 22.0044Z" fill="white"/>
<path d="M9.85433 15.5877V12.1502H12.146V15.5877H15.0106V11.0044H16.7293L11.0002 5.84814L5.271 11.0044H6.98975V15.5877H9.85433Z" fill="#FFA940"/>
</svg>
