<svg width="22" height="23" viewBox="0 0 22 23" fill="none" xmlns="http://www.w3.org/2000/svg">
<path d="M22 11.0356C22 17.1108 17.0751 22.0356 11 22.0356C4.92487 22.0356 0 17.1108 0 11.0356C0 4.96051 4.92487 0.0356445 11 0.0356445C17.0751 0.0356445 22 4.96051 22 11.0356Z" fill="#183B7F"/>
<path fill-rule="evenodd" clip-rule="evenodd" d="M11 20.6606C16.3157 20.6606 20.625 16.3514 20.625 11.0356C20.625 5.7199 16.3157 1.41064 11 1.41064C5.68426 1.41064 1.375 5.7199 1.375 11.0356C1.375 16.3514 5.68426 20.6606 11 20.6606ZM11 22.0356C17.0751 22.0356 22 17.1108 22 11.0356C22 4.96051 17.0751 0.0356445 11 0.0356445C4.92487 0.0356445 0 4.96051 0 11.0356C0 17.1108 4.92487 22.0356 11 22.0356Z" fill="white"/>
<path d="M15.8984 9.48877V8.97314H15.3828L14.8672 9.48877H12.5469L12.0312 8.97314H11.5156L8.42188 11.0356H6.875C6.6015 11.0356 6.33919 11.1443 6.1458 11.3377C5.9524 11.5311 5.84375 11.7934 5.84375 12.0669V13.0981H9.96875L11.5156 12.5825H12.5469V13.0981H15.8984V12.0669C15.8984 12.0669 16.1562 11.5513 16.1562 10.7778C16.1562 10.0044 15.8984 9.48877 15.8984 9.48877Z" fill="#FFA940"/>
</svg>
