<svg width="23" height="23" viewBox="0 0 23 23" fill="none" xmlns="http://www.w3.org/2000/svg">
<path d="M22.0415 11.6404C22.0415 17.7155 17.1166 22.6404 11.0415 22.6404C4.96637 22.6404 0.0415039 17.7155 0.0415039 11.6404C0.0415039 5.56525 4.96637 0.640381 11.0415 0.640381C17.1166 0.640381 22.0415 5.56525 22.0415 11.6404Z" fill="#183B7F"/>
<path fill-rule="evenodd" clip-rule="evenodd" d="M11.0415 21.2654C16.3572 21.2654 20.6665 16.9561 20.6665 11.6404C20.6665 6.32464 16.3572 2.01538 11.0415 2.01538C5.72576 2.01538 1.4165 6.32464 1.4165 11.6404C1.4165 16.9561 5.72576 21.2654 11.0415 21.2654ZM11.0415 22.6404C17.1166 22.6404 22.0415 17.7155 22.0415 11.6404C22.0415 5.56525 17.1166 0.640381 11.0415 0.640381C4.96637 0.640381 0.0415039 5.56525 0.0415039 11.6404C0.0415039 17.7155 4.96637 22.6404 11.0415 22.6404Z" fill="white"/>
<g clip-path="url(#clip0_1127_9006)">
<path d="M11.0415 12.156C10.3577 12.156 9.70199 11.8844 9.21849 11.4009C8.735 10.9174 8.46338 10.2616 8.46338 9.57788H9.49463C9.49463 9.98814 9.6576 10.3816 9.9477 10.6717C10.2378 10.9618 10.6312 11.1248 11.0415 11.1248C11.4518 11.1248 11.8452 10.9618 12.1353 10.6717C12.4254 10.3816 12.5884 9.98814 12.5884 9.57788H13.6196C13.6196 10.2616 13.348 10.9174 12.8645 11.4009C12.381 11.8844 11.7253 12.156 11.0415 12.156V12.156ZM11.0415 6.99976C11.4518 6.99976 11.8452 7.16273 12.1353 7.45283C12.4254 7.74292 12.5884 8.13637 12.5884 8.54663H9.49463C9.49463 8.13637 9.6576 7.74292 9.9477 7.45283C10.2378 7.16273 10.6312 6.99976 11.0415 6.99976V6.99976ZM14.6509 8.54663H13.6196C13.6196 8.20807 13.5529 7.87282 13.4234 7.56003C13.2938 7.24723 13.1039 6.96302 12.8645 6.72362C12.6251 6.48422 12.3409 6.29432 12.0281 6.16475C11.7153 6.03519 11.3801 5.96851 11.0415 5.96851C10.3577 5.96851 9.70199 6.24013 9.21849 6.72362C8.735 7.20711 8.46338 7.86287 8.46338 8.54663H7.43213C6.85979 8.54663 6.40088 9.00554 6.40088 9.57788V15.7654C6.40088 16.0389 6.50953 16.3012 6.70292 16.4946C6.89632 16.688 7.15862 16.7966 7.43213 16.7966H14.6509C14.9244 16.7966 15.1867 16.688 15.3801 16.4946C15.5735 16.3012 15.6821 16.0389 15.6821 15.7654V9.57788C15.6821 9.00554 15.2181 8.54663 14.6509 8.54663Z" fill="#FFA940"/>
</g>
<defs>
<clipPath id="clip0_1127_9006">
<rect width="12.375" height="12.375" fill="white" transform="translate(4.854 5.45288)"/>
</clipPath>
</defs>
</svg>
