<svg width="22" height="23" viewBox="0 0 22 23" fill="none" xmlns="http://www.w3.org/2000/svg">
<path d="M22 11.5981C22 17.6733 17.0751 22.5981 11 22.5981C4.92487 22.5981 0 17.6733 0 11.5981C0 5.52301 4.92487 0.598145 11 0.598145C17.0751 0.598145 22 5.52301 22 11.5981Z" fill="#183B7F"/>
<path fill-rule="evenodd" clip-rule="evenodd" d="M11 21.2231C16.3157 21.2231 20.625 16.9139 20.625 11.5981C20.625 6.2824 16.3157 1.97314 11 1.97314C5.68426 1.97314 1.375 6.2824 1.375 11.5981C1.375 16.9139 5.68426 21.2231 11 21.2231ZM11 22.5981C17.0751 22.5981 22 17.6733 22 11.5981C22 5.52301 17.0751 0.598145 11 0.598145C4.92487 0.598145 0 5.52301 0 11.5981C0 17.6733 4.92487 22.5981 11 22.5981Z" fill="white"/>
<path d="M12.8047 10.3761C12.7067 8.93752 12.1241 7.53502 11.0309 6.44189C9.9275 7.54533 9.31906 8.94783 9.19531 10.3761C9.86047 10.7267 10.4689 11.1805 11 11.7322C11.5311 11.1856 12.1395 10.7319 12.8047 10.3761ZM11 13.3771C9.89141 11.6858 7.99906 10.5669 5.84375 10.5669C5.84375 15.7231 10.6494 16.6977 11 16.7544C11.3506 16.6925 16.1562 15.7231 16.1562 10.5669C14.0009 10.5669 12.1086 11.6858 11 13.3771Z" fill="#FFA940"/>
</svg>
