<svg width="22" height="23" viewBox="0 0 22 23" fill="none" xmlns="http://www.w3.org/2000/svg">
<path d="M22 11.0044C22 17.0795 17.0751 22.0044 11 22.0044C4.92487 22.0044 0 17.0795 0 11.0044C0 4.92926 4.92487 0.00439453 11 0.00439453C17.0751 0.00439453 22 4.92926 22 11.0044Z" fill="#183B7F"/>
<path fill-rule="evenodd" clip-rule="evenodd" d="M11 20.6294C16.3157 20.6294 20.625 16.3201 20.625 11.0044C20.625 5.68865 16.3157 1.37939 11 1.37939C5.68426 1.37939 1.375 5.68865 1.375 11.0044C1.375 16.3201 5.68426 20.6294 11 20.6294ZM11 22.0044C17.0751 22.0044 22 17.0795 22 11.0044C22 4.92926 17.0751 0.00439453 11 0.00439453C4.92487 0.00439453 0 4.92926 0 11.0044C0 17.0795 4.92487 22.0044 11 22.0044Z" fill="white"/>
<path d="M6.57234 12.2097C6.84734 12.1089 7.1315 12.0585 7.434 12.0585C8.04817 12.0585 8.58442 12.251 9.04275 12.636L7.60359 14.0751C7.11775 13.5251 6.774 12.8972 6.57234 12.2097ZM12.6315 9.99598C13.5344 10.6697 14.5107 10.8347 15.5557 10.491C15.5694 10.5872 15.5832 10.7614 15.5832 11.0043C15.5832 11.4764 15.4686 12.0035 15.2532 12.5856C15.0378 13.1631 14.7719 13.6306 14.4603 13.9835L11.559 11.0914L12.6315 9.99598ZM9.51942 13.131C10.0053 13.8322 10.1061 14.5976 9.81734 15.4318C9.1665 15.2439 8.58442 14.9506 8.09859 14.5472L9.51942 13.131ZM11.0869 11.5635L13.979 14.4647C12.9844 15.3356 11.8157 15.7022 10.4865 15.5601C10.5828 15.2576 10.6332 14.9276 10.6332 14.5701C10.6332 14.286 10.569 13.9514 10.4407 13.571C10.3123 13.1906 10.1611 12.8789 9.9915 12.636L11.0869 11.5635ZM9.53775 12.1501C9.1115 11.7697 8.6165 11.5314 8.05734 11.4214C7.49817 11.316 6.96192 11.3481 6.444 11.5222C6.43025 11.4214 6.4165 11.2472 6.4165 11.0043C6.4165 10.5322 6.53109 10.0051 6.7465 9.42306C6.96192 8.84556 7.22775 8.37806 7.53942 8.02514L10.5919 11.0914L9.53775 12.1501ZM12.6315 9.04722C12.0173 8.29097 11.8753 7.46597 12.2053 6.57681C12.4894 6.65014 12.8148 6.78764 13.1815 6.99847C13.5436 7.20472 13.8415 7.41097 14.0707 7.60806L12.6315 9.04722ZM15.4273 9.80347C15.1523 9.89972 14.8682 9.95014 14.5657 9.95014C14.0661 9.95014 13.5848 9.80347 13.1265 9.50097L14.5428 8.10306C14.9461 8.60722 15.2394 9.17097 15.4273 9.80347ZM11.0869 10.5964L8.02067 7.54389C9.01525 6.67306 10.184 6.30639 11.5178 6.44847C11.4169 6.75097 11.3665 7.08097 11.3665 7.43847C11.3665 7.76847 11.4398 8.13972 11.5911 8.55681C11.7423 8.96931 11.9165 9.29931 12.1457 9.54222L11.0869 10.5964Z" fill="#FFA940"/>
</svg>
