<svg width="22" height="23" viewBox="0 0 22 23" fill="none" xmlns="http://www.w3.org/2000/svg">
<path d="M22 11.0981C22 17.1733 17.0751 22.0981 11 22.0981C4.92487 22.0981 0 17.1733 0 11.0981C0 5.02301 4.92487 0.0981445 11 0.0981445C17.0751 0.0981445 22 5.02301 22 11.0981Z" fill="#183B7F"/>
<path fill-rule="evenodd" clip-rule="evenodd" d="M11 20.7231C16.3157 20.7231 20.625 16.4139 20.625 11.0981C20.625 5.7824 16.3157 1.47314 11 1.47314C5.68426 1.47314 1.375 5.7824 1.375 11.0981C1.375 16.4139 5.68426 20.7231 11 20.7231ZM11 22.0981C17.0751 22.0981 22 17.1733 22 11.0981C22 5.02301 17.0751 0.0981445 11 0.0981445C4.92487 0.0981445 0 5.02301 0 11.0981C0 17.1733 4.92487 22.0981 11 22.0981Z" fill="white"/>
<path d="M10.9428 5.3689C8.70838 5.3689 6.93234 7.31681 6.98963 9.55119C7.04692 11.0408 7.9063 12.3012 9.10942 12.9314C9.9115 13.3324 10.4271 14.1345 10.4271 14.9939V15.1085C10.4271 16.0824 11.1719 16.8272 12.1459 16.8272C14.4375 16.8272 15.0105 13.9626 15.0105 9.37931C15.0105 9.37931 15.0105 5.3689 10.9428 5.3689ZM12.1459 15.6814C11.8021 15.6814 11.573 15.4522 11.573 15.1085V14.9939C11.573 13.7335 10.8282 12.5304 9.68234 11.9001C8.76567 11.4418 8.19275 10.5251 8.13546 9.4939C8.13546 8.7491 8.42192 7.94702 8.93755 7.3741C9.45317 6.80119 10.198 6.51473 10.8855 6.51473C13.6928 6.51473 13.8646 8.92098 13.8646 9.37931C13.8646 15.0512 12.8907 15.6814 12.1459 15.6814ZM13.1771 8.57723L8.88025 10.1241C8.76567 9.95223 8.70838 9.72306 8.70838 9.4366C8.70838 9.03556 8.82296 8.69181 8.99484 8.29077L11.974 7.20223C12.6615 7.54598 13.0053 8.0616 13.1771 8.57723ZM11.5157 12.8741L13.1198 12.3012C13.0625 13.1606 12.8907 13.7908 12.7761 14.1918L12.0313 14.4783C12.0313 13.9054 11.8594 13.3897 11.5157 12.8741ZM13.2917 9.4939C13.2917 10.1814 13.2917 10.8116 13.2344 11.3272L10.9428 12.1866C10.6563 11.9001 10.3125 11.6137 9.9115 11.4418C9.68234 11.3272 9.45317 11.1554 9.2813 10.9835L13.2917 9.4939Z" fill="#FFA940"/>
</svg>
