<svg width="22" height="23" viewBox="0 0 22 23" fill="none" xmlns="http://www.w3.org/2000/svg">
<path d="M22 11.4575C22 17.5327 17.0751 22.4575 11 22.4575C4.92487 22.4575 0 17.5327 0 11.4575C0 5.38239 4.92487 0.45752 11 0.45752C17.0751 0.45752 22 5.38239 22 11.4575Z" fill="#183B7F"/>
<path fill-rule="evenodd" clip-rule="evenodd" d="M11 21.0825C16.3157 21.0825 20.625 16.7733 20.625 11.4575C20.625 6.14178 16.3157 1.83252 11 1.83252C5.68426 1.83252 1.375 6.14178 1.375 11.4575C1.375 16.7733 5.68426 21.0825 11 21.0825ZM11 22.4575C17.0751 22.4575 22 17.5327 22 11.4575C22 5.38239 17.0751 0.45752 11 0.45752C4.92487 0.45752 0 5.38239 0 11.4575C0 17.5327 4.92487 22.4575 11 22.4575Z" fill="white"/>
<g clip-path="url(#clip0_1211_490401)">
<path d="M14.2085 15.1243C14.2085 15.633 13.8006 16.0409 13.2918 16.0409C12.7831 16.0409 12.3752 15.6284 12.3752 15.1243C12.3752 14.6155 12.7831 14.2076 13.2918 14.2076C13.8006 14.2076 14.2085 14.6201 14.2085 15.1243ZM8.7085 14.2076C8.19975 14.2076 7.79183 14.6155 7.79183 15.1243C7.79183 15.6284 8.19975 16.0409 8.7085 16.0409C9.21725 16.0409 9.62516 15.633 9.62516 15.1243C9.62516 14.6155 9.21725 14.2076 8.7085 14.2076ZM8.80016 12.663L8.78641 12.718C8.78641 12.7822 8.83683 12.8326 8.901 12.8326H14.2085V13.7493H8.7085C8.19975 13.7493 7.79183 13.3368 7.79183 12.8326C7.79183 12.6722 7.83308 12.5209 7.90183 12.3926L8.52516 11.2697L6.87516 7.79093H5.9585V6.87427H7.45725L7.88808 7.79093H14.6668C14.9189 7.79093 15.1252 7.99718 15.1252 8.24927C15.1252 8.32718 15.1022 8.4051 15.0702 8.47843L13.4293 11.4439C13.2735 11.7234 12.971 11.9159 12.6272 11.9159H9.21266L8.80016 12.663ZM9.396 10.9993H10.0835V10.0826H8.96516L9.396 10.9993ZM10.5418 10.0826V10.9993H11.9168V10.0826H10.5418ZM11.9168 9.62427V8.7076H10.5418V9.62427H11.9168ZM13.3422 10.0826H12.3752V10.9993H12.8335L13.3422 10.0826ZM14.1077 8.7076H12.3752V9.62427H13.5989L14.1077 8.7076ZM8.31433 8.7076L8.74516 9.62427H10.0835V8.7076H8.31433Z" fill="#FFA940"/>
</g>
<defs>
<clipPath id="clip0_1211_490401">
<rect width="11" height="11" fill="white" transform="translate(5.5 5.95752)"/>
</clipPath>
</defs>
</svg>
