<svg width="22" height="23" viewBox="0 0 22 23" fill="none" xmlns="http://www.w3.org/2000/svg">
<path d="M22 11.9497C22 18.0248 17.0751 22.9497 11 22.9497C4.92487 22.9497 0 18.0248 0 11.9497C0 5.87458 4.92487 0.949707 11 0.949707C17.0751 0.949707 22 5.87458 22 11.9497Z" fill="#183B7F"/>
<path fill-rule="evenodd" clip-rule="evenodd" d="M11 21.5747C16.3157 21.5747 20.625 17.2654 20.625 11.9497C20.625 6.63397 16.3157 2.32471 11 2.32471C5.68426 2.32471 1.375 6.63397 1.375 11.9497C1.375 17.2654 5.68426 21.5747 11 21.5747ZM11 22.9497C17.0751 22.9497 22 18.0248 22 11.9497C22 5.87458 17.0751 0.949707 11 0.949707C4.92487 0.949707 0 5.87458 0 11.9497C0 18.0248 4.92487 22.9497 11 22.9497Z" fill="white"/>
<path d="M6.4165 13.3245C7.18192 12.9808 7.94275 12.637 8.70817 12.4858V8.74121C8.70817 8.37654 8.85304 8.0268 9.1109 7.76894C9.36876 7.51108 9.7185 7.36621 10.0832 7.36621C10.6836 7.36621 11.1923 7.74663 11.3803 8.28288H10.0832C9.96161 8.28288 9.84503 8.33117 9.75908 8.41712C9.67313 8.50307 9.62484 8.61965 9.62484 8.74121V9.19954H11.9165V8.74121C11.9165 8.37654 12.0614 8.0268 12.3192 7.76894C12.5771 7.51108 12.9268 7.36621 13.2915 7.36621C13.8919 7.36621 14.4007 7.74663 14.5886 8.28288H13.2915C13.1699 8.28288 13.0534 8.33117 12.9674 8.41712C12.8815 8.50307 12.8332 8.61965 12.8332 8.74121V13.297C13.7498 13.1504 14.6665 12.4079 15.5832 12.4079V13.3245C14.5657 13.3245 13.5482 14.2412 12.5261 14.2412C11.5086 14.2412 10.4911 13.3245 9.47359 13.3245C8.4515 13.3245 7.434 13.7829 6.4165 14.2412V13.3245ZM11.9165 10.1162H9.62484V11.0329H11.9165V10.1162ZM11.9165 11.9495H9.62484V12.4079C10.3903 12.4812 11.1511 13.0083 11.9165 13.2283V11.9495ZM6.4165 15.1579C7.434 14.6995 8.4515 14.2412 9.47359 14.2412C10.4911 14.2412 11.5086 15.1579 12.5261 15.1579C13.5482 15.1579 14.5657 14.2412 15.5832 14.2412V15.1579C14.5657 15.1579 13.5482 16.0745 12.5261 16.0745C11.5086 16.0745 10.4911 15.1579 9.47359 15.1579C8.4515 15.1579 7.434 15.6162 6.4165 16.0745V15.1579Z" fill="#FFA940"/>
</svg>
