<svg width="22" height="23" viewBox="0 0 22 23" fill="none" xmlns="http://www.w3.org/2000/svg">
<path d="M22 11.8013C22 17.8764 17.0751 22.8013 11 22.8013C4.92487 22.8013 0 17.8764 0 11.8013C0 5.72614 4.92487 0.80127 11 0.80127C17.0751 0.80127 22 5.72614 22 11.8013Z" fill="#183B7F"/>
<path fill-rule="evenodd" clip-rule="evenodd" d="M11 21.4263C16.3157 21.4263 20.625 17.117 20.625 11.8013C20.625 6.48553 16.3157 2.17627 11 2.17627C5.68426 2.17627 1.375 6.48553 1.375 11.8013C1.375 17.117 5.68426 21.4263 11 21.4263ZM11 22.8013C17.0751 22.8013 22 17.8764 22 11.8013C22 5.72614 17.0751 0.80127 11 0.80127C4.92487 0.80127 0 5.72614 0 11.8013C0 17.8764 4.92487 22.8013 11 22.8013Z" fill="white"/>
<path d="M12.6407 14.0014L10.9998 12.9473L9.359 14.0014L9.854 12.1131L8.34609 10.8848L10.294 10.7656L10.9998 8.95977L11.7057 10.7656L13.6536 10.8848L12.1457 12.1131L12.6407 14.0014ZM14.6665 11.8014C14.6665 11.2927 15.079 10.8848 15.5832 10.8848V9.05143C15.5832 8.54268 15.1707 8.13477 14.6665 8.13477H7.33317C7.09006 8.13477 6.8569 8.23134 6.68499 8.40325C6.51308 8.57516 6.4165 8.80832 6.4165 9.05143V10.8848C6.92525 10.8848 7.33317 11.2973 7.33317 11.8014C7.33317 12.0445 7.23659 12.2777 7.06469 12.4496C6.89278 12.6215 6.65962 12.7181 6.4165 12.7181V14.5514C6.4165 14.7945 6.51308 15.0277 6.68499 15.1996C6.8569 15.3715 7.09006 15.4681 7.33317 15.4681H14.6665C14.9096 15.4681 15.1428 15.3715 15.3147 15.1996C15.4866 15.0277 15.5832 14.7945 15.5832 14.5514V12.7181C15.3401 12.7181 15.1069 12.6215 14.935 12.4496C14.7631 12.2777 14.6665 12.0445 14.6665 11.8014Z" fill="#FFA940"/>
</svg>
