<svg width="22" height="23" viewBox="0 0 22 23" fill="none" xmlns="http://www.w3.org/2000/svg">
<path d="M22 11.395C22 17.4702 17.0751 22.395 11 22.395C4.92487 22.395 0 17.4702 0 11.395C0 5.31989 4.92487 0.39502 11 0.39502C17.0751 0.39502 22 5.31989 22 11.395Z" fill="#183B7F"/>
<path fill-rule="evenodd" clip-rule="evenodd" d="M11 21.02C16.3157 21.02 20.625 16.7108 20.625 11.395C20.625 6.07928 16.3157 1.77002 11 1.77002C5.68426 1.77002 1.375 6.07928 1.375 11.395C1.375 16.7108 5.68426 21.02 11 21.02ZM11 22.395C17.0751 22.395 22 17.4702 22 11.395C22 5.31989 17.0751 0.39502 11 0.39502C4.92487 0.39502 0 5.31989 0 11.395C0 17.4702 4.92487 22.395 11 22.395Z" fill="white"/>
<path d="M13.979 13.5951C13.6582 13.5951 13.429 13.3201 13.429 13.0451C13.429 12.7243 13.704 12.4951 13.979 12.4951C14.254 12.4951 14.529 12.7701 14.529 13.0451C14.5748 13.3201 14.2998 13.5951 13.979 13.5951ZM13.979 11.3951C13.1082 11.3951 12.3748 12.1284 12.3748 12.9993C12.3748 14.1909 13.979 15.9784 13.979 15.9784C13.979 15.9784 15.5832 14.1909 15.5832 12.9993C15.5832 12.1284 14.8498 11.3951 13.979 11.3951ZM9.62484 6.81177L8.70817 7.72843H7.33317C6.829 7.72843 6.4165 8.14093 6.4165 8.6451V14.1451C6.4165 14.6493 6.829 15.0618 7.33317 15.0618H12.1457C11.8707 14.6493 11.6415 14.1909 11.504 13.6409C11.3665 13.6868 11.1832 13.6868 10.9998 13.6868C9.7165 13.6868 8.70817 12.6784 8.70817 11.3951C8.70817 10.1118 9.7165 9.10343 10.9998 9.10343C11.9623 9.10343 12.8332 9.69927 13.154 10.6159C13.429 10.5243 13.704 10.4784 13.979 10.4784C14.5748 10.4784 15.1248 10.7076 15.5832 11.0743V8.6451C15.5832 8.14093 15.1707 7.72843 14.6665 7.72843H13.2915L12.3748 6.81177H9.62484ZM10.954 10.0201C10.2207 10.0201 9.62484 10.6618 9.62484 11.3951C9.62484 12.1743 10.2207 12.7701 10.9998 12.7701C11.1832 12.7701 11.3207 12.7243 11.4582 12.6784C11.5498 12.0368 11.8707 11.4868 12.329 11.0743C12.1915 10.4784 11.6415 10.0201 10.954 10.0201C10.9998 10.0201 10.9998 10.0201 10.954 10.0201Z" fill="#FFA940"/>
</svg>
