<svg width="16" height="17" viewBox="0 0 16 17" fill="none" xmlns="http://www.w3.org/2000/svg">
    <path d="M16 8.17981C16 12.5981 12.4183 16.1798 8 16.1798C3.58172 16.1798 0 12.5981 0 8.17981C0 3.76153 3.58172 0.17981 8 0.17981C12.4183 0.17981 16 3.76153 16 8.17981Z" fill="#183B7F" />
    <path fill-rule="evenodd" clip-rule="evenodd" d="M8 15.1798C11.866 15.1798 15 12.0458 15 8.17981C15 4.31382 11.866 1.17981 8 1.17981C4.13401 1.17981 1 4.31382 1 8.17981C1 12.0458 4.13401 15.1798 8 15.1798ZM8 16.1798C12.4183 16.1798 16 12.5981 16 8.17981C16 3.76153 12.4183 0.17981 8 0.17981C3.58172 0.17981 0 3.76153 0 8.17981C0 12.5981 3.58172 16.1798 8 16.1798Z" fill="white" />
    <path d="M5.375 7.80481L5.9375 6.11731H10.0625L10.625 7.80481H5.375ZM10.0625 9.67981C9.91332 9.67981 9.77024 9.62055 9.66475 9.51506C9.55926 9.40957 9.5 9.26649 9.5 9.11731C9.5 8.96813 9.55926 8.82505 9.66475 8.71956C9.77024 8.61407 9.91332 8.55481 10.0625 8.55481C10.2117 8.55481 10.3548 8.61407 10.4602 8.71956C10.5657 8.82505 10.625 8.96813 10.625 9.11731C10.625 9.26649 10.5657 9.40957 10.4602 9.51506C10.3548 9.62055 10.2117 9.67981 10.0625 9.67981ZM5.9375 9.67981C5.78832 9.67981 5.64524 9.62055 5.53975 9.51506C5.43426 9.40957 5.375 9.26649 5.375 9.11731C5.375 8.96813 5.43426 8.82505 5.53975 8.71956C5.64524 8.61407 5.78832 8.55481 5.9375 8.55481C6.08668 8.55481 6.22976 8.61407 6.33525 8.71956C6.44074 8.82505 6.5 8.96813 6.5 9.11731C6.5 9.26649 6.44074 9.40957 6.33525 9.51506C6.22976 9.62055 6.08668 9.67981 5.9375 9.67981ZM10.595 5.92981C10.52 5.71231 10.31 5.55481 10.0625 5.55481H5.9375C5.69 5.55481 5.48 5.71231 5.405 5.92981L4.625 8.17981V11.1798C4.625 11.2793 4.66451 11.3746 4.73483 11.445C4.80516 11.5153 4.90054 11.5548 5 11.5548H5.375C5.47446 11.5548 5.56984 11.5153 5.64016 11.445C5.71049 11.3746 5.75 11.2793 5.75 11.1798V10.8048H10.25V11.1798C10.25 11.2793 10.2895 11.3746 10.3598 11.445C10.4302 11.5153 10.5255 11.5548 10.625 11.5548H11C11.0995 11.5548 11.1948 11.5153 11.2652 11.445C11.3355 11.3746 11.375 11.2793 11.375 11.1798V8.17981L10.595 5.92981Z" fill="#FFA940" />
</svg>
    