<svg width="16" height="17" viewBox="0 0 16 17" fill="none" xmlns="http://www.w3.org/2000/svg">
    <path d="M16 8.17981C16 12.5981 12.4183 16.1798 8 16.1798C3.58172 16.1798 0 12.5981 0 8.17981C0 3.76153 3.58172 0.17981 8 0.17981C12.4183 0.17981 16 3.76153 16 8.17981Z" fill="#183B7F" />
    <path fill-rule="evenodd" clip-rule="evenodd" d="M8 15.1798C11.866 15.1798 15 12.0458 15 8.17981C15 4.31382 11.866 1.17981 8 1.17981C4.13401 1.17981 1 4.31382 1 8.17981C1 12.0458 4.13401 15.1798 8 15.1798ZM8 16.1798C12.4183 16.1798 16 12.5981 16 8.17981C16 3.76153 12.4183 0.17981 8 0.17981C3.58172 0.17981 0 3.76153 0 8.17981C0 12.5981 3.58172 16.1798 8 16.1798Z" fill="white" />
    <path d="M4.25 5.67981H11.75V10.6798H4.25V5.67981ZM8 6.92981C8.33152 6.92981 8.64946 7.06151 8.88388 7.29593C9.1183 7.53035 9.25 7.84829 9.25 8.17981C9.25 8.51133 9.1183 8.82927 8.88388 9.06369C8.64946 9.29811 8.33152 9.42981 8 9.42981C7.66848 9.42981 7.35054 9.29811 7.11612 9.06369C6.8817 8.82927 6.75 8.51133 6.75 8.17981C6.75 7.84829 6.8817 7.53035 7.11612 7.29593C7.35054 7.06151 7.66848 6.92981 8 6.92981ZM5.91667 6.51314C5.91667 6.73416 5.82887 6.94612 5.67259 7.1024C5.51631 7.25868 5.30435 7.34648 5.08333 7.34648V9.01314C5.30435 9.01314 5.51631 9.10094 5.67259 9.25722C5.82887 9.4135 5.91667 9.62546 5.91667 9.84648H10.0833C10.0833 9.62546 10.1711 9.4135 10.3274 9.25722C10.4837 9.10094 10.6957 9.01314 10.9167 9.01314V7.34648C10.6957 7.34648 10.4837 7.25868 10.3274 7.1024C10.1711 6.94612 10.0833 6.73416 10.0833 6.51314H5.91667Z" fill="#FFA940" />
</svg>
    