<svg width="16" height="17" viewBox="0 0 16 17" fill="none" xmlns="http://www.w3.org/2000/svg">
    <path d="M16 8.53979C16 12.9581 12.4183 16.5398 8 16.5398C3.58172 16.5398 0 12.9581 0 8.53979C0 4.12152 3.58172 0.539795 8 0.539795C12.4183 0.539795 16 4.12152 16 8.53979Z" fill="#183B7F" />
    <path fill-rule="evenodd" clip-rule="evenodd" d="M8 15.5398C11.866 15.5398 15 12.4058 15 8.53979C15 4.6738 11.866 1.53979 8 1.53979C4.13401 1.53979 1 4.6738 1 8.53979C1 12.4058 4.13401 15.5398 8 15.5398ZM8 16.5398C12.4183 16.5398 16 12.9581 16 8.53979C16 4.12152 12.4183 0.539795 8 0.539795C3.58172 0.539795 0 4.12152 0 8.53979C0 12.9581 3.58172 16.5398 8 16.5398Z" fill="white" />
    <path d="M10.25 9.66479H9.5V10.4148H10.25V9.66479ZM10.25 8.16479H9.5V8.91479H10.25V8.16479ZM11 11.1648H8V10.4148H8.75V9.66479H8V8.91479H8.75V8.16479H8V7.41479H11V11.1648ZM7.25 6.66479H6.5V5.91479H7.25V6.66479ZM7.25 8.16479H6.5V7.41479H7.25V8.16479ZM7.25 9.66479H6.5V8.91479H7.25V9.66479ZM7.25 11.1648H6.5V10.4148H7.25V11.1648ZM5.75 6.66479H5V5.91479H5.75V6.66479ZM5.75 8.16479H5V7.41479H5.75V8.16479ZM5.75 9.66479H5V8.91479H5.75V9.66479ZM5.75 11.1648H5V10.4148H5.75V11.1648ZM8 6.66479V5.16479H4.25V11.9148H11.75V6.66479H8Z" fill="#FFA940" />
</svg>
    