<svg width="16" height="17" viewBox="0 0 16 17" fill="none" xmlns="http://www.w3.org/2000/svg">
    <path d="M16 8.82019C16 13.2385 12.4183 16.8202 8 16.8202C3.58172 16.8202 0 13.2385 0 8.82019C0 4.40191 3.58172 0.82019 8 0.82019C12.4183 0.82019 16 4.40191 16 8.82019Z" fill="#183B7F" />
    <path fill-rule="evenodd" clip-rule="evenodd" d="M8 15.8202C11.866 15.8202 15 12.6862 15 8.82019C15 4.9542 11.866 1.82019 8 1.82019C4.13401 1.82019 1 4.9542 1 8.82019C1 12.6862 4.13401 15.8202 8 15.8202ZM8 16.8202C12.4183 16.8202 16 13.2385 16 8.82019C16 4.40191 12.4183 0.82019 8 0.82019C3.58172 0.82019 0 4.40191 0 8.82019C0 13.2385 3.58172 16.8202 8 16.8202Z" fill="white" />
    <g clip-path="url(#clip0_1018_5747)">
        <path d="M9.00016 12.4868H8.3335V11.8202H9.00016V12.4868ZM10.3335 11.8202H9.66683V12.4868H10.3335V11.8202ZM9.00016 10.4868H8.3335V11.1535H9.00016V10.4868ZM6.3335 11.8202H5.66683V12.4868H6.3335V11.8202ZM6.3335 10.4868H5.66683V11.1535H6.3335V10.4868ZM10.3335 10.4868H9.66683V11.1535H10.3335V10.4868ZM9.00016 9.1535H8.3335V9.82017H9.00016V9.1535ZM10.3335 9.1535H9.66683V9.82017H10.3335V9.1535ZM11.0002 7.82017C11.177 7.82017 11.3465 7.89041 11.4716 8.01543C11.5966 8.14046 11.6668 8.31003 11.6668 8.48684V12.4868H11.0002V8.48684H7.66683V12.4868H7.00016V9.82017H5.00016V12.4868H4.3335V9.82017C4.3335 9.64336 4.40373 9.47379 4.52876 9.34877C4.65378 9.22374 4.82335 9.1535 5.00016 9.1535H7.00016V8.48684C7.00016 8.31003 7.0704 8.14046 7.19542 8.01543C7.32045 7.89041 7.49002 7.82017 7.66683 7.82017V7.1535C7.66683 6.97669 7.73707 6.80712 7.86209 6.6821C7.98712 6.55707 8.15668 6.48684 8.3335 6.48684H9.00016V5.1535H9.66683V6.48684H10.3335C10.5103 6.48684 10.6799 6.55707 10.8049 6.6821C10.9299 6.80712 11.0002 6.97669 11.0002 7.1535V7.82017ZM10.3335 7.82017V7.1535H8.3335V7.82017H10.3335Z" fill="#FFA940" />
    </g>
    <defs>
        <clipPath id="clip0_1018_5747">
            <rect width="8" height="8" fill="white" transform="translate(4 4.82019)" />
        </clipPath>
    </defs>
</svg>
    