<svg width="16" height="17" viewBox="0 0 16 17" fill="none" xmlns="http://www.w3.org/2000/svg">
    <path d="M16 8.81982C16 13.2381 12.4183 16.8198 8 16.8198C3.58172 16.8198 0 13.2381 0 8.81982C0 4.40155 3.58172 0.819824 8 0.819824C12.4183 0.819824 16 4.40155 16 8.81982Z" fill="#183B7F" />
    <path fill-rule="evenodd" clip-rule="evenodd" d="M8 15.8198C11.866 15.8198 15 12.6858 15 8.81982C15 4.95383 11.866 1.81982 8 1.81982C4.13401 1.81982 1 4.95383 1 8.81982C1 12.6858 4.13401 15.8198 8 15.8198ZM8 16.8198C12.4183 16.8198 16 13.2381 16 8.81982C16 4.40155 12.4183 0.819824 8 0.819824C3.58172 0.819824 0 4.40155 0 8.81982C0 13.2381 3.58172 16.8198 8 16.8198Z" fill="white" />
    <g clip-path="url(#clip0_1018_5565)">
        <path d="M8 6.38232C8.3481 6.38232 8.68194 6.52061 8.92808 6.76675C9.17422 7.01289 9.3125 7.34673 9.3125 7.69482C9.3125 8.04292 9.17422 8.37676 8.92808 8.6229C8.68194 8.86904 8.3481 9.00732 8 9.00732C7.6519 9.00732 7.31806 8.86904 7.07192 8.6229C6.82578 8.37676 6.6875 8.04292 6.6875 7.69482C6.6875 7.34673 6.82578 7.01289 7.07192 6.76675C7.31806 6.52061 7.6519 6.38232 8 6.38232ZM5.375 7.31982C5.585 7.31982 5.78 7.37607 5.94875 7.47732C5.8925 8.01357 6.05 8.54607 6.3725 8.96232C6.185 9.32232 5.81 9.56982 5.375 9.56982C5.07663 9.56982 4.79048 9.4513 4.5795 9.24032C4.36853 9.02934 4.25 8.74319 4.25 8.44482C4.25 8.14646 4.36853 7.86031 4.5795 7.64933C4.79048 7.43835 5.07663 7.31982 5.375 7.31982ZM10.625 7.31982C10.9234 7.31982 11.2095 7.43835 11.4205 7.64933C11.6315 7.86031 11.75 8.14646 11.75 8.44482C11.75 8.74319 11.6315 9.02934 11.4205 9.24032C11.2095 9.4513 10.9234 9.56982 10.625 9.56982C10.19 9.56982 9.815 9.32232 9.6275 8.96232C9.95 8.54607 10.1075 8.01357 10.0512 7.47732C10.22 7.37607 10.415 7.31982 10.625 7.31982ZM5.5625 11.1636C5.5625 10.3873 6.65375 9.75732 8 9.75732C9.34625 9.75732 10.4375 10.3873 10.4375 11.1636V11.8198H5.5625V11.1636ZM3.5 11.8198V11.2573C3.5 10.7361 4.20875 10.2973 5.16875 10.1698C4.9475 10.4248 4.8125 10.7773 4.8125 11.1636V11.8198H3.5ZM12.5 11.8198H11.1875V11.1636C11.1875 10.7773 11.0525 10.4248 10.8312 10.1698C11.7912 10.2973 12.5 10.7361 12.5 11.2573V11.8198Z" fill="#FFA940" />
    </g>
    <defs>
        <clipPath id="clip0_1018_5565">
            <rect width="9" height="9" fill="white" transform="translate(3.5 4.31982)" />
        </clipPath>
    </defs>
</svg>
    