<svg width="16" height="17" viewBox="0 0 16 17" fill="none" xmlns="http://www.w3.org/2000/svg">
    <path d="M16 8.89978C16 13.3181 12.4183 16.8998 8 16.8998C3.58172 16.8998 0 13.3181 0 8.89978C0 4.4815 3.58172 0.89978 8 0.89978C12.4183 0.89978 16 4.4815 16 8.89978Z" fill="#183B7F" />
    <path fill-rule="evenodd" clip-rule="evenodd" d="M8 15.8998C11.866 15.8998 15 12.7658 15 8.89978C15 5.03379 11.866 1.89978 8 1.89978C4.13401 1.89978 1 5.03379 1 8.89978C1 12.7658 4.13401 15.8998 8 15.8998ZM8 16.8998C12.4183 16.8998 16 13.3181 16 8.89978C16 4.4815 12.4183 0.89978 8 0.89978C3.58172 0.89978 0 4.4815 0 8.89978C0 13.3181 3.58172 16.8998 8 16.8998Z" fill="white" />
    <path d="M7.99984 5.14978L3.4165 7.64978L7.99984 10.1498L11.7498 8.10395V10.9831H12.5832V7.64978L7.99984 5.14978ZM5.08317 9.39145V11.0581L7.99984 12.6498L10.9165 11.0581V9.39145L7.99984 10.9831L5.08317 9.39145Z" fill="#FFA940" />
</svg>
    