<svg width="16" height="17" viewBox="0 0 16 17" fill="none" xmlns="http://www.w3.org/2000/svg">
    <path d="M16 8.74023C16 13.1585 12.4183 16.7402 8 16.7402C3.58172 16.7402 0 13.1585 0 8.74023C0 4.32196 3.58172 0.740234 8 0.740234C12.4183 0.740234 16 4.32196 16 8.74023Z" fill="#183B7F" />
    <path fill-rule="evenodd" clip-rule="evenodd" d="M8 15.7402C11.866 15.7402 15 12.6062 15 8.74023C15 4.87424 11.866 1.74023 8 1.74023C4.13401 1.74023 1 4.87424 1 8.74023C1 12.6062 4.13401 15.7402 8 15.7402ZM8 16.7402C12.4183 16.7402 16 13.1585 16 8.74023C16 4.32196 12.4183 0.740234 8 0.740234C3.58172 0.740234 0 4.32196 0 8.74023C0 13.1585 3.58172 16.7402 8 16.7402Z" fill="white" />
    <path d="M6.37934 11.8444C5.47517 11.5111 4.75851 10.7319 4.54601 9.71941L3.85434 6.46525C3.75434 6.01525 4.04184 5.57358 4.49184 5.47775L8.56267 4.61525L8.57517 4.61108C9.02101 4.52358 9.45851 4.81108 9.55017 5.25275L9.69601 5.94858L11.5085 6.33608H11.521C11.9585 6.43608 12.2418 6.87775 12.1502 7.31941L11.4585 10.5777C11.1252 12.1486 9.57517 13.1569 8.00017 12.8194C7.34184 12.6819 6.78351 12.3277 6.37934 11.8444ZM11.3335 7.14858L7.26267 6.28191L6.57101 9.54025V9.55275C6.33351 10.6694 7.05434 11.7694 8.17517 12.0069C9.29601 12.2444 10.4043 11.5277 10.6418 10.4069L11.3335 7.14858ZM9.66684 10.6152C9.40434 11.0611 8.87934 11.3069 8.34601 11.1944C7.81684 11.0819 7.43767 10.6444 7.37517 10.1319L9.66684 10.6152ZM6.52934 5.89441L4.66684 6.29441L5.35851 9.54858L5.36267 9.56108C5.42517 9.85691 5.55017 10.1236 5.72101 10.3527C5.67934 10.0319 5.68767 9.69858 5.75851 9.36525L5.93767 8.53191C5.75017 8.49858 5.58767 8.39441 5.50017 8.24441C5.52517 7.99025 5.73351 7.76525 6.02101 7.69858C6.05434 7.69858 6.08351 7.69858 6.12517 7.69858L6.45017 6.11108C6.46684 6.03191 6.49184 5.96108 6.52934 5.89441ZM9.26267 8.83608C9.39601 8.61525 9.67934 8.49858 9.96684 8.56108C10.2543 8.61941 10.4627 8.84025 10.5002 9.09858C10.3627 9.31525 10.0835 9.43191 9.79184 9.36525C9.50434 9.31108 9.29601 9.09025 9.26267 8.83608ZM7.22934 8.40275C7.36267 8.18191 7.64184 8.06525 7.92934 8.12775C8.20851 8.18608 8.42934 8.41108 8.46267 8.66525C8.32517 8.88191 8.04601 9.00275 7.75851 8.94858C7.47101 8.87775 7.26267 8.65691 7.22934 8.40275ZM7.98767 5.58608L8.80434 5.76108L8.73767 5.42775L7.98767 5.58608Z" fill="#FFA940" />
</svg>
    