<svg width="16" height="17" viewBox="0 0 16 17" fill="none" xmlns="http://www.w3.org/2000/svg">
    <path d="M16 8.82019C16 13.2385 12.4183 16.8202 8 16.8202C3.58172 16.8202 0 13.2385 0 8.82019C0 4.40191 3.58172 0.82019 8 0.82019C12.4183 0.82019 16 4.40191 16 8.82019Z" fill="#183B7F" />
    <path fill-rule="evenodd" clip-rule="evenodd" d="M8 15.8202C11.866 15.8202 15 12.6862 15 8.82019C15 4.9542 11.866 1.82019 8 1.82019C4.13401 1.82019 1 4.9542 1 8.82019C1 12.6862 4.13401 15.8202 8 15.8202ZM8 16.8202C12.4183 16.8202 16 13.2385 16 8.82019C16 4.40191 12.4183 0.82019 8 0.82019C3.58172 0.82019 0 4.40191 0 8.82019C0 13.2385 3.58172 16.8202 8 16.8202Z" fill="white" />
    <path d="M7.625 7.69519H6.875V5.07019H6.125V7.69519H5.375V5.07019H4.625V7.69519C4.625 8.49019 5.2475 9.13519 6.03125 9.18394V12.5702H6.96875V9.18394C7.7525 9.13519 8.375 8.49019 8.375 7.69519V5.07019H7.625V7.69519ZM9.5 6.57019V9.57019H10.4375V12.5702H11.375V5.07019C10.34 5.07019 9.5 5.91019 9.5 6.57019Z" fill="#FFA940" />
</svg>
    