<svg width="16" height="17" viewBox="0 0 16 17" fill="none" xmlns="http://www.w3.org/2000/svg">
    <path d="M16 8.10022C16 12.5185 12.4183 16.1002 8 16.1002C3.58172 16.1002 0 12.5185 0 8.10022C0 3.68194 3.58172 0.10022 8 0.10022C12.4183 0.10022 16 3.68194 16 8.10022Z" fill="#183B7F" />
    <path fill-rule="evenodd" clip-rule="evenodd" d="M8 15.1002C11.866 15.1002 15 11.9662 15 8.10022C15 4.23423 11.866 1.10022 8 1.10022C4.13401 1.10022 1 4.23423 1 8.10022C1 11.9662 4.13401 15.1002 8 15.1002ZM8 16.1002C12.4183 16.1002 16 12.5185 16 8.10022C16 3.68194 12.4183 0.10022 8 0.10022C3.58172 0.10022 0 3.68194 0 8.10022C0 12.5185 3.58172 16.1002 8 16.1002Z" fill="white" />
    <path d="M7.625 6.22522C7.42609 6.22522 7.23532 6.30424 7.09467 6.44489C6.95402 6.58554 6.875 6.77631 6.875 6.97522V9.22522C6.875 9.42413 6.95402 9.6149 7.09467 9.75555C7.23532 9.8962 7.42609 9.97522 7.625 9.97522H8.375C8.57391 9.97522 8.76468 9.8962 8.90533 9.75555C9.04598 9.6149 9.125 9.42413 9.125 9.22522V7.72522H8.375V9.22522H7.625V6.97522H9.125V6.22522H7.625ZM5.375 4.72522H10.625C10.8239 4.72522 11.0147 4.80424 11.1553 4.94489C11.296 5.08554 11.375 5.27631 11.375 5.47522V10.7252C11.375 10.9241 11.296 11.1149 11.1553 11.2555C11.0147 11.3962 10.8239 11.4752 10.625 11.4752H5.375C5.17609 11.4752 4.98532 11.3962 4.84467 11.2555C4.70402 11.1149 4.625 10.9241 4.625 10.7252V5.47522C4.625 5.27631 4.70402 5.08554 4.84467 4.94489C4.98532 4.80424 5.17609 4.72522 5.375 4.72522V4.72522Z" fill="#FFA940" />
</svg>
    