<svg width="16" height="17" viewBox="0 0 16 17" fill="none" xmlns="http://www.w3.org/2000/svg">
    <path d="M16 8.53979C16 12.9581 12.4183 16.5398 8 16.5398C3.58172 16.5398 0 12.9581 0 8.53979C0 4.12152 3.58172 0.539795 8 0.539795C12.4183 0.539795 16 4.12152 16 8.53979Z" fill="#183B7F" />
    <path fill-rule="evenodd" clip-rule="evenodd" d="M8 15.5398C11.866 15.5398 15 12.4058 15 8.53979C15 4.6738 11.866 1.53979 8 1.53979C4.13401 1.53979 1 4.6738 1 8.53979C1 12.4058 4.13401 15.5398 8 15.5398ZM8 16.5398C12.4183 16.5398 16 12.9581 16 8.53979C16 4.12152 12.4183 0.539795 8 0.539795C3.58172 0.539795 0 4.12152 0 8.53979C0 12.9581 3.58172 16.5398 8 16.5398Z" fill="white" />
    <path d="M10.25 9.28979H8.75V10.7898H7.25V9.28979H5.75V7.78979H7.25V6.28979H8.75V7.78979H10.25V9.28979ZM10.625 5.16479H5.375C4.95875 5.16479 4.625 5.49854 4.625 5.91479V11.1648C4.625 11.3637 4.70402 11.5545 4.84467 11.6951C4.98532 11.8358 5.17609 11.9148 5.375 11.9148H10.625C10.8239 11.9148 11.0147 11.8358 11.1553 11.6951C11.296 11.5545 11.375 11.3637 11.375 11.1648V5.91479C11.375 5.49854 11.0375 5.16479 10.625 5.16479Z" fill="#FFA940" />
</svg>
    