<svg width="16" height="17" viewBox="0 0 16 17" fill="none" xmlns="http://www.w3.org/2000/svg">
    <path d="M16 8.32019C16 12.7385 12.4183 16.3202 8 16.3202C3.58172 16.3202 0 12.7385 0 8.32019C0 3.90191 3.58172 0.32019 8 0.32019C12.4183 0.32019 16 3.90191 16 8.32019Z" fill="#183B7F" />
    <path fill-rule="evenodd" clip-rule="evenodd" d="M8 15.3202C11.866 15.3202 15 12.1862 15 8.32019C15 4.4542 11.866 1.32019 8 1.32019C4.13401 1.32019 1 4.4542 1 8.32019C1 12.1862 4.13401 15.3202 8 15.3202ZM8 16.3202C12.4183 16.3202 16 12.7385 16 8.32019C16 3.90191 12.4183 0.32019 8 0.32019C3.58172 0.32019 0 3.90191 0 8.32019C0 12.7385 3.58172 16.3202 8 16.3202Z" fill="white" />
    <g clip-path="url(#clip0_1018_5695)">
        <path d="M10.625 6.44519H7.625V9.07019H4.625V5.69519H3.875V11.3202H4.625V10.1952H11.375V11.3202H12.125V7.94519C12.125 7.54737 11.967 7.16583 11.6857 6.88453C11.4044 6.60323 11.0228 6.44519 10.625 6.44519ZM6.125 8.69519C6.42337 8.69519 6.70952 8.57666 6.9205 8.36569C7.13147 8.15471 7.25 7.86856 7.25 7.57019C7.25 7.27182 7.13147 6.98567 6.9205 6.7747C6.70952 6.56372 6.42337 6.44519 6.125 6.44519C5.82663 6.44519 5.54048 6.56372 5.3295 6.7747C5.11853 6.98567 5 7.27182 5 7.57019C5 7.86856 5.11853 8.15471 5.3295 8.36569C5.54048 8.57666 5.82663 8.69519 6.125 8.69519Z" fill="#FFA940" />
    </g>
    <defs>
        <clipPath id="clip0_1018_5695">
            <rect width="9" height="9" fill="white" transform="translate(3.5 3.82019)" />
        </clipPath>
    </defs>
</svg>
    