<svg width="16" height="17" viewBox="0 0 16 17" fill="none" xmlns="http://www.w3.org/2000/svg">
    <path d="M16 8.46021C16 12.8785 12.4183 16.4602 8 16.4602C3.58172 16.4602 0 12.8785 0 8.46021C0 4.04193 3.58172 0.460205 8 0.460205C12.4183 0.460205 16 4.04193 16 8.46021Z" fill="#183B7F" />
    <path fill-rule="evenodd" clip-rule="evenodd" d="M8 15.4602C11.866 15.4602 15 12.3262 15 8.46021C15 4.59421 11.866 1.46021 8 1.46021C4.13401 1.46021 1 4.59421 1 8.46021C1 12.3262 4.13401 15.4602 8 15.4602ZM8 16.4602C12.4183 16.4602 16 12.8785 16 8.46021C16 4.04193 12.4183 0.460205 8 0.460205C3.58172 0.460205 0 4.04193 0 8.46021C0 12.8785 3.58172 16.4602 8 16.4602Z" fill="white" />
    <path d="M5.9165 9.29353V8.00603C5.6165 7.86853 5.33734 7.70186 5.08317 7.50603V9.29353H5.9165ZM5.08317 10.9602H4.24984V10.1269H3.4165V9.29353H4.24984V6.37686H5.08317V6.9727C5.83317 7.62686 6.86234 8.04353 7.99984 8.04353C9.13734 8.04353 10.1665 7.62686 10.9165 6.9727V6.37686H11.7498V9.29353H12.5832V10.1269H11.7498V10.9602H10.9165V10.1269H5.08317V10.9602ZM10.0832 8.00603V9.29353H10.9165V7.50603C10.6623 7.70186 10.3832 7.86853 10.0832 8.00603ZM9.6665 9.29353V8.17686C9.39984 8.27269 9.12067 8.34353 8.83317 8.39353V9.29353H9.6665ZM8.4165 9.29353V8.44353L7.99984 8.4602L7.58317 8.44353V9.29353H8.4165ZM7.1665 9.29353V8.39353C6.879 8.34353 6.59984 8.27269 6.33317 8.17686V9.29353H7.1665Z" fill="#FFA940" />
</svg>
    