<svg width="16" height="17" viewBox="0 0 16 17" fill="none" xmlns="http://www.w3.org/2000/svg">
    <path d="M16 8.17981C16 12.5981 12.4183 16.1798 8 16.1798C3.58172 16.1798 0 12.5981 0 8.17981C0 3.76153 3.58172 0.17981 8 0.17981C12.4183 0.17981 16 3.76153 16 8.17981Z" fill="#183B7F" />
    <path fill-rule="evenodd" clip-rule="evenodd" d="M8 15.1798C11.866 15.1798 15 12.0458 15 8.17981C15 4.31382 11.866 1.17981 8 1.17981C4.13401 1.17981 1 4.31382 1 8.17981C1 12.0458 4.13401 15.1798 8 15.1798ZM8 16.1798C12.4183 16.1798 16 12.5981 16 8.17981C16 3.76153 12.4183 0.17981 8 0.17981C3.58172 0.17981 0 3.76153 0 8.17981C0 12.5981 3.58172 16.1798 8 16.1798Z" fill="white" />
    <path d="M7.625 4.42981H8.375V5.17981H9.125V5.92981H8.375V7.20481L11.75 8.55481V9.30481L11 9.00481V11.9298H8.75V10.0548C8.75 9.8559 8.67098 9.66513 8.53033 9.52448C8.38968 9.38383 8.19891 9.30481 8 9.30481C7.80109 9.30481 7.61032 9.38383 7.46967 9.52448C7.32902 9.66513 7.25 9.8559 7.25 10.0548V11.9298H5V9.00481L4.25 9.30481V8.55481L7.625 7.20481V5.92981H6.875V5.17981H7.625V4.42981ZM5.75 11.1798H6.5V9.30481L6.125 8.92981L5.75 9.30481V11.1798ZM9.5 11.1798H10.25V9.30481L9.875 8.92981L9.5 9.30481V11.1798Z" fill="#FFA940" />
</svg>
    