<svg width="16" height="17" viewBox="0 0 16 17" fill="none" xmlns="http://www.w3.org/2000/svg">
    <path d="M16 8.60022C16 13.0185 12.4183 16.6002 8 16.6002C3.58172 16.6002 0 13.0185 0 8.60022C0 4.18194 3.58172 0.60022 8 0.60022C12.4183 0.60022 16 4.18194 16 8.60022Z" fill="#183B7F" />
    <path fill-rule="evenodd" clip-rule="evenodd" d="M8 15.6002C11.866 15.6002 15 12.4662 15 8.60022C15 4.73423 11.866 1.60022 8 1.60022C4.13401 1.60022 1 4.73423 1 8.60022C1 12.4662 4.13401 15.6002 8 15.6002ZM8 16.6002C12.4183 16.6002 16 13.0185 16 8.60022C16 4.18194 12.4183 0.60022 8 0.60022C3.58172 0.60022 0 4.18194 0 8.60022C0 13.0185 3.58172 16.6002 8 16.6002Z" fill="white" />
    <path d="M10.8002 9.75023C10.946 9.39606 11.0252 9.01689 11.0252 8.60023C11.0252 8.30023 10.9793 8.01273 10.9002 7.74606C10.6293 7.80856 10.346 7.84189 10.0502 7.84189C8.77516 7.84189 7.646 7.21273 6.9585 6.24189C6.58766 7.14189 5.87933 7.87523 4.98766 8.27523C4.971 8.37939 4.971 8.49189 4.971 8.60023C4.971 9.40361 5.29014 10.1741 5.85822 10.7422C6.4263 11.3103 7.19678 11.6294 8.00016 11.6294C8.43766 11.6294 8.8585 11.5336 9.23766 11.3627C9.47516 11.8169 9.5835 12.0419 9.57516 12.0419C8.89183 12.2711 8.36266 12.3836 8.00016 12.3836C6.99183 12.3836 6.02933 11.9877 5.321 11.2752C4.88766 10.8419 4.56683 10.3127 4.38766 9.73773H3.8335V7.84189H4.28766C4.63766 6.11689 6.16683 4.81689 8.00016 4.81689C9.00016 4.81689 9.96266 5.21273 10.6752 5.92523C11.2043 6.45023 11.5585 7.12106 11.7043 7.84189H12.1668V9.71273V9.72106V9.73773H12.1418L10.6585 11.1002L8.45016 10.8502V10.1544H10.4627L10.8002 9.75023ZM6.86266 8.50439C6.98766 8.50439 7.1085 8.55439 7.196 8.64606C7.2835 8.73356 7.3335 8.85439 7.3335 8.97939C7.3335 9.10439 7.2835 9.22523 7.196 9.31273C7.1085 9.40023 6.98766 9.45023 6.86266 9.45023C6.60016 9.45023 6.38766 9.24189 6.38766 8.97939C6.38766 8.71689 6.60016 8.50439 6.86266 8.50439ZM9.1335 8.50439C9.396 8.50439 9.60433 8.71689 9.60433 8.97939C9.60433 9.24189 9.396 9.45023 9.1335 9.45023C8.871 9.45023 8.6585 9.24189 8.6585 8.97939C8.6585 8.85342 8.70854 8.7326 8.79762 8.64352C8.8867 8.55444 9.00752 8.50439 9.1335 8.50439Z" fill="#FFA940" />
</svg>
    