<svg width="16" height="17" viewBox="0 0 16 17" fill="none" xmlns="http://www.w3.org/2000/svg">
    <path d="M16 8.46021C16 12.8785 12.4183 16.4602 8 16.4602C3.58172 16.4602 0 12.8785 0 8.46021C0 4.04193 3.58172 0.460205 8 0.460205C12.4183 0.460205 16 4.04193 16 8.46021Z" fill="#183B7F" />
    <path fill-rule="evenodd" clip-rule="evenodd" d="M8 15.4602C11.866 15.4602 15 12.3262 15 8.46021C15 4.59421 11.866 1.46021 8 1.46021C4.13401 1.46021 1 4.59421 1 8.46021C1 12.3262 4.13401 15.4602 8 15.4602ZM8 16.4602C12.4183 16.4602 16 12.8785 16 8.46021C16 4.04193 12.4183 0.460205 8 0.460205C3.58172 0.460205 0 4.04193 0 8.46021C0 12.8785 3.58172 16.4602 8 16.4602Z" fill="white" />
    <g clip-path="url(#clip0_1018_5799)">
        <path d="M8 8.83521C7.50272 8.83521 7.02581 8.63766 6.67417 8.28603C6.32254 7.9344 6.125 7.45749 6.125 6.96021H6.875C6.875 7.25857 6.99353 7.54472 7.2045 7.7557C7.41548 7.96668 7.70163 8.08521 8 8.08521C8.29837 8.08521 8.58452 7.96668 8.7955 7.7557C9.00647 7.54472 9.125 7.25857 9.125 6.96021H9.875C9.875 7.45749 9.67746 7.9344 9.32583 8.28603C8.97419 8.63766 8.49728 8.83521 8 8.83521ZM8 5.08521C8.29837 5.08521 8.58452 5.20373 8.7955 5.41471C9.00647 5.62569 9.125 5.91184 9.125 6.21021H6.875C6.875 5.91184 6.99353 5.62569 7.2045 5.41471C7.41548 5.20373 7.70163 5.08521 8 5.08521ZM10.625 6.21021H9.875C9.875 5.96398 9.8265 5.72016 9.73227 5.49267C9.63805 5.26519 9.49994 5.05849 9.32583 4.88438C9.15172 4.71027 8.94502 4.57216 8.71753 4.47793C8.49005 4.3837 8.24623 4.33521 8 4.33521C7.50272 4.33521 7.02581 4.53275 6.67417 4.88438C6.32254 5.23601 6.125 5.71292 6.125 6.21021H5.375C4.95875 6.21021 4.625 6.54396 4.625 6.96021V11.4602C4.625 11.6591 4.70402 11.8499 4.84467 11.9905C4.98532 12.1312 5.17609 12.2102 5.375 12.2102H10.625C10.8239 12.2102 11.0147 12.1312 11.1553 11.9905C11.296 11.8499 11.375 11.6591 11.375 11.4602V6.96021C11.375 6.54396 11.0375 6.21021 10.625 6.21021Z" fill="#FFA940" />
    </g>
    <defs>
        <clipPath id="clip0_1018_5799">
            <rect width="9" height="9" fill="white" transform="translate(3.5 3.96021)" />
        </clipPath>
    </defs>
</svg>
    