<svg width="16" height="17" viewBox="0 0 16 17" fill="none" xmlns="http://www.w3.org/2000/svg">
    <path d="M16 8.46021C16 12.8785 12.4183 16.4602 8 16.4602C3.58172 16.4602 0 12.8785 0 8.46021C0 4.04193 3.58172 0.460205 8 0.460205C12.4183 0.460205 16 4.04193 16 8.46021Z" fill="#183B7F" />
    <path fill-rule="evenodd" clip-rule="evenodd" d="M8 15.4602C11.866 15.4602 15 12.3262 15 8.46021C15 4.59421 11.866 1.46021 8 1.46021C4.13401 1.46021 1 4.59421 1 8.46021C1 12.3262 4.13401 15.4602 8 15.4602ZM8 16.4602C12.4183 16.4602 16 12.8785 16 8.46021C16 4.04193 12.4183 0.460205 8 0.460205C3.58172 0.460205 0 4.04193 0 8.46021C0 12.8785 3.58172 16.4602 8 16.4602Z" fill="white" />
    <path d="M11.571 9.65185L12.1668 9.05602L11.571 8.46019L10.0835 9.94768L6.51266 6.37685L8.00016 4.88935L7.40433 4.29352L6.8085 4.88935L6.21266 4.29352L5.321 5.18518L4.72516 4.58935L4.12933 5.18518L4.72516 5.78102L3.8335 6.67268L4.42933 7.26852L3.8335 7.86435L4.42933 8.46019L5.91683 6.97269L9.48766 10.5435L8.00016 12.031L8.596 12.6269L9.19183 12.031L9.78766 12.6269L10.6793 11.7352L11.2752 12.331L11.871 11.7352L11.2752 11.1394L12.1668 10.2477L11.571 9.65185Z" fill="#FFA940" />
</svg>
    