<svg width="16" height="17" viewBox="0 0 16 17" fill="none" xmlns="http://www.w3.org/2000/svg">
    <path d="M16 8.82019C16 13.2385 12.4183 16.8202 8 16.8202C3.58172 16.8202 0 13.2385 0 8.82019C0 4.40191 3.58172 0.82019 8 0.82019C12.4183 0.82019 16 4.40191 16 8.82019Z" fill="#183B7F" />
    <path fill-rule="evenodd" clip-rule="evenodd" d="M8 15.8202C11.866 15.8202 15 12.6862 15 8.82019C15 4.9542 11.866 1.82019 8 1.82019C4.13401 1.82019 1 4.9542 1 8.82019C1 12.6862 4.13401 15.8202 8 15.8202ZM8 16.8202C12.4183 16.8202 16 13.2385 16 8.82019C16 4.40191 12.4183 0.82019 8 0.82019C3.58172 0.82019 0 4.40191 0 8.82019C0 13.2385 3.58172 16.8202 8 16.8202Z" fill="white" />
    <g clip-path="url(#clip0_1018_5825)">
        <path d="M10.1665 10.4202C9.93317 10.4202 9.7665 10.2202 9.7665 10.0202C9.7665 9.78688 9.9665 9.62021 10.1665 9.62021C10.3665 9.62021 10.5665 9.82021 10.5665 10.0202C10.5998 10.2202 10.3998 10.4202 10.1665 10.4202ZM10.1665 8.82021C9.53317 8.82021 8.99984 9.35354 8.99984 9.98688C8.99984 10.8535 10.1665 12.1535 10.1665 12.1535C10.1665 12.1535 11.3332 10.8535 11.3332 9.98688C11.3332 9.35354 10.7998 8.82021 10.1665 8.82021ZM6.99984 5.48688L6.33317 6.15354H5.33317C4.9665 6.15354 4.6665 6.45354 4.6665 6.82021V10.8202C4.6665 11.1869 4.9665 11.4869 5.33317 11.4869H8.83317C8.63317 11.1869 8.4665 10.8535 8.3665 10.4535C8.2665 10.4869 8.13317 10.4869 7.99984 10.4869C7.0665 10.4869 6.33317 9.75354 6.33317 8.82021C6.33317 7.88688 7.0665 7.15354 7.99984 7.15354C8.69984 7.15354 9.33317 7.58688 9.5665 8.25354C9.7665 8.18688 9.9665 8.15354 10.1665 8.15354C10.5998 8.15354 10.9998 8.32021 11.3332 8.58688V6.82021C11.3332 6.45354 11.0332 6.15354 10.6665 6.15354H9.6665L8.99984 5.48688H6.99984ZM7.9665 7.82021C7.43317 7.82021 6.99984 8.28688 6.99984 8.82021C6.99984 9.38688 7.43317 9.82021 7.99984 9.82021C8.13317 9.82021 8.23317 9.78688 8.33317 9.75354C8.39984 9.28688 8.63317 8.88688 8.9665 8.58688C8.8665 8.15354 8.4665 7.82021 7.9665 7.82021C7.99984 7.82021 7.99984 7.82021 7.9665 7.82021Z" fill="#FFA940" />
    </g>
    <defs>
        <clipPath id="clip0_1018_5825">
            <rect width="8" height="8" fill="white" transform="translate(4 4.82019)" />
        </clipPath>
    </defs>
</svg>
    