<svg width="16" height="17" viewBox="0 0 16 17" fill="none" xmlns="http://www.w3.org/2000/svg">
    <path d="M16 8.32019C16 12.7385 12.4183 16.3202 8 16.3202C3.58172 16.3202 0 12.7385 0 8.32019C0 3.90191 3.58172 0.32019 8 0.32019C12.4183 0.32019 16 3.90191 16 8.32019Z" fill="#183B7F" />
    <path fill-rule="evenodd" clip-rule="evenodd" d="M8 15.3202C11.866 15.3202 15 12.1862 15 8.32019C15 4.4542 11.866 1.32019 8 1.32019C4.13401 1.32019 1 4.4542 1 8.32019C1 12.1862 4.13401 15.3202 8 15.3202ZM8 16.3202C12.4183 16.3202 16 12.7385 16 8.32019C16 3.90191 12.4183 0.32019 8 0.32019C3.58172 0.32019 0 3.90191 0 8.32019C0 12.7385 3.58172 16.3202 8 16.3202Z" fill="white" />
    <path d="M8 5.32019H5.375C5.07663 5.32019 4.79048 5.43872 4.5795 5.6497C4.36853 5.86067 4.25 6.14682 4.25 6.44519V9.44519C4.25 9.74356 4.36853 10.0297 4.5795 10.2407C4.79048 10.4517 5.07663 10.5702 5.375 10.5702L5 10.9452V11.3202H5.375L6.125 10.5589L6.875 10.5702V8.69519H5V6.07019H8.375V6.82019H9.125V6.44519C9.125 6.14682 9.00647 5.86067 8.7955 5.6497C8.58452 5.43872 8.29837 5.32019 8 5.32019ZM5.375 9.07019C5.47446 9.07019 5.56984 9.1097 5.64016 9.18003C5.71049 9.25035 5.75 9.34573 5.75 9.44519C5.75 9.54465 5.71049 9.64003 5.64016 9.71036C5.56984 9.78068 5.47446 9.82019 5.375 9.82019C5.27554 9.82019 5.18016 9.78068 5.10984 9.71036C5.03951 9.64003 5 9.54465 5 9.44519C5 9.34573 5.03951 9.25035 5.10984 9.18003C5.18016 9.1097 5.27554 9.07019 5.375 9.07019ZM11.2137 7.44269C11.1613 7.29269 11.0188 7.19519 10.85 7.19519H8.15375C7.98125 7.19519 7.8425 7.29269 7.78625 7.44269L7.25 8.98394V11.0502C7.25 11.1927 7.37 11.3202 7.5125 11.3202H7.745C7.8875 11.3202 8 11.1777 8 11.0352V10.5702H11V11.0352C11 11.1777 11.1163 11.3202 11.2587 11.3202H11.4875C11.63 11.3202 11.75 11.1927 11.75 11.0502V10.5364V8.98394L11.2137 7.44269ZM8.15375 7.57019H10.85L11.2362 8.69519H7.7675L8.15375 7.57019ZM8 9.82019C7.90054 9.82019 7.80516 9.78068 7.73484 9.71036C7.66451 9.64003 7.625 9.54465 7.625 9.44519C7.625 9.34573 7.66451 9.25035 7.73484 9.18003C7.80516 9.1097 7.90054 9.07019 8 9.07019C8.09946 9.07019 8.19484 9.1097 8.26516 9.18003C8.33549 9.25035 8.375 9.34573 8.375 9.44519C8.375 9.54465 8.33549 9.64003 8.26516 9.71036C8.19484 9.78068 8.09946 9.82019 8 9.82019ZM11 9.82019C10.9005 9.82019 10.8052 9.78068 10.7348 9.71036C10.6645 9.64003 10.625 9.54465 10.625 9.44519C10.625 9.34573 10.6645 9.25035 10.7348 9.18003C10.8052 9.1097 10.9005 9.07019 11 9.07019C11.0995 9.07019 11.1948 9.1097 11.2652 9.18003C11.3355 9.25035 11.375 9.34573 11.375 9.44519C11.375 9.54465 11.3355 9.64003 11.2652 9.71036C11.1948 9.78068 11.0995 9.82019 11 9.82019Z" fill="#FFA940" />
</svg>
    